<svg width="24" height="24" viewBox="0 0 24 24" fill="none" xmlns="http://www.w3.org/2000/svg">
<g id="Icon">
<g id="Group">
<path id="Vector" d="M20.2203 16.62C20.2203 17.47 19.5303 18.16 18.6803 18.16H5.32028C4.47028 18.16 3.78027 17.47 3.78027 16.62C3.78027 15.77 4.47028 15.08 5.32028 15.08H5.83026V9.94002C5.83026 6.54002 8.59027 3.77002 12.0003 3.77002C13.7003 3.77002 15.2403 4.46002 16.3603 5.58002C17.4803 6.69002 18.1703 8.23002 18.1703 9.94002V15.08H18.6803C19.5303 15.08 20.2203 15.77 20.2203 16.62Z" stroke="black" stroke-width="1.5" stroke-linecap="round" stroke-linejoin="round"/>
<path id="Vector_2" d="M12 3.78V2.75" stroke="black" stroke-width="1.5" stroke-linecap="round" stroke-linejoin="round"/>
<path id="Vector_3" d="M15.0799 18.1699C15.0799 19.8799 13.6999 21.2499 11.9999 21.2499C10.2999 21.2499 8.91992 19.8699 8.91992 18.1699H15.0799Z" stroke="black" stroke-width="1.5" stroke-linecap="round" stroke-linejoin="round"/>
</g>
</g>
</svg>
