<svg width="32" height="32" viewBox="0 0 32 32" fill="none" xmlns="http://www.w3.org/2000/svg">
<path d="M19.3174 4.60647L18.3286 4.45775L19.3174 4.60647ZM12.6839 4.60647L11.695 4.75519L12.6839 4.60647ZM13.6673 4.14717C13.6673 3.88126 13.8829 3.66569 14.1488 3.66569V1.66569C12.7783 1.66569 11.6673 2.77668 11.6673 4.14717H13.6673ZM13.6673 4.38429V4.14717H11.6673V4.38429H13.6673ZM13.6727 4.45774C13.6692 4.43433 13.6673 4.40985 13.6673 4.38429H11.6673C11.6673 4.50975 11.6767 4.63365 11.695 4.75519L13.6727 4.45774ZM10.8155 5.79915H12.5288V3.79915H10.8155V5.79915ZM10.334 6.28063C10.334 6.01472 10.5495 5.79915 10.8155 5.79915V3.79915C9.44498 3.79915 8.33398 4.91015 8.33398 6.28063H10.334ZM10.334 6.51775V6.28063H8.33398V6.51775H10.334ZM10.8155 6.99923C10.5496 6.99923 10.334 6.78366 10.334 6.51775H8.33398C8.33398 7.88823 9.44498 8.99923 10.8155 8.99923V6.99923ZM21.1859 6.99923H10.8155V8.99923H21.1859V6.99923ZM21.6673 6.51775C21.6673 6.78366 21.4518 6.99923 21.1859 6.99923V8.99923C22.5563 8.99923 23.6673 7.88824 23.6673 6.51775H21.6673ZM21.6673 6.28064V6.51775H23.6673V6.28064H21.6673ZM21.1859 5.79915C21.4518 5.79915 21.6673 6.01472 21.6673 6.28064H23.6673C23.6673 4.91015 22.5563 3.79915 21.1859 3.79915V5.79915ZM19.4725 5.79915H21.1859V3.79915H19.4725V5.79915ZM18.334 4.38429C18.334 4.40985 18.3321 4.43433 18.3286 4.45775L20.3063 4.75519C20.3246 4.63365 20.334 4.50975 20.334 4.38429H18.334ZM18.334 4.14717V4.38429H20.334V4.14717H18.334ZM17.8525 3.66569C18.1184 3.66569 18.334 3.88126 18.334 4.14717H20.334C20.334 2.77669 19.223 1.66569 17.8525 1.66569V3.66569ZM14.1488 3.66569H17.8525V1.66569H14.1488V3.66569ZM19.4725 3.79915C20.0747 3.79915 20.3688 4.33997 20.3063 4.75519L18.3286 4.45775C18.2367 5.06823 18.6729 5.79915 19.4725 5.79915V3.79915ZM11.695 4.75519C11.6325 4.33998 11.9266 3.79915 12.5288 3.79915V5.79915C13.3284 5.79915 13.7646 5.06823 13.6727 4.45774L11.695 4.75519Z" fill="black"/>
<path d="M9.34029 6.6665L10.3354 6.56795L10.2461 5.6665H9.34029V6.6665ZM22.6591 6.6665V5.6665H21.7532L21.664 6.56795L22.6591 6.6665ZM8.34516 6.76505C8.46948 8.02039 9.52695 9.00021 10.8145 9.00021V7.00021C10.5654 7.00021 10.3594 6.81025 10.3354 6.56795L8.34516 6.76505ZM10.8145 9.00021H21.1849V7.00021H10.8145V9.00021ZM21.1849 9.00021C22.4724 9.00021 23.5299 8.02039 23.6542 6.76505L21.664 6.56795C21.64 6.81025 21.434 7.00021 21.1849 7.00021V9.00021ZM22.6591 7.6665H23.7035V5.6665H22.6591V7.6665ZM23.7035 7.6665C24.7877 7.6665 25.6665 8.54535 25.6665 9.62947H27.6665C27.6665 7.44078 25.8922 5.6665 23.7035 5.6665V7.6665ZM25.6665 9.62947V26.3702H27.6665V9.62947H25.6665ZM25.6665 26.3702C25.6665 27.4543 24.7877 28.3332 23.7035 28.3332V30.3332C25.8922 30.3332 27.6665 28.5589 27.6665 26.3702H25.6665ZM23.7035 28.3332H8.29614V30.3332H23.7035V28.3332ZM8.29614 28.3332C7.21202 28.3332 6.33317 27.4543 6.33317 26.3702H4.33317C4.33317 28.5589 6.10746 30.3332 8.29614 30.3332V28.3332ZM6.33317 26.3702V9.62946H4.33317V26.3702H6.33317ZM6.33317 9.62946C6.33317 8.54535 7.21202 7.6665 8.29613 7.6665V5.6665C6.10745 5.6665 4.33317 7.44078 4.33317 9.62946H6.33317ZM8.29613 7.6665H9.34029V5.6665H8.29613V7.6665Z" fill="black"/>
<path d="M14.6665 14.6665L22.6665 14.6665" stroke="black" stroke-width="2" stroke-linecap="round"/>
<path d="M9.33317 14.6665H10.6665" stroke="black" stroke-width="2" stroke-linecap="round"/>
<path d="M14.6665 18.6665L22.6665 18.6665" stroke="black" stroke-width="2" stroke-linecap="round"/>
<path d="M9.33317 18.6665H10.6665" stroke="black" stroke-width="2" stroke-linecap="round"/>
<path d="M14.6665 22.6665L22.6665 22.6665" stroke="black" stroke-width="2" stroke-linecap="round"/>
<path d="M9.33317 22.6665H10.6665" stroke="black" stroke-width="2" stroke-linecap="round"/>
</svg>
