<svg width="68" height="68" viewBox="0 0 68 68" fill="none" xmlns="http://www.w3.org/2000/svg">
<rect width="68" height="68" rx="34" fill="#F4F4F4"/>
<path d="M36.9447 40.4359L43.0219 34.3463C43.217 34.1508 43.2167 33.8342 43.0212 33.6392L36.9291 27.5595C36.614 27.245 36.0759 27.4682 36.0759 27.9134L36.0759 30.3727C36.0759 30.6496 35.8499 30.8733 35.573 30.8768C29.9073 30.9482 25.6978 32.6563 24.8021 37.6185C24.7083 38.1377 25.6006 38.4768 26.0418 38.1876C28.8718 36.3324 34.154 36.8637 35.6726 37.0644C35.9149 37.0964 36.0907 37.304 36.0907 37.5485L36.0907 40.0827C36.0907 40.5284 36.6298 40.7514 36.9447 40.4359Z" stroke="black" stroke-width="1.5" stroke-linecap="round"/>
</svg>
