<svg width="169" height="40" viewBox="0 0 169 40" fill="none" xmlns="http://www.w3.org/2000/svg">
<rect width="169" height="40" rx="20" fill="#F4F4F4"/>
<path d="M44.69 26.14C47.07 26.14 48.666 24.992 48.666 23.27C48.666 21.8 47.672 21.058 44.816 20.386C43.038 19.98 42.422 19.616 42.422 18.944C42.422 18.006 43.332 17.376 44.69 17.376C45.95 17.376 46.972 18.146 47.224 19.294L48.372 19.014C47.966 17.362 46.482 16.256 44.69 16.256C42.576 16.256 41.162 17.334 41.162 18.944C41.162 20.288 42.044 20.96 44.564 21.548C46.678 22.038 47.406 22.486 47.406 23.27C47.406 24.32 46.314 25.02 44.69 25.02C42.898 25.02 41.694 24.082 41.694 22.696H40.504C40.504 24.754 42.184 26.14 44.69 26.14ZM53.0938 26.14C54.0318 26.14 55.0398 25.608 55.5858 24.824V26H56.7058V19H55.5858V20.176C55.0398 19.392 54.0318 18.86 53.0938 18.86C51.0498 18.86 49.6778 20.316 49.6778 22.5C49.6778 24.684 51.0498 26.14 53.0938 26.14ZM53.2058 25.16C51.7638 25.16 50.7978 24.096 50.7978 22.5C50.7978 20.904 51.7638 19.84 53.2058 19.84C54.6338 19.84 55.5858 20.904 55.5858 22.5C55.5858 24.096 54.6338 25.16 53.2058 25.16ZM60.8936 26.14C61.2296 26.14 61.6916 26.084 62.0416 26V25.16H60.8236C60.2916 25.16 59.9276 24.782 59.9276 24.208V19.98H61.9716V19H59.9276V16.396H58.8076V19H57.6876V19.98H58.8076V24.208C58.8076 25.37 59.6476 26.14 60.8936 26.14ZM63.0295 27.54C63.9535 27.54 64.5695 26.924 64.5695 26V24.46H63.0295V26H63.7295C63.7295 26.42 63.4495 26.7 63.0295 26.7V27.54ZM72.952 26.14C75.248 26.14 76.452 24.432 76.452 21.198C76.452 17.964 75.248 16.256 72.952 16.256C70.656 16.256 69.452 17.964 69.452 21.198C69.452 24.432 70.656 26.14 72.952 26.14ZM72.952 25.16C71.398 25.16 70.572 23.802 70.572 21.198C70.572 18.594 71.398 17.236 72.952 17.236C74.506 17.236 75.332 18.594 75.332 21.198C75.332 23.802 74.506 25.16 72.952 25.16ZM80.2998 16.396C80.0198 17.362 79.0398 18.02 77.8498 18.02V19C78.7738 19 79.6978 18.72 80.2438 18.286V26H81.3638V16.396H80.2998ZM90.9811 26.14C93.7951 26.14 95.6711 24.152 95.6711 21.184C95.6711 18.23 93.7951 16.256 90.9811 16.256C88.1671 16.256 86.2911 18.23 86.2911 21.184C86.2911 24.152 88.1671 26.14 90.9811 26.14ZM90.9811 25.02C88.9231 25.02 87.5511 23.48 87.5511 21.184C87.5511 18.902 88.9231 17.376 90.9811 17.376C93.0391 17.376 94.4111 18.902 94.4111 21.184C94.4111 23.48 93.0391 25.02 90.9811 25.02ZM100.196 26.14C101.988 26.14 103.36 24.936 103.626 23.158H102.562C102.352 24.362 101.4 25.16 100.196 25.16C98.7677 25.16 97.8017 24.096 97.8017 22.5C97.8017 20.904 98.7677 19.84 100.196 19.84C101.4 19.84 102.338 20.61 102.548 21.772H103.612C103.346 20.022 101.974 18.86 100.196 18.86C98.0957 18.86 96.6817 20.316 96.6817 22.5C96.6817 24.684 98.0957 26.14 100.196 26.14ZM107.2 26.14C107.536 26.14 107.998 26.084 108.348 26V25.16H107.13C106.598 25.16 106.234 24.782 106.234 24.208V19.98H108.278V19H106.234V16.396H105.114V19H103.994V19.98H105.114V24.208C105.114 25.37 105.954 26.14 107.2 26.14ZM112.658 26H119.406V25.02H114.226C115.486 24.18 116.9 23.13 117.74 22.416C118.692 21.576 119.336 20.33 119.336 19.336C119.336 17.488 118.006 16.256 116.032 16.256C114.016 16.256 112.658 17.74 112.658 19.938H113.708C113.708 18.314 114.646 17.236 116.032 17.236C117.334 17.236 118.216 18.076 118.216 19.336C118.216 20.092 117.74 21.016 117.04 21.632C115.948 22.598 114.184 23.9 112.658 24.88V26ZM124.427 26.14C126.723 26.14 127.927 24.432 127.927 21.198C127.927 17.964 126.723 16.256 124.427 16.256C122.131 16.256 120.927 17.964 120.927 21.198C120.927 24.432 122.131 26.14 124.427 26.14ZM124.427 25.16C122.873 25.16 122.047 23.802 122.047 21.198C122.047 18.594 122.873 17.236 124.427 17.236C125.981 17.236 126.807 18.594 126.807 21.198C126.807 23.802 125.981 25.16 124.427 25.16ZM129.447 26H136.195V25.02H131.015C132.275 24.18 133.689 23.13 134.529 22.416C135.481 21.576 136.125 20.33 136.125 19.336C136.125 17.488 134.795 16.256 132.821 16.256C130.805 16.256 129.447 17.74 129.447 19.938H130.497C130.497 18.314 131.435 17.236 132.821 17.236C134.123 17.236 135.005 18.076 135.005 19.336C135.005 20.092 134.529 21.016 133.829 21.632C132.737 22.598 130.973 23.9 129.447 24.88V26ZM137.842 26H144.59V25.02H139.41C140.67 24.18 142.084 23.13 142.924 22.416C143.876 21.576 144.52 20.33 144.52 19.336C144.52 17.488 143.19 16.256 141.216 16.256C139.2 16.256 137.842 17.74 137.842 19.938H138.892C138.892 18.314 139.83 17.236 141.216 17.236C142.518 17.236 143.4 18.076 143.4 19.336C143.4 20.092 142.924 21.016 142.224 21.632C141.132 22.598 139.368 23.9 137.842 24.88V26Z" fill="#222222"/>
<rect x="10" y="13" width="20" height="16" rx="2.5" stroke="#222222" stroke-width="1.5"/>
<path d="M10 15.5C10 14.1193 11.1193 13 12.5 13H27.5C28.8807 13 30 14.1193 30 15.5V16H10V15.5Z" stroke="#222222" stroke-width="1.5"/>
<path d="M15 23H25" stroke="#222222" stroke-width="1.5" stroke-linecap="round"/>
<path d="M14 11.5C12 11.5 12 14.5 14 14.5" stroke="#222222" stroke-width="1.5" stroke-linecap="round"/>
<path d="M18.5 11.5C16.5 11.5 16.5 14.5 18.5 14.5" stroke="#222222" stroke-width="1.5" stroke-linecap="round"/>
<path d="M23 11.5C21 11.5 21 14.5 23 14.5" stroke="#222222" stroke-width="1.5" stroke-linecap="round"/>
<path d="M27.5 11.5C25.5 11.5 25.5 14.5 27.5 14.5" stroke="#222222" stroke-width="1.5" stroke-linecap="round"/>
</svg>
