<svg width="32" height="32" viewBox="0 0 32 32" fill="none" xmlns="http://www.w3.org/2000/svg">
<path d="M24 12H27.6667C28.5871 12 29.3333 12.7462 29.3333 13.6667V25.5C29.3333 26.8807 28.214 28 26.8333 28H26.5C25.1193 28 24 26.8807 24 25.5V12Z" fill="white"/>
<path fill-rule="evenodd" clip-rule="evenodd" d="M4 5.99983C4 4.15889 5.49238 2.6665 7.33333 2.6665H19.3333C21.1743 2.6665 22.6667 4.15889 22.6667 5.99984V13.3333V26.241V26.8333C22.6667 28.1613 23.7021 29.2475 25.0097 29.3285C24.997 29.3315 24.9836 29.3332 24.9695 29.3332H7.33334C5.49239 29.3332 4 27.8408 4 25.9998V5.99983ZM8 11C7.44772 11 7 11.4477 7 12C7 12.5523 7.44772 13 8 13H18.6667C19.219 13 19.6667 12.5523 19.6667 12C19.6667 11.4477 19.219 11 18.6667 11H8ZM7 16C7 15.4477 7.44772 15 8 15H18.6667C19.219 15 19.6667 15.4477 19.6667 16C19.6667 16.5523 19.219 17 18.6667 17H8C7.44772 17 7 16.5523 7 16ZM8 19C7.44772 19 7 19.4477 7 20C7 20.5523 7.44772 21 8 21H18.6667C19.219 21 19.6667 20.5523 19.6667 20C19.6667 19.4477 19.219 19 18.6667 19H8Z" fill="white"/>
</svg>
