<svg width="44" height="44" viewBox="0 0 44 44" fill="none" xmlns="http://www.w3.org/2000/svg">
<rect x="2" y="2" width="40" height="40" rx="20" fill="#222222" stroke="#F9F9F9" stroke-width="3"/>
<path d="M25.736 13.3305C26.1666 12.8999 26.8649 12.8999 27.2955 13.3305L29.8899 15.9249C30.3205 16.3555 30.3205 17.0537 29.8898 17.4844L28.9825 18.3917C28.7672 18.607 28.4181 18.607 28.2028 18.3917L24.8287 15.0176C24.6134 14.8023 24.6134 14.4532 24.8287 14.2378L25.736 13.3305Z" fill="white"/>
<path d="M22.9895 15.8569C23.4202 15.4263 24.1184 15.4263 24.549 15.8569L27.1434 18.4513C27.574 18.8819 27.574 19.5801 27.1434 20.0107L19.0011 28.153C18.958 28.1961 18.8882 28.1961 18.8452 28.153L14.8473 24.1551C14.8042 24.1121 14.8042 24.0422 14.8473 23.9992L22.9895 15.8569Z" fill="white"/>
<path d="M14.0458 24.9879C14.0587 24.8979 14.1687 24.8612 14.233 24.9255L18.0749 28.7674C18.1392 28.8317 18.1025 28.9417 18.0125 28.9546L14.8402 29.4078C14.1125 29.5117 13.4887 28.8879 13.5927 28.1602L14.0458 24.9879Z" fill="white"/>
<path d="M15 31H29.3355" stroke="white" stroke-width="1.5" stroke-linecap="round"/>
</svg>
