<svg width="84" height="84" viewBox="0 0 84 84" fill="none" xmlns="http://www.w3.org/2000/svg">
<circle cx="42" cy="42" r="42" fill="#3E3E3E"/>
<path fill-rule="evenodd" clip-rule="evenodd" d="M40.7807 22.0134C40.1842 22.0541 39.5071 22.1579 39.036 22.2808C38.9258 22.3095 38.6452 22.3583 38.4124 22.3891C36.1828 22.6844 34.5802 23.3099 33.4215 24.337C32.684 24.9907 32.1855 25.7178 31.7275 26.8078C31.6519 26.9878 31.5409 27.2438 31.4807 27.3768C31.3042 27.767 31.188 28.2729 31.1857 28.6611C31.1853 28.7335 31.1746 28.7851 31.16 28.7851C31.1425 28.7851 31.136 30.9747 31.1382 36.1245C31.1408 42.5707 31.1354 43.8433 31.0931 46.5809C31.0256 50.9524 30.9888 54.5234 31.003 55.3195C31.0153 56.0125 31.0313 56.1646 31.1402 56.629C31.4685 58.0285 32.4994 59.3031 34.062 60.2411C35.5925 61.1599 37.6172 61.7531 39.8966 61.9507C40.4407 61.9979 41.6691 62.0156 42.2307 61.9843C44.3079 61.8688 46.1151 61.4591 47.7477 60.7335C49.175 60.0992 50.2961 59.2917 51.179 58.2621C51.2498 58.1796 51.3327 58.0873 51.3632 58.0572C51.434 57.9874 51.484 57.8972 51.5987 57.6328C51.8105 57.1445 52.0366 56.4255 52.1224 55.9673C52.1648 55.7413 52.1683 55.6082 52.169 54.2309C52.1694 53.4105 52.1794 51.5308 52.1912 50.0537C52.203 48.5767 52.2251 45.4268 52.2402 43.0541L52.2677 38.74L52.16 38.5178C51.6917 37.5513 50.9979 36.7806 50.1357 36.2691C48.7443 35.4438 46.782 35.1338 43.5764 35.2329C42.721 35.2594 42.3602 35.2882 41.9292 35.3643C41.1393 35.5037 40.7164 35.7096 40.3787 36.1191C40.29 36.2267 40.2642 36.2477 40.2208 36.2482C40.1973 36.2485 40.1913 35.5709 40.1913 32.9315V29.6143L40.3387 29.4823C40.6062 29.2425 40.9462 29.0698 41.3152 28.9861C41.5132 28.9411 42.0032 28.9361 42.2071 28.977C42.4111 29.0178 42.738 29.1371 42.896 29.2284C42.971 29.2717 43.088 29.3568 43.1561 29.4175L43.2799 29.5279V29.6914C43.2799 29.7899 43.2686 29.8653 43.2516 29.8809C43.2296 29.901 43.2296 29.9068 43.2516 29.9068C43.2733 29.9068 43.2799 30.3286 43.2799 31.7403V33.5738H47.8066H52.3333V31.1947C52.3333 28.6507 52.3315 28.604 52.2124 28.0988C52.122 27.7152 51.916 27.1614 51.6453 26.5741C51.0243 25.2272 50.0978 24.2008 48.8415 23.4684C48.5464 23.2963 47.959 23.0213 47.5913 22.8832C46.4307 22.4471 45.0387 22.1849 43.4213 22.0978C43.1814 22.0849 42.8101 22.0598 42.5961 22.042C42.1101 22.0016 41.1703 21.9868 40.7807 22.0134ZM46.0419 42.7087C45.7129 42.7712 45.1966 42.9279 44.5294 43.1677C42.9824 43.7238 42.6678 43.8085 42.0539 43.8339C41.6814 43.8492 41.4425 43.8216 41.2745 43.7437C41.1343 43.6787 41.1182 43.6567 40.9918 43.3561C40.937 43.2256 40.8825 43.1076 40.8708 43.0939C40.8005 43.0119 39.9489 42.997 39.2366 43.0651C38.6683 43.1195 38.4668 43.1687 38.2385 43.3086C38.0823 43.4044 38.046 43.4751 38.0459 43.6836C38.0458 43.8767 38.0529 43.8677 37.878 43.896L37.7926 43.9099L37.7759 44.118C37.7575 44.3482 37.7428 44.3162 37.9313 44.4562L37.9894 44.4993L37.9682 50.6361L37.947 56.773L37.84 56.9887C37.7087 57.2535 37.6686 57.3557 37.6686 57.4251C37.6686 57.4731 37.6754 57.477 37.7334 57.4625C37.8888 57.4238 37.8919 57.4265 37.8994 57.6058L37.9062 57.77L38.0996 57.7847C38.206 57.7928 38.3021 57.8077 38.3131 57.8178C38.3241 57.8278 38.321 57.8568 38.3062 57.882C38.2915 57.9072 38.2858 57.9374 38.2937 57.949C38.3024 57.9619 38.5463 57.9701 38.9207 57.9701H39.5336L39.5671 57.8967L39.6006 57.8233L39.8311 57.8098C40.2879 57.7833 40.4049 57.7465 40.7172 57.5311L40.9055 57.4013L40.8962 54.3682L40.8868 51.3351L40.9738 51.1744C41.1217 50.9012 41.395 50.6928 41.7522 50.581C41.9454 50.5205 42.1694 50.4793 42.6298 50.4195C43.1739 50.3489 43.343 50.2735 43.4083 50.0724C43.4789 49.8548 43.4986 49.525 43.4857 48.779C43.4637 47.521 43.5311 47.022 43.7488 46.8312C43.81 46.7775 43.8734 46.7658 44.92 46.6131C46.9895 46.3112 47.6169 46.2135 47.7926 46.1657L47.8847 46.1406L47.8682 44.9362C47.8517 43.7345 47.8515 43.7313 47.7922 43.5439C47.7049 43.2678 47.6037 43.0954 47.4412 42.9459C47.2882 42.8053 47.1155 42.7176 46.9154 42.6791C46.7102 42.6396 46.3397 42.6521 46.0419 42.7087ZM42.2425 47.1284C42.2425 47.1449 42.337 47.2225 42.4526 47.3009C42.5681 47.3793 42.7201 47.5016 42.7903 47.5725C42.9093 47.6928 43.0643 47.9285 43.0395 47.9512C43.0334 47.9568 42.9404 47.9372 42.8328 47.9077C42.5276 47.8241 42.2825 47.7888 42.01 47.7891C41.5997 47.7895 41.3522 47.8741 41.1131 48.0957L40.9693 48.2288V49.0084C40.9693 49.7807 40.9699 49.789 41.0236 49.882C41.061 49.9467 41.1104 49.9917 41.1821 50.0264L41.2863 50.0768L42.1475 50.0707C43.007 50.0645 43.0089 50.0644 43.0859 50.0142C43.1283 49.9865 43.184 49.9262 43.2097 49.8802C43.2543 49.8001 43.2563 49.7497 43.2563 48.6662C43.2563 47.3868 43.2787 47.5399 43.058 47.3143C42.8533 47.1051 42.837 47.0986 42.5221 47.0986C42.2996 47.0986 42.2425 47.1047 42.2425 47.1284Z" fill="white"/>
</svg>
