<svg width="84" height="84" viewBox="0 0 84 84" fill="none" xmlns="http://www.w3.org/2000/svg">
<circle cx="42" cy="42" r="42" fill="#3E3E3E"/>
<path fill-rule="evenodd" clip-rule="evenodd" d="M40.9107 24.014C37.7215 24.2132 34.6665 25.2431 32.0292 27.0082C27.4802 30.0529 24.5427 34.9761 24.0621 40.361C24.0111 40.9318 23.9999 41.2256 24 41.9859C24.0001 42.7527 24.0122 43.0733 24.062 43.629C24.545 49.0182 27.4798 53.9368 32.0292 56.9818C34.6853 58.7595 37.7379 59.7832 40.9624 59.9778C41.3082 59.9986 42.7546 59.9973 43.0893 59.9759C47.2816 59.707 51.14 58.0522 54.2293 55.1982C57.3274 52.336 59.3382 48.4413 59.8666 44.2791C59.9705 43.4608 59.9999 42.9552 60 41.9859C60.0001 41.2256 59.9889 40.9318 59.9379 40.361C59.3871 34.1894 55.6108 28.6733 50.0209 25.8751C47.8605 24.7936 45.5445 24.1718 43.0893 24.0141C42.797 23.9954 41.2106 23.9953 40.9107 24.014ZM41.3938 25.6234C40.9583 25.6454 40.2079 25.7058 40.1154 25.7263C40.0781 25.7345 40.0772 25.7381 40.1003 25.783C40.1534 25.8864 40.2376 26.1725 40.2613 26.3305C40.2974 26.571 40.2687 26.6949 40.1871 26.6507C40.1695 26.6412 40.0959 26.5647 40.0234 26.4807C39.6996 26.1054 39.4172 25.957 39.0307 25.9594C38.4932 25.9627 37.9812 26.2664 37.7657 26.7097C37.6209 27.0074 37.6132 27.3832 37.7465 27.6462C37.9584 28.0642 38.5904 28.3659 39.4612 28.4646C39.5916 28.4794 39.7349 28.5041 39.7797 28.5194C39.8885 28.5567 39.983 28.656 40.0581 28.812C40.1179 28.9363 40.122 28.9406 40.1783 28.9362C40.3189 28.925 40.4458 28.824 40.5898 28.6086C40.7831 28.3193 41.0995 28.05 41.3426 27.9679C41.6051 27.8793 41.6529 27.9595 41.4924 28.2193C41.3638 28.4274 41.3474 28.4719 41.3561 28.5908C41.3602 28.6486 41.4778 28.7523 41.5854 28.793C41.8164 28.8804 41.8725 28.8841 43.0717 28.8898C43.7202 28.8929 44.2848 28.9035 44.4055 28.9149C44.638 28.9368 44.899 28.9967 45.0114 29.054C45.172 29.136 45.2833 29.3023 45.4185 29.6623C45.4571 29.7648 45.5076 29.8863 45.5309 29.9322C45.5791 30.0274 45.681 30.1248 45.7386 30.1307C45.7599 30.1329 45.9949 30.1351 46.2606 30.1356C46.7063 30.1364 46.7547 30.1396 46.8844 30.1759C47.4206 30.3264 48.1728 30.9164 48.4723 31.4215C48.5833 31.6088 48.7233 31.9749 48.7338 32.1055C48.7493 32.2994 48.6928 32.3434 48.3866 32.3756C48.0587 32.41 47.8141 32.4827 47.6598 32.5914C47.6061 32.6293 47.5442 32.7455 47.5436 32.8098C47.5429 32.8831 47.6133 33.0345 47.6944 33.1342C47.8015 33.2658 48.4609 33.8854 48.6308 34.0141C48.9411 34.2493 49.1763 34.3223 49.6955 34.3445C49.9467 34.3553 50.0895 34.3699 50.1962 34.3957C50.3866 34.4418 50.6846 34.5897 50.8902 34.7402C51.475 35.1682 51.7591 35.2936 52.1552 35.2986C52.38 35.3014 52.4405 35.2808 52.6384 35.1341C52.8133 35.0044 52.8941 34.9737 53.0597 34.9741C53.3577 34.9747 53.6527 35.1263 53.9398 35.4264C54.2611 35.7622 54.5131 36.1749 54.5468 36.4204C54.555 36.4804 54.5498 36.5052 54.5219 36.5397C54.4887 36.5806 54.4733 36.5839 54.2609 36.5945C54.1368 36.6007 54.0332 36.6068 54.0308 36.6079C54.0129 36.6162 54.0398 36.6683 54.1238 36.7883C54.2576 36.9792 54.3075 37.0783 54.3074 37.1528C54.3074 37.2217 54.2427 37.3586 54.093 37.6066L54.0001 37.7607L54.0082 37.9189C54.0264 38.2754 54.0261 38.277 53.9243 38.4321C53.8008 38.6202 53.769 38.7196 53.7479 38.9831C53.7136 39.412 53.593 39.6204 53.3325 39.7009C53.1457 39.7586 53.1252 39.739 53.0796 39.4585C53.0414 39.2232 52.8834 38.991 52.7021 38.9038C52.5223 38.8172 52.0509 38.7672 51.923 38.8212C51.8519 38.8512 51.8354 38.8991 51.8773 38.9546C51.8949 38.978 51.9962 39.0695 52.1025 39.1579C52.3983 39.404 52.6461 39.6568 52.7652 39.8339C52.8948 40.0266 53.2111 40.6672 53.3588 41.036C53.5095 41.4122 53.6611 41.8793 53.7271 42.1707C53.8986 42.9273 54.1343 43.5236 54.4489 43.9963C54.759 44.4621 55.0401 44.6775 55.4931 44.7962C56.0777 44.9493 56.7848 44.8365 57.0749 44.544C57.3102 44.3067 57.4467 43.8196 57.4298 43.2776C57.4156 42.8219 57.3598 42.7275 56.9078 42.3948C56.7767 42.2983 56.7551 42.2396 56.8201 42.157C56.8768 42.0849 56.9754 42.0657 57.1203 42.0984C57.5589 42.1975 57.9802 42.6417 58.1303 43.1634C58.1748 43.3184 58.1749 43.6913 58.1304 43.9004C57.9883 44.5679 57.6231 45.092 57.1273 45.3397C56.7924 45.507 56.5358 45.5621 56.0996 45.5603C55.7988 45.5591 55.7615 45.5554 55.5989 45.5096C55.3689 45.4448 55.1533 45.3957 55.0971 45.3952C55.0724 45.3949 55.0377 45.4053 55.02 45.4182C54.942 45.4753 55.0806 45.7638 55.2832 45.9657C55.5135 46.1952 55.7501 46.2773 56.1787 46.2764C56.6009 46.2754 56.9455 46.1971 57.3236 46.0159C57.6335 45.8675 57.7242 45.8417 57.7449 45.8958C57.784 45.9976 57.3742 46.4975 57.0577 46.7342C56.7526 46.9624 56.5054 47.048 56.1523 47.0479C55.5425 47.0476 55.0347 46.8064 54.484 46.2555C53.7836 45.5547 53.2712 44.6581 52.9652 43.598C52.8414 43.1692 52.7703 42.8334 52.6385 42.0565C52.479 41.1168 52.4193 40.8641 52.3282 40.7432C52.2454 40.6332 52.1726 40.6673 51.8287 40.9768C51.3775 41.383 51.3138 41.4129 50.9061 41.4102C50.5393 41.4077 50.0537 41.3447 49.388 41.213C48.9203 41.1204 48.8393 41.1105 48.4568 41.0994C48.1639 41.0909 48.0472 41.0719 47.8541 41.0014C47.4509 40.8543 47.1586 40.6111 46.4715 39.8515C45.5844 38.8707 45.2017 38.5595 44.284 38.0723C43.4693 37.6398 42.7319 37.3453 42.2256 37.2501C42.0029 37.2082 41.7447 37.2222 41.5695 37.2855C41.4971 37.3117 41.1176 37.4899 40.7262 37.6816C39.6292 38.2188 39.3262 38.3252 38.6442 38.4123C38.3367 38.4516 37.7957 38.4515 37.5406 38.4121C36.8811 38.3101 36.4314 38.0248 36.2102 37.568C36.0561 37.2498 35.9053 36.733 35.8489 36.3298C35.8212 36.1317 35.8223 35.928 35.8529 35.5865C35.8621 35.4831 35.8597 35.4679 35.8341 35.4679C35.7901 35.4679 35.7439 35.5899 35.6942 35.8374C35.6243 36.1859 35.6063 36.3536 35.6065 36.6538C35.6068 36.9924 35.6422 37.1634 35.764 37.4143C35.8447 37.5805 35.9528 37.7059 36.2074 37.9284C36.3296 38.0352 36.3323 38.0957 36.2218 38.2505C36.0101 38.5472 35.8583 38.9728 35.7961 39.444C35.7617 39.7044 35.7709 40.1916 35.8146 40.4313C36.0245 41.582 37.1592 42.6875 38.5371 43.0837C38.8598 43.1765 39.2078 43.2306 39.7335 43.2698C40.0074 43.2902 40.967 43.296 41.2438 43.2788C41.3311 43.2734 41.541 43.2606 41.7101 43.2504C42.2006 43.2207 42.9394 43.153 44.0908 43.0322C45.6801 42.8655 45.8968 42.8506 46.6384 42.8578C48.2368 42.8732 49.5452 43.1528 50.454 43.6732C51.1646 44.0801 51.8869 44.6412 52.5752 45.3212C53.2567 45.9945 53.7576 46.645 54.0765 47.2712C54.4434 47.9916 54.6866 48.7638 54.7753 49.49C54.8135 49.8034 54.8134 50.4003 54.7749 50.7183C54.6908 51.4146 54.5311 51.9368 54.0656 53.0375C54.0504 53.0735 54.3509 52.7389 54.5641 52.4826C56.0332 50.7159 57.0958 48.7288 57.7248 46.5719C58.8031 42.8744 58.5411 38.9062 56.9871 35.3976C55.7423 32.5871 53.717 30.1635 51.1694 28.4358C49.028 26.9835 46.5992 26.0657 44.0469 25.7443C43.7484 25.7067 43.5691 25.6898 42.9048 25.6369C42.766 25.6259 41.5591 25.6151 41.3938 25.6234ZM36.1405 26.7031C35.9907 26.7614 35.8267 26.8253 35.776 26.8451C35.7252 26.865 35.6837 26.8867 35.6837 26.8934C35.6837 26.9001 35.7198 26.9314 35.7638 26.9631C35.917 27.0731 36.0825 27.3356 36.1008 27.4976C36.1085 27.5662 36.1043 27.579 36.0659 27.6042C36.0127 27.639 35.9872 27.6307 35.8072 27.5193C35.567 27.3708 35.4045 27.3302 35.2296 27.375C34.9674 27.4422 34.6355 27.68 34.5136 27.8879C34.3088 28.2375 34.6495 28.4226 35.7891 28.5807C36.301 28.6517 36.605 28.7158 37.0612 28.8487C37.4038 28.9486 37.4453 28.9569 37.6083 28.9576C37.7909 28.9584 37.8666 28.9345 37.8921 28.868C37.908 28.8266 37.8562 28.7872 37.5812 28.6318C37.4411 28.5526 37.2684 28.4486 37.1973 28.4007C37.0312 28.2887 36.8272 28.0946 36.7444 27.9698C36.6716 27.8602 36.5667 27.5779 36.5027 27.3197C36.4422 27.0753 36.4356 27.0319 36.4236 26.8026L36.4129 26.5971L36.1405 26.7031ZM33.1564 28.2197C32.1652 28.8577 31.289 29.5666 30.4303 30.4253C29.1593 31.6963 28.1627 33.0731 27.3653 34.6597C26.3152 36.7492 25.7425 38.944 25.6347 41.2922C25.6164 41.6901 25.6253 42.6206 25.6512 43.0141C25.8682 46.3106 27.0319 49.3927 29.0409 51.9919C29.4462 52.5163 29.8504 52.9784 30.3595 53.4994C30.7202 53.8685 30.787 53.9166 31.2445 54.1363C32.308 54.647 33.8105 55.0211 35.2357 55.1301C35.5798 55.1564 36.282 55.1564 36.571 55.1301C38.2112 54.9809 38.9925 54.4981 39.0349 53.6076C39.0724 52.8201 38.5565 52.3257 37.3968 52.0379C37.131 51.9719 36.9242 51.9335 36.3041 51.835C35.6959 51.7384 35.5687 51.7074 35.3331 51.5982C35.0365 51.4607 34.9248 51.4455 34.844 51.5314C34.7897 51.5893 34.7596 51.6719 34.6735 51.9989C34.5316 52.5381 34.4571 52.7013 34.277 52.868C34.1318 53.0025 33.9885 53.0763 33.8528 53.0867C33.7597 53.0938 33.7486 53.0905 33.6991 53.0409C33.6422 52.9841 33.6311 52.9224 33.6658 52.8563C33.6768 52.8352 33.7475 52.7586 33.8229 52.6861C33.9345 52.5788 33.9622 52.5414 33.9724 52.4845C33.9911 52.3797 33.9537 52.2335 33.8305 51.9306C33.699 51.6071 33.671 51.4915 33.645 51.1659C33.6003 50.6055 33.462 50.2072 33.23 49.9713C33.1006 49.8396 32.9694 49.7808 32.8023 49.7794C32.6877 49.7785 32.6581 49.7852 32.5757 49.8309C32.3517 49.9549 32.2103 50.2657 32.1334 50.8028C32.0882 51.1184 32.0216 51.3344 31.8914 51.588C31.8075 51.7516 31.768 51.8059 31.634 51.9414C31.394 52.1842 31.2252 52.2504 30.8449 52.2506C30.5497 52.2508 30.3408 52.2027 30.0885 52.0762C29.8708 51.9671 29.6662 51.7975 29.4989 51.5875C29.3333 51.3797 29.2879 51.2459 29.3586 51.1751C29.409 51.1248 29.4792 51.1302 29.7943 51.209C30.289 51.3328 30.5199 51.3444 30.703 51.2548C30.9577 51.1302 31.0069 50.8294 30.907 50.0068C30.8393 49.4489 30.81 49.0064 30.8211 48.7106C30.8309 48.4497 30.8506 48.3758 30.9485 48.2337C31.0575 48.0754 31.0394 48.0091 30.8029 47.6995C29.6169 46.147 29.2459 45.4916 28.8827 44.3063C28.7864 43.9922 28.7423 43.9071 28.6866 43.9284C28.6697 43.9349 28.5756 44.0481 28.4774 44.1799C28.2788 44.4466 28.1112 44.6194 27.9684 44.7048C27.6339 44.9047 26.9143 44.8927 26.4815 44.68C26.2593 44.5708 25.9747 44.2313 25.9886 44.0919C25.9974 44.0031 26.0543 43.9756 26.2927 43.9448C26.6881 43.8938 26.8397 43.7786 27.0314 43.383C27.2921 42.8453 27.4407 42.153 27.5161 41.1253C27.5401 40.7976 27.5458 39.8018 27.5287 38.9379C27.5224 38.619 27.5241 38.22 27.5326 38.0512C27.5904 36.8988 27.8093 36.0591 28.1836 35.5543C28.2392 35.4794 28.4187 35.2803 28.5825 35.1119C28.9923 34.6907 29.0531 34.575 28.9353 34.4408C28.9053 34.4067 28.8164 34.3284 28.7376 34.2668C28.3789 33.9863 28.2896 33.8057 28.3089 33.3992C28.3196 33.1748 28.3691 33.0007 28.4476 32.9112C28.5392 32.807 28.5561 32.8189 28.7521 33.1259C28.9716 33.4699 29.1308 33.5216 29.351 33.3204C29.4807 33.2018 29.5915 33.0537 29.9367 32.5376C30.0936 32.303 30.2915 32.0178 30.3764 31.904C31.1625 30.85 32.115 30.1441 32.9969 29.9619C33.1357 29.9332 33.4001 29.9071 33.7247 29.8898C34.0638 29.8718 34.6474 29.8283 34.9194 29.8007C35.4114 29.7509 35.596 29.7065 35.7586 29.5988C35.9005 29.5047 35.8881 29.4942 35.6349 29.4941C35.2925 29.494 35.118 29.4602 34.6469 29.303C34.0268 29.0962 33.7954 28.9719 33.6596 28.7727C33.5822 28.6593 33.518 28.4499 33.4862 28.207C33.4739 28.1129 33.4589 28.0359 33.4529 28.0359C33.4469 28.0359 33.3135 28.1186 33.1564 28.2197ZM42.2824 31.607C41.9287 31.6435 41.5869 31.8383 41.4567 32.0776C41.3908 32.1986 41.3881 32.29 41.4485 32.3504C41.5322 32.4341 41.6031 32.4354 41.9561 32.3594C42.1654 32.3144 42.3802 32.313 42.5534 32.3556C42.6259 32.3735 42.8272 32.4332 43.0007 32.4884C43.6603 32.6982 44.388 32.8337 44.796 32.8229C45.0544 32.816 45.019 32.7726 44.5089 32.4701C44.3176 32.3566 44.0306 32.177 43.8712 32.071C43.3422 31.7192 43.0659 31.6236 42.5007 31.5964C42.4572 31.5943 42.359 31.5991 42.2824 31.607ZM43.5937 34.6949C43.1554 34.7564 42.6993 34.9785 42.2993 35.3253C42.1563 35.4492 42.0032 35.624 41.9536 35.7197C41.9221 35.7806 41.9213 35.7908 41.9451 35.8271C41.9981 35.9081 42.2224 36.0067 43.4056 36.4689C44.0739 36.73 44.533 37.0134 46.2255 38.2094C47.3392 38.9965 47.682 39.2257 48.049 39.4287C48.708 39.7933 49.5447 40.0684 50.1347 40.1145C50.212 40.1205 50.2858 40.1183 50.2987 40.1096C50.3135 40.0995 50.3278 40.0297 50.3376 39.9199C50.3724 39.5303 50.3434 38.4714 50.2967 38.4247C50.2839 38.4119 50.1677 38.3859 50.0384 38.3669C49.6547 38.3106 49.3796 38.2171 49.0465 38.0299C48.5857 37.771 48.1161 37.4133 47.3061 36.7044C45.9172 35.4888 45.088 34.9552 44.2625 34.746C44.0427 34.6903 43.7735 34.6697 43.5937 34.6949ZM49.6503 35.6676C49.4841 35.7124 49.3436 35.8252 49.2862 35.9598C49.2236 36.1065 49.2721 36.3252 49.3889 36.4235C49.4806 36.5007 49.5744 36.4848 49.8738 36.3416C50.0077 36.2776 50.2041 36.2003 50.3103 36.1698C50.5306 36.1067 50.5917 36.079 50.6175 36.0309C50.6782 35.9174 50.4465 35.7751 50.0557 35.686C49.8509 35.6393 49.7691 35.6356 49.6503 35.6676ZM51.1791 39.2972C51.0554 39.3347 51.0044 39.403 51.0044 39.5309C51.0044 39.766 51.3465 40.0952 51.6154 40.1188C51.8493 40.1394 52.0032 39.8852 51.8929 39.6608C51.7804 39.432 51.39 39.2332 51.1791 39.2972Z" fill="white"/>
</svg>
