<svg width="84" height="84" viewBox="0 0 84 84" fill="none" xmlns="http://www.w3.org/2000/svg">
<circle cx="42" cy="42" r="42" fill="#3E3E3E"/>
<path fill-rule="evenodd" clip-rule="evenodd" d="M24.0723 28.0092C24.0613 28.0166 24.0547 28.0287 24.0577 28.0362C24.0607 28.0438 24.1885 28.171 24.3418 28.319C24.495 28.467 24.868 28.8329 25.1706 29.132C25.4732 29.4312 25.7882 29.7354 25.8707 29.808C25.9532 29.8806 26.025 29.9532 26.0303 29.9693C26.0416 30.0039 26.2813 30.2393 26.3657 30.2987C26.398 30.3214 26.4739 30.39 26.5344 30.4513C26.5949 30.5125 26.6543 30.5725 26.6664 30.5846C26.8113 30.73 27.2491 31.1308 27.273 31.14C27.2903 31.1467 27.3289 31.1483 27.3589 31.1436C27.3935 31.1382 27.4353 31.1439 27.4736 31.1592C27.523 31.179 27.5438 31.1803 27.5897 31.1665C27.6313 31.1541 29.3193 31.1499 34.1702 31.1502L40.6948 31.1506L40.7195 31.1205C40.7422 31.0928 40.7441 30.9902 40.7432 29.8259C40.7426 29.1304 40.7436 28.4432 40.7454 28.2989C40.7479 28.0937 40.7443 28.0339 40.729 28.0242C40.7183 28.0174 36.9896 28.0117 32.4431 28.0116C27.8966 28.0114 24.1578 28.0079 24.1346 28.0036C24.1114 27.9993 24.0834 28.0019 24.0723 28.0092ZM51.5314 28.0077C44.6126 28.0107 43.2403 28.0146 43.2266 28.0311C43.2146 28.0455 43.2102 30.2077 43.21 36.128C43.2098 40.5705 43.2137 44.2117 43.2186 44.2196C43.2234 44.2275 43.2331 44.2319 43.24 44.2295C43.2543 44.2244 43.8775 43.6239 44.09 43.4103C44.3494 43.1496 44.9824 42.5349 45.1638 42.3675C45.4556 42.0981 46.3192 41.2483 46.3197 41.2299C46.3199 41.2236 46.3218 40.4165 46.324 39.4365C46.3262 38.4564 46.3331 37.6434 46.3395 37.6299C46.3458 37.6165 46.3619 37.6012 46.3753 37.5961C46.3887 37.5909 47.2263 37.5873 48.2367 37.588L50.0738 37.5893L50.1655 37.5026C50.3055 37.3702 50.4261 37.2576 50.5015 37.1888C50.539 37.1545 50.6644 37.0336 50.7802 36.9201C50.8959 36.8066 51.0121 36.7012 51.0383 36.6859C51.0645 36.6706 51.0897 36.6466 51.0941 36.6324C51.0987 36.6182 51.1201 36.5928 51.1418 36.5759C51.1635 36.5589 51.3894 36.3393 51.6439 36.0878C52.6418 35.1013 53.2541 34.5104 53.3014 34.4881C53.3167 34.4809 53.333 34.4633 53.3375 34.4489C53.3421 34.4346 53.3736 34.3983 53.4075 34.3684C53.4779 34.3063 53.9179 33.8756 54.6425 33.1596C55.2224 32.5866 55.7436 32.0876 55.8378 32.0152C55.8741 31.9873 55.9423 31.9264 55.9893 31.8799C56.0364 31.8333 56.0813 31.7953 56.0891 31.7953C56.097 31.7953 56.1101 31.7758 56.1184 31.7521C56.1267 31.7283 56.1708 31.6771 56.2164 31.6384C56.262 31.5996 56.5473 31.3237 56.8505 31.0253C57.3722 30.5116 58.0427 29.861 58.3167 29.6025C58.3851 29.5379 58.4679 29.4554 58.5007 29.4192C58.5334 29.3829 58.5839 29.3422 58.6129 29.3286C58.6507 29.3108 58.6705 29.289 58.6829 29.2513C58.6943 29.2166 58.716 29.1908 58.7467 29.1753C58.7722 29.1624 58.9156 29.0288 59.0652 28.8786C59.2149 28.7283 59.4678 28.4778 59.6271 28.3219C59.8647 28.0895 59.9138 28.0347 59.8995 28.0176C59.89 28.0061 59.8681 27.9983 59.851 28.0003C59.8338 28.0023 56.09 28.0056 51.5314 28.0077ZM46.3554 31.1713L46.3194 31.2073V32.7999V34.3925L46.3554 34.4285L46.3914 34.4645H47.581C48.4272 34.4645 48.7798 34.4598 48.8026 34.4482C48.8202 34.4392 48.8579 34.4078 48.8863 34.3785C48.9146 34.3492 49.2442 34.0249 49.6185 33.6579C49.9929 33.2909 50.4188 32.8713 50.5649 32.7256C50.711 32.5799 50.8666 32.4334 50.9106 32.4002C51.0069 32.3274 52.0979 31.2505 52.0979 31.2282C52.0979 31.2196 52.0842 31.1952 52.0675 31.1739L52.0371 31.1353H49.2142H46.3914L46.3554 31.1713ZM28.4865 32.3192C28.4662 32.3348 28.506 32.3802 28.7826 32.6566C28.9583 32.8322 29.1126 32.9913 29.1253 33.0102C29.138 33.029 29.1691 33.0569 29.1944 33.0721C29.2394 33.0993 29.4876 33.3293 29.7238 33.5626C29.7892 33.6271 29.9315 33.7656 30.0401 33.8703C30.1488 33.975 30.5578 34.3748 30.949 34.7587C31.3402 35.1426 31.7329 35.5255 31.8216 35.6096C31.9104 35.6936 32.0299 35.8086 32.0874 35.8651C32.1448 35.9216 32.2363 36.0074 32.2908 36.0558C32.4316 36.181 32.7353 36.4725 33.2535 36.9798C33.5007 37.2218 33.729 37.4449 33.7609 37.4755L33.8189 37.5312L35.6481 37.5307C37.5456 37.5301 37.5495 37.5303 37.5845 37.5868C37.6018 37.6148 37.5956 39.8334 37.5782 39.8544C37.5471 39.8919 37.477 39.9112 37.4375 39.8931C37.3982 39.8752 36.6227 39.867 36.5948 39.8842C36.5866 39.8893 36.5199 39.8857 36.4467 39.8762C36.3322 39.8613 36.3105 39.8619 36.2916 39.8808C36.2625 39.9098 36.2769 39.9331 36.3759 40.0169C36.4201 40.0543 36.5717 40.1982 36.7129 40.3367C36.854 40.4752 37.0851 40.7005 37.2265 40.8375C38.172 41.7536 38.3988 41.9744 38.583 42.1571C38.8196 42.3919 39.211 42.7726 39.7061 43.2497C40.3177 43.839 40.5467 44.0618 40.6234 44.1419C40.7091 44.2316 40.7564 44.2406 40.7493 44.166C40.747 44.142 40.7416 41.9444 40.7372 39.2825C40.7329 36.6205 40.7242 34.4373 40.718 34.4309C40.7118 34.4245 39.4611 34.4196 37.9388 34.4202L35.171 34.4212L35.073 34.3298C35.019 34.2796 34.9148 34.1788 34.8414 34.1059C34.7679 34.0329 34.6788 33.9464 34.6434 33.9137C34.3081 33.6038 33.9997 33.3093 33.5553 32.8743C33.2665 32.5918 33.0119 32.3489 32.9894 32.3347C32.951 32.3104 32.82 32.3086 30.7293 32.3051C28.9948 32.3021 28.5048 32.3052 28.4865 32.3192ZM52.3619 48.3107C52.3175 48.3271 52.2548 48.3484 52.2226 48.3582C52.1433 48.3821 52.0049 48.4747 51.961 48.5332C51.9141 48.5958 51.8704 48.6841 51.8505 48.7567C51.8391 48.7981 51.8343 49.6443 51.8341 51.6606C51.8337 54.7941 51.8269 54.5672 51.9258 54.7218C52.013 54.8579 52.1424 54.9475 52.3003 54.981C52.3431 54.9901 52.3972 55.0074 52.4206 55.0195C52.4576 55.0386 52.6566 55.0415 53.9459 55.0415C55.2642 55.0415 55.4336 55.0389 55.4732 55.0185C55.4976 55.0058 55.5566 54.9892 55.6042 54.9815C55.6524 54.9738 55.7144 54.9515 55.7443 54.9312C55.7738 54.9112 55.8064 54.8948 55.8167 54.8948C55.8473 54.8948 56.0255 54.7349 56.0724 54.6653C56.0963 54.63 56.1265 54.5632 56.1396 54.5169C56.1526 54.4707 56.1726 54.4046 56.1839 54.37C56.2013 54.317 56.2045 53.8924 56.2045 51.6504C56.2045 48.9955 56.2045 48.9936 56.1738 48.8973C56.1159 48.7152 56.1018 48.6834 56.0463 48.6103C55.9581 48.4939 55.8024 48.3917 55.6276 48.3355L55.4785 48.2876L53.9605 48.2843C52.4681 48.2811 52.4412 48.2815 52.3619 48.3107ZM12.9166 48.3573C12.836 48.3634 12.7276 48.3815 12.6759 48.3976C12.6241 48.4138 12.5762 48.4269 12.5696 48.4269C12.5629 48.4269 12.5155 48.4467 12.4643 48.4709C12.4131 48.4951 12.366 48.5149 12.3596 48.5149C12.3365 48.5149 12.1867 48.671 12.1389 48.7449C12.1118 48.7866 12.0852 48.846 12.0796 48.8769C12.0663 48.9503 12.0479 48.9843 12.0215 48.9843C12.0028 48.9843 12 49.1347 12 50.1394V51.2946L12.0327 51.3091C12.0562 51.3195 12.0685 51.3416 12.0762 51.3874C12.088 51.4571 12.1593 51.5507 12.3047 51.6873C12.3493 51.7293 12.4017 51.7784 12.421 51.7966C12.4403 51.8148 12.4806 51.8431 12.5104 51.8594C12.5403 51.8758 12.5948 51.9078 12.6316 51.9306C12.6684 51.9535 12.7245 51.9804 12.7562 51.9906C12.788 52.0008 12.8346 52.0215 12.8597 52.0367C12.8849 52.0518 12.9278 52.0642 12.9552 52.0642C12.9825 52.0642 13.0345 52.0798 13.0708 52.0989C13.1141 52.1218 13.1717 52.1363 13.2393 52.1414C13.2958 52.1456 13.3717 52.1624 13.408 52.1787C13.4672 52.2052 13.5179 52.2093 13.8993 52.2187C14.2189 52.2265 14.3347 52.2343 14.365 52.2497C14.3872 52.2611 14.4499 52.2762 14.5043 52.2833C14.6152 52.2978 14.7752 52.3706 14.8087 52.4216C14.8259 52.4479 14.8299 52.5676 14.8312 53.1011C14.8323 53.535 14.8277 53.7583 14.8172 53.7779C14.8086 53.794 14.7833 53.8109 14.7611 53.8156C14.7388 53.8202 14.471 53.8228 14.1659 53.8213L13.6111 53.8185L13.5907 53.779C13.5739 53.7465 13.5729 53.7016 13.5854 53.5236C13.5938 53.4049 13.5969 53.2983 13.5925 53.2866C13.5709 53.2304 13.5119 53.2259 12.8433 53.2295C12.4884 53.2314 12.1535 53.234 12.099 53.2353L12 53.2375V53.7939C12 54.3324 12.0009 54.3505 12.0286 54.3593C12.0578 54.3685 12.0635 54.3803 12.0814 54.469C12.1013 54.567 12.2693 54.7533 12.3958 54.8174C12.4241 54.8317 12.4623 54.8544 12.4806 54.8678C12.4989 54.8812 12.5484 54.8968 12.5906 54.9026C12.6328 54.9083 12.6937 54.927 12.726 54.9442L12.7847 54.9755H14.1853H15.5859L15.6449 54.9439C15.6774 54.9265 15.7368 54.9076 15.7769 54.9018C15.8171 54.896 15.8631 54.8794 15.8793 54.8648C15.8954 54.8503 15.9251 54.8342 15.9453 54.8291C15.9654 54.824 16.0179 54.7954 16.0619 54.7656C16.1506 54.7055 16.2738 54.5392 16.2894 54.4584C16.2947 54.4307 16.314 54.4006 16.3352 54.3867L16.3718 54.3627L16.3697 53.2279L16.3676 52.0932L16.3339 52.0436C16.3154 52.0163 16.2956 51.9719 16.2899 51.9448C16.2531 51.7689 15.929 51.4791 15.6086 51.3354C15.4618 51.2695 15.1881 51.1852 15.111 51.182C15.0899 51.1811 15.033 51.1672 14.9846 51.1511C14.8942 51.1209 14.6323 51.0952 14.1413 51.0682C13.8725 51.0534 13.8533 51.0503 13.7126 50.9966C13.627 50.964 13.6117 50.9525 13.5977 50.91C13.5794 50.8547 13.5695 49.565 13.5871 49.5365C13.6018 49.5127 14.7183 49.5055 14.7758 49.5288C14.7981 49.5379 14.8196 49.5593 14.8236 49.5765C14.8275 49.5936 14.8324 49.7165 14.8344 49.8496L14.8379 50.0916L15.5843 50.0954C16.1232 50.0981 16.3361 50.0946 16.3506 50.0826C16.3668 50.0691 16.3706 49.9641 16.3706 49.5262C16.3706 48.9551 16.374 48.9866 16.3051 48.9287C16.2927 48.9183 16.2826 48.8884 16.2826 48.8622C16.2826 48.8054 16.1697 48.6468 16.077 48.5734C16.0165 48.5255 15.8294 48.4269 15.7989 48.4269C15.7897 48.4269 15.7248 48.4106 15.6547 48.3905L15.5273 48.3541L14.2953 48.3502C13.6177 48.348 12.9973 48.3512 12.9166 48.3573ZM17.7621 48.3802C17.7549 48.3994 17.7492 49.7183 17.7492 51.4044C17.7492 54.0576 17.7517 54.3961 17.7714 54.4071C17.7836 54.4139 17.806 54.4535 17.8212 54.4951C17.8364 54.5366 17.8623 54.5895 17.8787 54.6126C17.9717 54.7432 18.2295 54.9095 18.3389 54.9095C18.3542 54.9095 18.3978 54.9244 18.4357 54.9425L18.5045 54.9755H19.9345C21.3579 54.9755 21.3648 54.9753 21.4378 54.9444C21.4782 54.9274 21.5421 54.9089 21.58 54.9033C21.6765 54.8892 21.8996 54.7384 21.983 54.6308C22.0174 54.5865 22.0594 54.5359 22.0763 54.5185C22.1001 54.4938 22.1049 54.4758 22.0978 54.4376C22.0927 54.4106 22.0959 54.3692 22.1049 54.3455C22.1167 54.3144 22.1209 53.4994 22.1202 51.3959C22.1194 49.3958 22.1239 48.4767 22.1346 48.4488C22.1469 48.4162 22.1451 48.4028 22.1253 48.3809C22.1018 48.355 22.0635 48.3536 21.364 48.3536C20.7587 48.3536 20.6245 48.3572 20.6108 48.3737C20.5985 48.3885 20.5942 49.0917 20.5945 51.0613C20.5947 52.5285 20.5948 53.7399 20.5947 53.7535C20.5942 53.8176 20.5842 53.8187 19.9618 53.8225C19.6362 53.8245 19.3581 53.8216 19.3437 53.816C19.2714 53.7883 19.2745 53.9144 19.2743 51.0566C19.2742 49.5901 19.2687 48.3818 19.2622 48.3715C19.2528 48.3567 19.0934 48.352 18.5126 48.3495L17.775 48.3463L17.7621 48.3802ZM23.5764 48.3611C23.5474 48.3823 23.5461 54.9521 23.5751 54.9705C23.6019 54.9875 25.0261 54.9856 25.0531 54.9685C25.0722 54.9564 25.076 54.8073 25.0824 53.8211C25.0865 53.185 25.084 52.663 25.0768 52.6317C25.0683 52.5952 25.0693 52.5637 25.0799 52.5406L25.096 52.5052L26.0315 52.5011C26.8677 52.4973 26.9725 52.4943 27.0185 52.4725C27.0468 52.4591 27.1128 52.4406 27.1652 52.4314C27.2175 52.4222 27.2769 52.4029 27.297 52.3885C27.3172 52.3741 27.3523 52.3578 27.3749 52.3521C27.3976 52.3465 27.4438 52.3169 27.4776 52.2864C27.5114 52.2559 27.5605 52.216 27.5867 52.1979C27.6129 52.1797 27.6344 52.1574 27.6344 52.1482C27.6344 52.1391 27.6628 52.0719 27.6976 51.9989L27.7608 51.8662L27.7652 50.4424C27.7695 49.0514 27.7689 49.0174 27.7407 48.9611C27.7248 48.9295 27.7072 48.8838 27.7015 48.8596C27.6839 48.7853 27.5775 48.6372 27.4976 48.5759C27.4197 48.5161 27.2945 48.4575 27.1137 48.396L27.0111 48.3611L26.0797 48.3574C25.5675 48.3553 24.7993 48.3519 24.3725 48.3499C23.8664 48.3476 23.5896 48.3514 23.5764 48.3611ZM28.9679 48.3623C28.9475 48.3869 28.9496 54.9374 28.97 54.9621C28.9834 54.9781 29.3202 54.9817 30.8666 54.9825C32.1218 54.9831 32.7613 54.9784 32.7902 54.9683L32.8336 54.9532L32.8309 54.4014C32.8293 54.0676 32.8226 53.844 32.814 53.8354C32.805 53.8264 32.3916 53.8217 31.6923 53.8227C31.0832 53.8235 30.5745 53.8203 30.5619 53.8154C30.5492 53.8106 30.5256 53.785 30.5093 53.7587C30.4807 53.7123 30.4797 53.6874 30.4797 53.0253C30.4797 52.4237 30.4826 52.3339 30.5034 52.2899C30.5165 52.2623 30.5337 52.2358 30.5415 52.2309C30.5494 52.226 30.7818 52.2232 31.0581 52.2246L31.5603 52.2271L31.8655 51.9293C32.0333 51.7655 32.2307 51.5689 32.3041 51.4922C32.3775 51.4156 32.4893 51.3024 32.5526 51.2406C32.6792 51.117 32.6894 51.0844 32.6087 51.0613C32.5705 51.0504 32.5507 51.0528 32.5175 51.0724C32.4781 51.0957 32.4719 51.0957 32.4287 51.0734C32.3919 51.0544 32.3747 51.0528 32.3462 51.0658C32.3209 51.0773 32.0642 51.0821 31.4865 51.0817C31.0336 51.0814 30.6394 51.0852 30.6106 51.0902C30.5644 51.0982 30.5535 51.0937 30.5191 51.0529L30.4801 51.0065L30.4836 50.2802C30.4869 49.5803 30.488 49.5531 30.5155 49.5331C30.5395 49.5155 30.7214 49.5123 31.6748 49.5123C32.3893 49.5123 32.811 49.507 32.82 49.498C32.8289 49.4891 32.8328 49.2781 32.8303 48.9375C32.8271 48.5086 32.8221 48.3871 32.8068 48.3719C32.781 48.3461 28.9892 48.3366 28.9679 48.3623ZM34.196 48.3562C34.1926 48.3617 34.1897 49.8494 34.1895 51.6623C34.1892 54.2907 34.1929 54.9607 34.2075 54.9698C34.2177 54.976 34.5463 54.9811 34.9378 54.9811C35.5372 54.981 35.6548 54.9776 35.6826 54.9596L35.7156 54.9382V52.2395V49.5409L35.7532 49.5266C35.7752 49.5182 36.0229 49.5123 36.3522 49.5123C36.8709 49.5123 36.9154 49.5142 36.9372 49.5382C36.9581 49.5613 36.961 49.6522 36.9631 50.3552L36.9655 51.1461L36.9329 51.1725C36.9035 51.1963 36.865 51.1989 36.5382 51.1989C36.2761 51.1989 36.1712 51.2038 36.1585 51.2165C36.1454 51.2295 36.1409 51.3746 36.1409 51.7782C36.1409 52.1819 36.1454 52.3269 36.1585 52.3399C36.1687 52.3501 36.2174 52.3575 36.274 52.3575C36.3452 52.3575 36.3772 52.3638 36.3911 52.3806C36.4247 52.4211 36.4806 52.5666 36.5077 52.6843C36.5222 52.7471 36.5405 52.8065 36.5484 52.8163C36.5562 52.8262 36.5697 52.8705 36.5783 52.9149C36.5932 52.992 36.6103 53.05 36.6913 53.2968C36.7112 53.3576 36.7275 53.4222 36.7275 53.4403C36.7275 53.4585 36.74 53.4978 36.7552 53.5278C36.7704 53.5577 36.7906 53.6218 36.8 53.6702C36.8095 53.7186 36.8301 53.7891 36.8457 53.8269C36.8614 53.8647 36.8742 53.9161 36.8742 53.9411C36.8742 53.9662 36.8872 54.0122 36.9032 54.0434C36.9191 54.0746 36.9365 54.1288 36.9419 54.1638C36.9473 54.1988 36.9633 54.2508 36.9775 54.2792C36.9918 54.3076 37.0083 54.3633 37.0142 54.403C37.0202 54.4428 37.0367 54.502 37.0508 54.5347C37.065 54.5674 37.0814 54.6239 37.0872 54.6602C37.093 54.6965 37.1101 54.7507 37.1253 54.7806C37.1405 54.8105 37.1529 54.8551 37.1529 54.8796C37.1529 54.9041 37.1656 54.9369 37.1813 54.9526C37.2087 54.98 37.2367 54.9811 37.9367 54.9808C38.5625 54.9807 38.6666 54.9776 38.6855 54.9587C38.7131 54.9311 38.7148 54.9448 38.6653 54.7951C38.6421 54.7249 38.6162 54.6411 38.6078 54.6088C38.5993 54.5766 38.5828 54.5205 38.571 54.4842C38.5591 54.4479 38.5321 54.3522 38.5108 54.2715C38.4675 54.107 38.3575 53.7274 38.3047 53.5602C38.2857 53.4997 38.2524 53.3842 38.2308 53.3035C38.2092 53.2229 38.1729 53.0975 38.1503 53.0249C38.1038 52.876 38.0454 52.6761 38.0194 52.5775C38.0098 52.5412 37.9868 52.4559 37.9682 52.3878C37.9496 52.3198 37.9376 52.2515 37.9417 52.236C37.9457 52.2206 37.9929 52.1799 38.0465 52.1456C38.2339 52.0254 38.3646 51.8683 38.4363 51.677L38.4743 51.5757L38.4734 50.2543L38.4724 48.9329L38.4218 48.8303C38.3302 48.6447 38.1251 48.478 37.9155 48.4189C37.679 48.3523 37.7437 48.3545 35.9274 48.3503C34.9785 48.3481 34.1993 48.3508 34.196 48.3562ZM41.1629 48.3514C41.1474 48.3542 41.1297 48.3612 41.1236 48.367C41.1053 48.3841 41.1098 54.9417 41.128 54.96C41.1384 54.9703 41.3805 54.977 41.8578 54.98C42.4381 54.9836 42.5771 54.9808 42.5988 54.9648C42.6242 54.946 42.6254 54.8897 42.6242 53.7609L42.623 52.5767L42.6592 52.5404L42.6954 52.5042H43.6207C44.5276 52.5042 44.5471 52.5036 44.6055 52.4738C44.6382 52.4571 44.7049 52.437 44.7537 52.4291C44.8025 52.4213 44.8583 52.4024 44.8776 52.3872C44.8969 52.372 44.9319 52.3554 44.9554 52.3502C45.0277 52.3343 45.1994 52.1617 45.2604 52.0436L45.3141 51.9395L45.3144 50.4289L45.3147 48.9183L45.2537 48.8001C45.1964 48.6894 45.1524 48.6395 45.0332 48.5501C44.9659 48.4998 44.8185 48.427 44.7836 48.427C44.7657 48.427 44.7162 48.4121 44.6736 48.3939C44.5961 48.3609 44.596 48.361 43.6061 48.3573C43.0616 48.3552 42.2954 48.3519 41.9036 48.3499C41.5117 48.3479 41.1784 48.3486 41.1629 48.3514ZM46.6054 48.3585C46.5852 48.3652 46.5687 48.3817 46.5686 48.3952C46.5686 48.4086 46.5685 49.8848 46.5683 51.6756L46.5681 54.9315L46.5987 54.9566C46.6273 54.9801 46.7556 54.9818 48.504 54.9825C49.7096 54.983 50.3924 54.9781 50.417 54.9688L50.4553 54.9542V54.4057C50.4553 53.9515 50.4517 53.8542 50.4346 53.8399C50.4192 53.8272 50.1283 53.8228 49.296 53.8229C48.1175 53.823 48.1135 53.8228 48.0888 53.7585C48.084 53.7459 48.0795 53.4116 48.0789 53.0154L48.0778 52.2951L48.1104 52.2603L48.1431 52.2255L48.6429 52.2245C48.9177 52.2239 49.1544 52.2188 49.1689 52.2131C49.2143 52.1952 50.281 51.1233 50.2763 51.1003C50.2725 51.0815 50.1321 51.0784 49.1999 51.0764C48.3152 51.0746 48.1236 51.0707 48.1036 51.0541C48.0816 51.0359 48.0793 50.9654 48.0795 50.3061C48.0797 49.9058 48.0846 49.571 48.0905 49.5621C48.1228 49.5139 48.1613 49.5123 49.2927 49.5123C50.15 49.5123 50.4243 49.5081 50.4377 49.4947C50.4649 49.4675 50.4627 48.3927 50.4354 48.3701C50.4115 48.3502 46.6641 48.3389 46.6054 48.3585ZM63.0013 48.3694C62.9833 48.3894 62.9804 48.8505 62.9804 51.6725C62.9804 54.9216 62.9807 54.9526 63.0093 54.9679C63.0292 54.9786 63.6443 54.9831 64.9799 54.9825C66.5705 54.9818 66.9265 54.9781 66.9484 54.9621C66.9733 54.9439 66.9751 54.9067 66.976 54.3967C66.9765 54.0964 66.9731 53.8444 66.9683 53.8366C66.9628 53.8278 66.5137 53.8227 65.766 53.8229C64.733 53.8232 64.5679 53.8203 64.539 53.8013L64.5057 53.7795V51.0914C64.5057 48.946 64.5019 48.3981 64.4871 48.3778C64.47 48.3544 64.4121 48.3522 63.7454 48.3494C63.1027 48.3466 63.0199 48.3489 63.0013 48.3694ZM68.1563 48.3626C68.1481 48.3724 68.1427 49.681 68.1425 51.6625C68.1424 54.7443 68.1439 54.9473 68.1675 54.9645C68.1872 54.9789 68.5908 54.9828 70.0721 54.9828C71.8744 54.9828 71.9527 54.9817 71.9759 54.956C71.9976 54.9321 72.0002 54.8717 72 54.395C71.9999 54.1012 71.9943 53.8523 71.9877 53.8418C71.978 53.8265 71.7537 53.8228 70.8396 53.8225C70.2147 53.8224 69.6953 53.8171 69.6852 53.8109C69.6615 53.7963 69.6554 52.2619 69.6789 52.2384C69.6885 52.2287 69.8763 52.224 70.2074 52.225L70.721 52.2265L71.2799 51.6698C71.5874 51.3636 71.8389 51.1029 71.8389 51.0903C71.8389 51.0538 71.7678 51.0443 71.7135 51.0736C71.68 51.0916 71.6519 51.0961 71.6184 51.0888C71.5923 51.083 71.146 51.0784 70.6268 51.0784C69.9558 51.0784 69.6798 51.0737 69.6727 51.0623C69.6584 51.039 69.6649 49.5391 69.6794 49.5246C69.6861 49.5179 70.2093 49.5107 70.8422 49.5087L71.9929 49.5049L71.9967 48.9459C71.9999 48.4844 71.997 48.3839 71.9803 48.37C71.9517 48.3463 68.1759 48.3389 68.1563 48.3626ZM57.6209 48.3665C57.6165 48.3736 57.6124 49.857 57.6119 51.6628L57.6108 54.9462L57.6446 54.9643C57.6941 54.9908 59.0626 54.9908 59.0988 54.9643C59.1224 54.9471 59.1241 54.866 59.1234 53.7521C59.1227 52.6566 59.1247 52.5562 59.1472 52.5313C59.1705 52.5055 59.2163 52.5042 60.1044 52.5039C60.9734 52.5036 61.0411 52.5017 61.0957 52.477C61.128 52.4623 61.1841 52.4456 61.2203 52.4399C61.339 52.421 61.5113 52.3254 61.6274 52.214C61.6876 52.1562 61.7337 52.0997 61.7337 52.0836C61.7337 52.068 61.7502 52.0329 61.7704 52.0055L61.8071 51.9558V50.4329V48.91L61.7474 48.8042C61.6753 48.6762 61.5624 48.5573 61.4601 48.5017C61.3866 48.4617 61.2103 48.4019 61.0709 48.3696C60.9858 48.3498 57.633 48.3469 57.6209 48.3665ZM53.2356 49.462C53.2149 49.4827 53.2123 49.7004 53.2099 51.6143C53.2084 52.7854 53.2086 53.7633 53.2104 53.7875C53.2171 53.8788 53.1856 53.8751 54.0046 53.8796L54.7515 53.8836L54.7828 53.8224C54.8035 53.7817 54.8112 53.7469 54.8055 53.7186C54.8008 53.6952 54.7967 52.737 54.7963 51.5894C54.7957 49.744 54.793 49.4991 54.7732 49.4709L54.7509 49.4389H54.0048C53.346 49.4389 53.256 49.4416 53.2356 49.462ZM25.0821 49.5346C25.0556 49.5666 25.0545 51.264 25.0809 51.3135L25.0981 51.3456H25.6541H26.2101L26.2329 51.313C26.2529 51.2844 26.2557 51.1758 26.2557 50.4285C26.2557 49.7161 26.2523 49.5719 26.2349 49.5481C26.2151 49.5209 26.189 49.5194 25.6578 49.5154C25.1638 49.5117 25.0993 49.5139 25.0821 49.5346ZM42.6821 49.5222C42.6236 49.5438 42.6234 49.5465 42.6234 50.4222V51.2679L42.6594 51.3068L42.6954 51.3456H43.2228C43.513 51.3456 43.761 51.3415 43.7739 51.3365C43.8293 51.3153 43.8314 51.2851 43.8373 50.4283C43.8429 49.6105 43.8424 49.5909 43.8139 49.5557L43.7847 49.5196L43.2444 49.5168C42.9472 49.5153 42.6942 49.5177 42.6821 49.5222ZM59.1859 49.5345C59.168 49.5471 59.1473 49.5818 59.14 49.6118C59.1326 49.6418 59.1259 50.0249 59.1251 50.4633L59.1237 51.2604L59.1663 51.303L59.2089 51.3456H59.7383H60.2678L60.2821 51.3079C60.2908 51.2851 60.2964 50.9372 60.2964 50.4206C60.2964 49.602 60.2954 49.5699 60.2682 49.5427C60.2416 49.5161 60.2125 49.5145 59.7292 49.5131C59.2887 49.5118 59.214 49.5147 59.1859 49.5345Z" fill="white"/>
</svg>
