<svg width="84" height="84" viewBox="0 0 84 84" fill="none" xmlns="http://www.w3.org/2000/svg">
<circle cx="42" cy="42" r="42" fill="#3E3E3E"/>
<path fill-rule="evenodd" clip-rule="evenodd" d="M35.6872 29.1473C35.3005 29.5094 34.8566 30.0127 34.5133 30.4782C33.336 32.0746 32.6666 33.9211 32.5414 35.9181C32.5202 36.2558 32.5321 37.1295 32.5622 37.4455C32.7769 39.7025 33.6852 41.7625 35.1897 43.4049C37.3848 45.8012 40.5481 46.9887 43.7732 46.6273C48.1389 46.1381 51.7105 42.8345 52.5578 38.5017C52.8761 36.8742 52.7962 35.1975 52.3248 33.611C52.1592 33.0538 51.9896 32.6227 51.7135 32.057C51.172 30.9475 50.4613 29.9775 49.5753 29.1386L49.4288 29L48.5312 30.1292C48.0375 30.7502 47.6318 31.2634 47.6296 31.2695C47.6274 31.2756 47.7097 31.3674 47.8126 31.4734C48.2397 31.9139 48.645 32.4521 48.9285 32.9551C49.4628 33.9034 49.7761 34.9526 49.8536 36.0531C49.8734 36.3346 49.8619 36.9994 49.8325 37.2715C49.7432 38.0975 49.5186 38.9015 49.1732 39.6316C49.0554 39.8806 48.9199 40.1291 48.9051 40.1231C48.8993 40.1208 48.0018 39.2444 46.9106 38.1756L44.9267 36.2323L44.0081 34.1307C43.5029 32.9749 43.0872 32.0266 43.0845 32.0234C43.0817 32.0202 43.0794 33.4743 43.0794 35.2548V38.4921L45.0316 40.4043L46.9837 42.3166L46.9515 42.3428C46.8731 42.4064 46.3962 42.7205 46.249 42.8055C46.0197 42.9378 45.5668 43.1587 45.3325 43.2525C44.6789 43.5139 44.0147 43.6726 43.2649 43.7466C43.0583 43.767 42.3978 43.7746 42.1796 43.7592C40.7638 43.659 39.4823 43.1924 38.3512 42.3652L38.2871 42.3183L40.2428 40.4041L42.1986 38.4898L42.1994 35.2467C42.1998 33.463 42.1978 32.0063 42.195 32.0095C42.1921 32.0126 41.7776 32.9582 41.2739 34.1108C40.7702 35.2633 40.3476 36.2204 40.3347 36.2376C40.3048 36.2774 36.3721 40.1258 36.3612 40.1258C36.3497 40.1258 36.1563 39.758 36.0721 39.5758C35.7854 38.9561 35.5736 38.2403 35.4765 37.5639C35.3809 36.8985 35.3833 36.1215 35.4828 35.4571C35.7065 33.9634 36.3822 32.5943 37.4361 31.4992L37.652 31.2749L36.7512 30.1413C36.2558 29.5179 35.849 29.0061 35.8472 29.0041C35.8454 29.0021 35.7734 29.0666 35.6872 29.1473ZM16.7988 49.7949C16.555 49.8498 16.3315 49.9838 16.1933 50.1579C16.1191 50.2513 16.0474 50.3961 16.0227 50.5025C15.9924 50.6325 15.9924 53.2756 16.0227 53.4057C16.0537 53.5391 16.1284 53.6752 16.2312 53.7857C16.3218 53.883 16.5097 54.0217 16.551 54.0217C16.5627 54.0217 16.7778 53.8134 17.029 53.5587L17.4857 53.0957V52.0132V50.9307H18.8458H20.2058V51.961V52.9914H19.1995H18.1931L17.6251 53.5672C17.1836 54.0147 17.0623 54.145 17.0806 54.1521C17.118 54.1667 20.6119 54.1602 20.7279 54.1454C21.0374 54.1059 21.259 54.002 21.4494 53.8072C21.5308 53.724 21.5731 53.6667 21.6112 53.5883C21.7046 53.3959 21.7028 53.4262 21.7028 52.0794L21.7029 50.868L21.3493 50.3217L20.9958 49.7754L18.9351 49.7766C17.3655 49.7776 16.8564 49.7819 16.7988 49.7949ZM21.5845 49.7853C21.5881 49.7911 22.2001 50.7765 22.9444 51.9749L24.2979 54.154L24.8117 54.1577C25.288 54.161 25.327 54.1595 25.3463 54.1368C25.3624 54.1178 27.7429 50.4288 28.0869 49.8899L28.1602 49.775H27.3307H26.5011L25.6859 51.0971C25.2376 51.8242 24.8687 52.417 24.8661 52.4144C24.8636 52.4118 24.504 51.8185 24.067 51.0958L23.2725 49.782L22.4252 49.7784C21.9592 49.7764 21.5808 49.7795 21.5845 49.7853ZM28.4362 50.3134L28.0638 50.8518L28.0673 52.5029L28.0708 54.154L30.3616 54.1575L32.6524 54.1611V53.5693V52.9775H31.1H29.5476V52.7199V52.4623H30.5986H31.6495V51.9471V51.4319H30.5986H29.5476V51.1743V50.9167H31.1H32.6524V50.3459V49.775H30.7305H28.8087L28.4362 50.3134ZM33.298 51.9679V54.1612L34.0365 54.1576L34.7749 54.154L34.7784 52.5284L34.7819 50.9028H35.9289H37.076V51.2579V51.6129H36.2517H35.4274V52.0624V52.5119L36.3363 53.3364L37.2452 54.161H38.2596C38.8176 54.161 39.274 54.1562 39.274 54.1503C39.274 54.1444 38.8624 53.7769 38.3593 53.3335C37.7473 52.7942 37.4506 52.5242 37.4629 52.5176C37.473 52.5122 37.5276 52.504 37.5843 52.4993C37.9461 52.4695 38.3027 52.2689 38.4317 52.0225C38.5033 51.8858 38.5071 51.8365 38.5023 51.1186L38.4978 50.4642L38.4622 50.3653C38.3668 50.1012 38.1636 49.92 37.8522 49.8212L37.7285 49.782L35.5133 49.7782L33.298 49.7745V51.9679ZM38.7712 49.7972C38.7759 49.8096 39.2046 50.7965 39.7238 51.9903L40.6679 54.161H41.157H41.6461L42.131 53.0822C42.3978 52.4889 42.6203 52.0061 42.6255 52.0094C42.6307 52.0126 42.8441 52.4982 43.0996 53.0883L43.5643 54.1613L44.0922 54.1577L44.6201 54.154L45.5506 51.9889C46.0623 50.798 46.4851 49.8127 46.4902 49.7992C46.4989 49.776 46.4616 49.7749 45.7779 49.7783L45.0564 49.782L44.6099 50.8541C44.3642 51.4438 44.1585 51.9311 44.1527 51.937C44.1468 51.9429 43.9296 51.4588 43.6698 50.8612L43.1976 49.7747L42.6818 49.7783L42.1661 49.782L41.6989 50.8574C41.4419 51.4489 41.2284 51.9329 41.2244 51.933C41.2205 51.9331 41.0156 51.4491 40.7692 50.8576L40.3212 49.782L39.5419 49.7784C38.8299 49.7751 38.7634 49.7767 38.7712 49.7972ZM46.7988 51.947C46.0071 53.1411 45.3558 54.1278 45.3514 54.1395C45.3441 54.1587 45.429 54.161 46.1463 54.161C46.8941 54.161 46.9507 54.1593 46.9696 54.1366C46.9808 54.1232 47.385 53.4906 47.8679 52.7309C48.3987 51.8957 48.7498 51.3561 48.7557 51.3663C48.7612 51.3756 49.1608 52.0066 49.6438 52.7686L50.522 54.154L51.3563 54.1576C52.1161 54.1609 52.1899 54.1592 52.1823 54.1389C52.1776 54.1267 51.5448 53.14 50.776 51.9464L49.3783 49.7761L48.8081 49.776L48.238 49.7759L46.7988 51.947ZM51.0337 50.3528V50.9307H51.9816H52.9295V52.5458V54.161H53.6645H54.3995V52.5458V50.9307H55.1531H55.9068L56.2728 50.3614C56.4741 50.0484 56.6388 49.7884 56.6388 49.7836C56.6388 49.7789 55.3776 49.775 53.8362 49.775H51.0337V50.3528ZM56.8547 50.4937L56.3907 51.2123L56.3945 52.3002L56.3983 53.3882L56.4381 53.4857C56.5871 53.8509 56.9346 54.0967 57.3721 54.1462C57.5435 54.1655 60.6548 54.1648 60.7945 54.1453C61.1937 54.0897 61.5316 53.8713 61.6826 53.5712C61.7668 53.404 61.7767 53.3268 61.7767 52.843V52.4066H61.028H60.2793V52.699V52.9915L59.0738 52.988L57.8683 52.9844L57.8648 51.9575L57.8612 50.9307H59.0703H60.2793V51.1883V51.4458H61.028H61.7767V51.0433C61.7767 50.5026 61.7562 50.3997 61.6053 50.1854C61.5052 50.0433 61.3081 49.9039 61.1168 49.8399C60.9188 49.7738 60.9571 49.775 59.0812 49.7751L57.3188 49.7752L56.8547 50.4937ZM62.3949 51.968V54.161H63.1299H63.8649V53.3116V52.4623H65.1905H66.5161L66.5196 53.3081L66.5232 54.154L67.2616 54.1576L68 54.1612V51.9681V49.775H67.2582H66.5163V50.5408V51.3066H65.1989C64.0103 51.3066 63.8808 51.3044 63.8732 51.2846C63.8686 51.2725 63.8649 50.9278 63.8649 50.5188V49.775H63.1299H62.3949V51.968Z" fill="white"/>
</svg>
