<svg width="169" height="40" viewBox="0 0 169 40" fill="none" xmlns="http://www.w3.org/2000/svg">
<rect width="169" height="40" rx="20" fill="#F4F4F4"/>
<path d="M45.194 24.14C48.008 24.14 49.884 22.152 49.884 19.184C49.884 16.23 48.008 14.256 45.194 14.256C42.38 14.256 40.504 16.23 40.504 19.184C40.504 22.152 42.38 24.14 45.194 24.14ZM45.194 23.02C43.136 23.02 41.764 21.48 41.764 19.184C41.764 16.902 43.136 15.376 45.194 15.376C47.252 15.376 48.624 16.902 48.624 19.184C48.624 21.48 47.252 23.02 45.194 23.02ZM51.2306 24H52.3506V19.856C52.3506 18.652 53.1486 17.84 54.3386 17.84C55.5286 17.84 56.3266 18.652 56.3266 19.856V24H57.4466V19.66C57.4466 17.98 56.2846 16.86 54.5346 16.86C53.7226 16.86 52.8406 17.28 52.3506 17.896V17H51.2306V24ZM59.133 24H60.253V14.396H59.133V24ZM62.2091 15.936H63.3291V14.396H62.2091V15.936ZM62.2091 24H63.3291V17H62.2091V24ZM65.0119 24H66.1319V19.856C66.1319 18.652 66.9299 17.84 68.1199 17.84C69.3099 17.84 70.1079 18.652 70.1079 19.856V24H71.2279V19.66C71.2279 17.98 70.0659 16.86 68.3159 16.86C67.5039 16.86 66.6219 17.28 66.1319 17.896V17H65.0119V24ZM75.9555 24.14C77.5235 24.14 78.8675 23.132 79.3155 21.62H78.1955C77.8875 22.544 76.9915 23.16 75.9555 23.16C74.5835 23.16 73.6315 22.18 73.5755 20.724H79.3575L79.4695 20.612C79.4695 18.372 78.0555 16.86 75.9555 16.86C73.8555 16.86 72.4415 18.316 72.4415 20.5C72.4415 22.684 73.8555 24.14 75.9555 24.14ZM73.6315 19.744C73.8835 18.61 74.8215 17.84 75.9555 17.84C77.0895 17.84 78.0275 18.61 78.2795 19.744H73.6315ZM85.306 24H86.566V15.516H89.534V14.396H82.338V15.516H85.306V24ZM92.1567 24.14C94.2567 24.14 95.6707 22.684 95.6707 20.5C95.6707 18.316 94.2567 16.86 92.1567 16.86C90.0567 16.86 88.6427 18.316 88.6427 20.5C88.6427 22.684 90.0567 24.14 92.1567 24.14ZM92.1567 23.16C90.7287 23.16 89.7627 22.096 89.7627 20.5C89.7627 18.904 90.7287 17.84 92.1567 17.84C93.5847 17.84 94.5507 18.904 94.5507 20.5C94.5507 22.096 93.5847 23.16 92.1567 23.16ZM103.234 17H102.114V21.144C102.114 22.348 101.316 23.16 100.126 23.16C98.9357 23.16 98.1377 22.348 98.1377 21.144V17H97.0177V21.34C97.0177 23.02 98.1797 24.14 99.9297 24.14C100.742 24.14 101.624 23.72 102.114 23.104V24H103.234V17ZM104.92 24H106.04V19.912C106.04 18.666 106.88 17.84 108.14 17.84H108.616V17C108.476 16.916 108.252 16.86 108.042 16.86C107.342 16.86 106.544 17.308 106.04 17.966V17H104.92V24ZM109.733 24H110.853V19.856C110.853 18.652 111.651 17.84 112.841 17.84C114.031 17.84 114.829 18.652 114.829 19.856V24H115.949V19.66C115.949 17.98 114.787 16.86 113.037 16.86C112.225 16.86 111.343 17.28 110.853 17.896V17H109.733V24ZM120.676 24.14C122.244 24.14 123.588 23.132 124.036 21.62H122.916C122.608 22.544 121.712 23.16 120.676 23.16C119.304 23.16 118.352 22.18 118.296 20.724H124.078L124.19 20.612C124.19 18.372 122.776 16.86 120.676 16.86C118.576 16.86 117.162 18.316 117.162 20.5C117.162 22.684 118.576 24.14 120.676 24.14ZM118.352 19.744C118.604 18.61 119.542 17.84 120.676 17.84C121.81 17.84 122.748 18.61 123 19.744H118.352ZM126.079 26.604H127.283L131.063 17H129.859L127.843 22.138L125.799 17H124.609L127.269 23.58L126.079 26.604Z" fill="#222222"/>
<path d="M27 17.0588C27 21.699 22.6442 27.0713 20.8046 29.1333C20.3695 29.621 19.6305 29.621 19.1954 29.1333C17.3558 27.0713 13 21.699 13 17.0588C13 13.1603 16.134 10 20 10C23.866 10 27 13.1603 27 17.0588Z" stroke="#222222" stroke-width="1.5"/>
<circle cx="20" cy="17" r="3" stroke="#222222" stroke-width="1.5"/>
</svg>
