<svg width="84" height="84" viewBox="0 0 84 84" fill="none" xmlns="http://www.w3.org/2000/svg">
<circle cx="42" cy="42" r="42" fill="#3E3E3E"/>
<path fill-rule="evenodd" clip-rule="evenodd" d="M42.8988 22.0622C42.5746 22.1421 42.4869 22.1794 42.2416 22.3415C42.0599 22.4615 42.0231 22.4788 41.9495 22.4788C41.8261 22.4788 41.8033 22.5123 41.804 22.6927C41.8043 22.7732 41.8167 22.9263 41.8315 23.033C41.8463 23.1397 41.8586 23.3124 41.859 23.4167C41.8595 23.5858 41.8521 23.6289 41.791 23.8139C41.7312 23.9952 41.7211 24.0521 41.7115 24.2647C41.7054 24.3985 41.6933 24.5148 41.6847 24.5233C41.676 24.5317 41.478 24.5387 41.2446 24.5389C41.0112 24.539 40.8062 24.5459 40.7889 24.5542C40.753 24.5714 40.6837 24.7337 40.6259 24.9358C40.5837 25.0832 40.5824 25.0776 40.6711 25.1303C40.6946 25.1443 40.7053 25.183 40.7119 25.2781C40.7213 25.4131 40.6981 25.5085 40.6558 25.5085C40.6421 25.5085 40.4467 25.4212 40.2216 25.3145C39.7107 25.0725 39.7153 25.0729 39.5583 25.2453C39.4959 25.3139 39.3161 25.5246 39.1588 25.7135C39.0016 25.9024 38.8168 26.121 38.7482 26.1992C38.5647 26.4087 38.5542 26.436 38.5565 26.7001C38.5577 26.8386 38.5783 27.0535 38.6113 27.2728C38.6507 27.5343 38.6645 27.6968 38.6655 27.9101C38.6673 28.2702 38.6455 28.3652 38.5371 28.4711C38.3882 28.6166 37.9923 28.978 37.8739 29.0764C37.6831 29.2351 37.6652 29.278 37.6465 29.6229C37.6378 29.7833 37.6254 30.0975 37.619 30.321C37.5798 31.6873 37.5507 32.4212 37.5251 32.6857C37.5202 32.7365 37.5117 32.9817 37.5061 33.2307C37.4843 34.212 37.4656 34.4502 37.3647 35.0354C37.2896 35.4706 37.1747 35.9871 37.1568 35.9695C37.1162 35.9294 37.012 35.2767 36.9964 34.9638C36.9857 34.7503 36.9861 34.7473 37.0351 34.6899C37.0951 34.6196 37.0988 34.536 37.0554 34.2361C37.0131 33.9431 37.0136 33.6012 37.0568 33.3046C37.0869 33.0983 37.0933 32.9497 37.0936 32.4455C37.094 31.7884 37.086 31.7233 36.9983 31.6666C36.9408 31.6294 36.8127 31.6433 36.7633 31.692C36.7436 31.7115 36.7194 31.7767 36.7079 31.8412L36.6874 31.9559H36.5501C36.4608 31.9559 36.4074 31.9479 36.3976 31.9329C36.3892 31.9202 36.3823 31.6687 36.3822 31.374C36.382 30.995 36.3751 30.8187 36.3586 30.7714C36.3134 30.6421 36.2566 30.5826 36.1026 30.5032C36.0211 30.4612 35.9432 30.4118 35.9296 30.3935C35.9028 30.3572 35.8969 30.082 35.9203 29.952C35.9323 29.8856 35.9414 29.8759 36.0175 29.8499L36.1015 29.8211L36.1068 29.6277C36.1158 29.2898 36.0836 28.5963 36.0577 28.5706C36.0448 28.5579 36.0073 28.5386 35.9743 28.5276C35.927 28.512 35.8792 28.4573 35.7483 28.269C35.5231 27.945 35.1095 27.3768 35.0535 27.3144C35.0284 27.2864 34.9949 27.2636 34.979 27.2636C34.9449 27.2636 34.7612 27.4884 34.5718 27.7619C34.3702 28.0531 34.0331 28.5062 33.9907 28.5429C33.9674 28.563 33.9228 28.5752 33.8723 28.5752C33.8277 28.5752 33.7846 28.5856 33.7765 28.5983C33.7415 28.6536 33.7897 29.0408 33.9302 29.8329C34.0364 30.4315 34.0533 30.6097 34.0537 31.1339C34.054 31.5404 34.0361 31.7657 33.9931 31.8959C33.9747 31.9519 33.9674 31.9561 33.8858 31.9577C33.6484 31.9626 33.583 31.9395 33.583 31.8509C33.583 31.7847 33.5348 31.6844 33.4922 31.6618C33.4328 31.6305 33.3304 31.6384 33.2791 31.6782C33.2456 31.7042 33.2262 31.7454 33.2105 31.8239C33.1888 31.9328 33.1883 31.9334 33.1061 31.9539C32.9337 31.9967 32.8773 31.963 32.8439 31.7975C32.8189 31.6739 32.7819 31.6426 32.6599 31.6422C32.5613 31.6418 32.5068 31.7002 32.4775 31.8378C32.4584 31.9279 32.4598 32.0096 32.4859 32.311C32.5196 32.701 32.5107 32.8116 32.4438 32.8325C32.4254 32.8383 32.2128 32.8414 31.9714 32.8394C31.6683 32.8368 31.5203 32.8423 31.4929 32.857C31.4428 32.8839 31.3952 32.9817 31.3805 33.0879C31.3693 33.1685 31.37 33.1699 31.4298 33.1817C31.4632 33.1883 31.5319 33.1937 31.5825 33.1937C31.6363 33.1937 31.7038 33.2084 31.745 33.2292C31.8433 33.2787 32.2383 33.6877 32.3846 33.8915C32.5249 34.0869 32.5695 34.1854 32.5706 34.3021C32.5714 34.3826 32.4452 35.1985 32.3648 35.6323C32.3167 35.8925 32.3233 36.0699 32.395 36.432C32.431 36.6139 32.458 36.7036 32.4894 36.746C32.5615 36.8433 32.578 36.8918 32.5796 37.012C32.5811 37.1147 32.5755 37.1321 32.525 37.1844C32.4621 37.2496 32.0686 37.5169 32.0358 37.5167C32.0242 37.5167 32.0042 37.5042 31.9914 37.4889C31.9557 37.4465 31.893 37.4556 31.8022 37.5163C31.6944 37.5884 31.6705 37.5867 31.7414 37.512C31.8327 37.4159 31.8603 37.3651 31.8603 37.2931C31.8603 37.1479 31.7942 37.1537 31.4924 37.3256C31.3949 37.3812 31.3074 37.424 31.2979 37.4208C31.2885 37.4176 31.3519 37.3088 31.4387 37.1789C31.6103 36.9224 31.6423 36.8361 31.5881 36.7769C31.5698 36.757 31.5456 36.7407 31.5344 36.7407C31.5231 36.7406 31.4233 36.8335 31.3127 36.947C31.202 37.0606 31.1068 37.1489 31.1011 37.1433C31.0955 37.1377 31.1156 37.0843 31.1459 37.0247C31.286 36.7487 31.3172 36.6565 31.3172 36.5193C31.3172 36.4467 31.3266 36.37 31.3381 36.3488C31.3496 36.3277 31.4201 36.2332 31.4948 36.139C31.5694 36.0447 31.6883 35.8834 31.7589 35.7804C31.8641 35.627 31.8823 35.5901 31.8597 35.5758C31.8215 35.5514 31.6554 35.503 31.6102 35.503C31.5416 35.503 31.4193 35.6599 30.9609 36.3363C30.4357 37.1112 30.2725 37.3375 30.0389 37.6146C29.8495 37.8392 29.8223 37.9135 29.8849 38.0354C29.92 38.1036 29.9675 38.1632 29.9869 38.1632C29.9935 38.1632 30.1162 38.0011 30.2595 37.803L30.5201 37.4427H30.6137C30.6926 37.4427 30.7142 37.4347 30.7515 37.3919L30.7957 37.3411L30.7849 37.3873C30.7523 37.5276 30.7522 37.5661 30.784 37.5976C30.8072 37.6204 30.832 37.626 30.872 37.6173C30.9202 37.6069 30.9263 37.6099 30.9174 37.6395C30.888 37.7366 30.8854 37.7755 30.9055 37.8126C30.9365 37.8696 31.0194 37.8533 31.1818 37.7581C31.2523 37.7167 31.3176 37.6829 31.3268 37.6829C31.336 37.6829 31.3138 37.7141 31.2774 37.7522C31.118 37.919 31.0651 38.0177 31.0567 38.1638C31.0558 38.1794 31.028 38.208 30.9949 38.2273C30.9618 38.2466 30.8754 38.3132 30.8029 38.3752C30.6477 38.5082 30.5872 38.5512 30.5552 38.5512C30.5422 38.5512 30.5049 38.5221 30.4721 38.4865C30.4393 38.4509 30.3976 38.4218 30.3794 38.4218C30.3135 38.4218 30.2351 38.5117 30.1936 38.6348C30.1714 38.7006 30.1429 38.7544 30.1303 38.7544C30.1177 38.7544 30.081 38.7175 30.0488 38.6725C29.9697 38.5618 29.9058 38.5215 29.8495 38.5468C29.791 38.5731 29.7443 38.6772 29.7443 38.7815C29.7443 38.9646 29.6673 38.9914 29.5697 38.8421C29.5348 38.7888 29.472 38.7077 29.4302 38.662L29.354 38.5789L29.3132 38.669C29.2876 38.7253 29.2685 38.8138 29.2622 38.9051C29.2566 38.9854 29.2462 39.0547 29.2391 39.059C29.232 39.0633 29.2001 39.0304 29.1682 38.9858C29.1018 38.8929 29.0268 38.838 28.9869 38.853C28.9357 38.8724 28.8766 39.0177 28.8656 39.1514C28.8573 39.2515 28.8479 39.2818 28.8239 39.2863C28.8027 39.2903 28.7861 39.2717 28.7713 39.2274C28.7354 39.1201 28.5577 38.9993 28.4934 39.0385C28.4617 39.0578 28.4308 39.2528 28.4435 39.3531C28.4548 39.4418 28.4519 39.4553 28.418 39.4732C28.351 39.5086 28.326 39.4955 28.2685 39.3949C28.2104 39.2933 28.1303 39.225 28.088 39.241C28.0498 39.2555 27.9855 39.4032 27.9737 39.5035C27.9545 39.6675 27.949 39.681 27.9044 39.6747C27.8715 39.67 27.8564 39.645 27.8283 39.5488C27.809 39.4827 27.751 39.3166 27.6993 39.1795C27.5984 38.912 27.5647 38.7267 27.6116 38.6974C27.626 38.6884 27.6925 38.6808 27.7595 38.6805C27.8264 38.6802 27.8914 38.6735 27.9038 38.6657C27.9327 38.6476 27.9842 38.5272 27.9842 38.4779C27.9842 38.4302 27.9959 38.4307 28.1996 38.4863C28.2922 38.5116 28.3939 38.5323 28.4255 38.5325C28.4988 38.5327 28.6352 38.4865 28.6955 38.441L28.742 38.4058L28.6955 38.3569C28.6699 38.33 28.5805 38.2672 28.4969 38.2174C28.3543 38.1323 28.2875 38.0788 28.3045 38.0632C28.3085 38.0594 28.3793 38.0379 28.4616 38.0153C28.544 37.9927 28.6494 37.9552 28.6957 37.9321C28.7752 37.8925 28.8607 37.8195 28.8439 37.8056C28.8396 37.8022 28.7606 37.7848 28.6683 37.7671C28.576 37.7494 28.4569 37.7187 28.4035 37.699C28.303 37.662 28.1527 37.5652 28.1527 37.5376C28.1527 37.5289 28.2285 37.5117 28.3212 37.4991C28.4514 37.4816 28.4897 37.4699 28.4897 37.4477C28.4897 37.4318 28.4039 37.3328 28.2989 37.2276L28.1081 37.0363L28.1725 37.036C28.4333 37.0347 28.7177 36.9749 28.7785 36.9086C28.8108 36.8733 28.8096 36.8719 28.7303 36.8517C28.5859 36.815 28.5197 36.792 28.4242 36.7455C28.3328 36.7009 28.2089 36.6004 28.2089 36.5708C28.2089 36.5627 28.2452 36.556 28.2897 36.556C28.4892 36.556 28.6555 36.4546 28.6868 36.3139C28.704 36.2363 28.6761 36.2158 28.5122 36.1859C28.3358 36.1536 28.038 36.0649 27.9017 36.0039C27.7892 35.9536 27.6471 35.8482 27.6471 35.8151C27.6471 35.806 27.6961 35.7985 27.756 35.7985C27.816 35.7985 27.9086 35.7858 27.9618 35.7702C28.0561 35.7425 28.3961 35.5341 28.3961 35.5039C28.3961 35.48 28.3313 35.4683 28.031 35.4379C27.6957 35.404 27.5657 35.3803 27.4807 35.3375L27.4172 35.3055L27.4807 35.2589C27.5156 35.2332 27.6326 35.1646 27.7407 35.1063C27.9374 35.0003 28.031 34.9334 28.0106 34.9132C28.0047 34.9074 27.9183 34.8977 27.8188 34.8917C27.6168 34.8796 27.5512 34.8545 27.3911 34.7285C27.3069 34.6623 27.179 34.5051 27.179 34.4679C27.179 34.4609 27.2443 34.4561 27.3241 34.4572C27.4474 34.4589 27.4851 34.4515 27.5752 34.4078C27.6739 34.36 27.7969 34.2586 27.7969 34.2251C27.7969 34.204 27.6913 34.1541 27.3951 34.0354C27.0984 33.9165 26.9563 33.8371 26.8582 33.7353C26.7963 33.6712 26.7483 33.6005 26.7483 33.5736C26.7483 33.5679 26.8094 33.5628 26.884 33.5624C27.0385 33.5615 27.1308 33.5343 27.2276 33.4615C27.2835 33.4194 27.2906 33.4068 27.2697 33.3867C27.2558 33.3734 27.1133 33.3078 26.9529 33.2408C26.6274 33.105 26.4781 33.0037 26.3856 32.8559C26.3553 32.8077 26.3343 32.7646 26.3388 32.7602C26.3433 32.7558 26.4384 32.7725 26.5501 32.7974C26.6618 32.8223 26.7607 32.8427 26.7699 32.8427C26.7791 32.8427 26.7744 32.8198 26.7594 32.7919C26.7264 32.7303 25.3981 31.4202 25.3687 31.4202C25.3443 31.4202 25.348 31.4065 25.2422 31.8853C25.1427 32.3352 25.0068 33.0172 25.0068 33.0662C25.0068 33.1154 25.0329 33.1101 25.107 33.0459C25.2306 32.9389 25.2342 32.9733 25.1355 33.3138C25.0672 33.5494 25.0668 33.5679 25.1298 33.5443C25.215 33.5123 25.2185 33.5176 25.205 33.6602C25.1859 33.8627 25.151 33.9597 25.017 34.1818C24.9496 34.2933 24.8945 34.3958 24.8945 34.4095C24.8945 34.4279 24.9104 34.4311 24.9553 34.4217C25.0389 34.4043 25.121 34.3523 25.1715 34.2849C25.1949 34.2537 25.2221 34.2283 25.2321 34.2283C25.2638 34.2283 25.2517 34.4843 25.213 34.634C25.1925 34.7132 25.1377 34.8658 25.0913 34.973C25.0448 35.0803 25.0068 35.1842 25.0068 35.2038C25.0068 35.2361 25.0149 35.2381 25.0908 35.2241C25.1959 35.2047 25.254 35.1745 25.3699 35.0788C25.4203 35.0372 25.4645 35.0062 25.4682 35.0098C25.4832 35.0245 25.4114 35.2234 25.3569 35.3182C25.3248 35.3741 25.2269 35.4931 25.1395 35.5827C25.0136 35.7115 24.9861 35.749 25.0077 35.7625C25.0477 35.7875 25.1226 35.7838 25.2128 35.7524C25.3283 35.7122 25.3439 35.7159 25.3439 35.7835C25.3439 35.8742 25.2824 35.9783 25.1291 36.1471C25.0518 36.2321 24.9939 36.3102 25.0004 36.3205C25.0173 36.3475 25.2656 36.3254 25.3545 36.2889C25.395 36.2723 25.464 36.2241 25.5077 36.1818L25.5873 36.1049V36.1926C25.5873 36.3093 25.5437 36.3876 25.3807 36.5637C25.2294 36.727 25.2299 36.7436 25.3869 36.767C25.5224 36.7872 25.5233 36.7907 25.4401 36.9735C25.399 37.0639 25.3599 37.1593 25.3534 37.1855C25.3356 37.2565 25.3771 37.2817 25.4754 37.2599C25.5255 37.2488 25.5722 37.2488 25.6015 37.2598C25.6446 37.276 25.6475 37.2845 25.6399 37.3745C25.6345 37.4382 25.6009 37.5384 25.5422 37.665C25.4181 37.933 25.3927 37.9959 25.4039 38.0069C25.4093 38.0122 25.4717 37.9839 25.5426 37.944C25.6136 37.9042 25.6728 37.8727 25.6743 37.8742C25.6759 37.8757 25.6571 37.9766 25.6327 38.0986C25.5726 38.3986 25.5729 38.4049 25.6442 38.3847C25.7428 38.3568 25.8302 38.2916 25.9114 38.1856C25.9665 38.1136 25.9917 38.0922 25.996 38.114C26.0045 38.1575 25.9664 38.2683 25.9092 38.3664C25.8825 38.4121 25.8446 38.4822 25.8249 38.5222C25.7905 38.592 25.7904 38.5958 25.8229 38.6192C25.8414 38.6326 25.8719 38.6435 25.8905 38.6435C25.9091 38.6435 25.9244 38.6479 25.9244 38.6534C25.9244 38.6812 25.8643 38.7989 25.8223 38.8531C25.7961 38.8871 25.7746 38.9245 25.7746 38.9362C25.7746 38.971 26.0674 38.9635 26.1735 38.9259C26.252 38.8982 26.2658 38.8976 26.2809 38.9212C26.308 38.9634 26.3022 39.0218 26.2607 39.1256C26.2398 39.1781 26.2267 39.2251 26.2318 39.2301C26.2368 39.2351 26.2623 39.2339 26.2883 39.2274C26.3554 39.2108 26.4554 39.1059 26.5274 38.9765C26.5614 38.9155 26.5954 38.8656 26.6031 38.8654C26.6108 38.8653 26.6688 38.9027 26.7319 38.9486C26.8555 39.0384 26.9014 39.0562 26.984 39.0468C27.0345 39.041 27.0507 39.0243 27.1866 38.8375C27.2124 38.802 27.2146 38.8032 27.2433 38.8698C27.2597 38.9079 27.2865 38.9994 27.303 39.0731C27.3194 39.1467 27.3611 39.3234 27.3955 39.4656C27.4568 39.7185 27.4661 39.7737 27.4619 39.8582C27.4589 39.9189 27.403 39.9115 27.2509 39.8305C27.1284 39.7652 27.1195 39.7631 27.0958 39.7943C27.082 39.8125 27.0649 39.8748 27.0577 39.9328C27.0506 39.9909 27.0294 40.0728 27.0107 40.115C26.9646 40.219 26.9039 40.2317 26.7451 40.1705C26.5709 40.1033 26.5478 40.0988 26.5029 40.1225C26.464 40.143 26.4626 40.1524 26.4736 40.3173C26.4799 40.4126 26.4801 40.5033 26.4741 40.5189C26.4628 40.5479 26.2242 40.6941 26.1882 40.6941C26.1773 40.6941 26.1569 40.6671 26.1429 40.6341C26.113 40.5636 25.9311 40.3616 25.8974 40.3616C25.8266 40.3616 25.7884 40.6665 25.8366 40.8476L25.8652 40.9549L25.8178 40.9762C25.7743 40.9958 25.7647 40.9913 25.7022 40.9214C25.6188 40.8281 25.5741 40.805 25.4776 40.805H25.4028L25.3899 40.9068C25.3824 40.966 25.3857 41.0428 25.3979 41.0905C25.4251 41.1972 25.4245 41.2021 25.3877 41.1721C25.3706 41.1582 25.2903 41.0137 25.2094 40.8512L25.0621 40.5556L25.1749 40.5501C25.2789 40.545 25.2877 40.5412 25.2877 40.5016C25.2877 40.4508 25.3412 40.4355 25.5194 40.4355C25.6417 40.4355 25.747 40.3963 25.7825 40.3376C25.7993 40.31 25.7899 40.2929 25.7269 40.236C25.6853 40.1984 25.6263 40.1495 25.5958 40.1272L25.5405 40.0868L25.6295 40.0046C25.7563 39.8872 25.7493 39.8754 25.5615 39.8909C25.3992 39.9042 25.2503 39.8903 25.2503 39.8617C25.2503 39.8527 25.3144 39.8056 25.3928 39.7571C25.642 39.6028 25.6381 39.6205 25.4406 39.5398C25.3462 39.5012 25.269 39.4638 25.269 39.4568C25.269 39.4497 25.3364 39.4288 25.4188 39.4102C25.5012 39.3916 25.5686 39.3704 25.5686 39.3631C25.5686 39.3461 25.4777 39.3039 25.3361 39.255C25.2751 39.234 25.2056 39.1986 25.1816 39.1764L25.138 39.1359L25.1949 39.1087C25.2606 39.0774 25.3912 38.9376 25.4056 38.8834C25.4127 38.8565 25.4045 38.8442 25.3749 38.8378C25.3527 38.8329 25.2798 38.8168 25.2128 38.8021C25.0865 38.7742 24.9224 38.71 24.9045 38.6815C24.8988 38.6725 24.937 38.6511 24.9893 38.6339C25.0919 38.6003 25.2185 38.4919 25.2092 38.4457C25.2055 38.4277 25.1422 38.3993 25.0349 38.3675C24.9422 38.3401 24.8034 38.2912 24.7264 38.2589C24.5862 38.2001 24.4077 38.0922 24.4077 38.0662C24.4077 38.0586 24.4711 38.0524 24.5487 38.0524C24.6317 38.0524 24.7174 38.041 24.7569 38.0247C24.8432 37.9891 24.8422 37.988 24.53 37.7561C24.2844 37.5737 24.1101 37.4161 24.131 37.3954C24.1373 37.3893 24.2001 37.3771 24.2707 37.3683C24.4134 37.3507 24.4638 37.3359 24.4638 37.3117C24.4638 37.2925 24.3391 37.2289 24.1455 37.1494C24.0682 37.1177 23.9759 37.0742 23.9403 37.0527C23.8803 37.0165 23.878 37.0119 23.9093 36.9894C23.9278 36.976 23.9759 36.9596 24.0161 36.9529C24.0564 36.9462 24.0892 36.931 24.089 36.9192C24.0889 36.9074 24.0109 36.848 23.9158 36.7872C23.7151 36.6589 23.4546 36.409 23.359 36.2531C23.323 36.1943 23.2799 36.1288 23.2634 36.1075C23.234 36.0698 23.2323 36.0713 23.1951 36.1694C23.0998 36.4208 22.9888 37.0453 22.9722 37.4243L22.9612 37.6736L23.0497 37.5905L23.1381 37.5074L23.1275 37.5813C23.0743 37.9523 23.0375 38.2771 23.0476 38.287C23.0592 38.2984 23.0924 38.2778 23.2443 38.1652L23.3075 38.1184L23.2939 38.2008C23.2831 38.267 23.2261 38.4576 23.1246 38.7676C23.1094 38.8142 23.1523 38.8072 23.2742 38.7434C23.3433 38.7073 23.4047 38.6825 23.4107 38.6884C23.4296 38.707 23.36 38.9867 23.272 39.2451C23.2253 39.3824 23.1917 39.5069 23.1975 39.5217C23.2128 39.5609 23.2969 39.5538 23.4152 39.5034C23.4718 39.4793 23.5201 39.4615 23.5225 39.4638C23.5249 39.4661 23.4806 39.5956 23.4241 39.7515C23.3676 39.9075 23.3239 40.0376 23.327 40.0406C23.3301 40.0437 23.3828 40.0132 23.4441 39.9729C23.5716 39.8892 23.5923 39.9038 23.5265 40.0311C23.4513 40.1765 23.3965 40.3434 23.3965 40.4267C23.3965 40.5222 23.4034 40.5245 23.565 40.4817C23.6216 40.4667 23.6776 40.4543 23.6894 40.4542C23.7024 40.4541 23.6889 40.5096 23.6549 40.596C23.6197 40.6854 23.5952 40.7879 23.5887 40.8731L23.5783 41.0082H23.6341C23.6689 41.0082 23.7302 40.9803 23.7972 40.934C23.8563 40.8932 23.9125 40.8646 23.9221 40.8704C23.9317 40.8763 23.9396 40.9159 23.9397 40.9585C23.94 41.0581 23.9595 41.1745 23.9759 41.1745C23.9829 41.1745 24.0467 41.0989 24.1176 41.0066C24.2563 40.8259 24.2486 40.8281 24.3178 40.9513C24.3468 41.003 24.3542 41.0063 24.4012 40.9886C24.4296 40.978 24.5034 40.9284 24.5652 40.8785C24.6681 40.7953 24.6802 40.7901 24.7096 40.8163C24.7935 40.8913 24.9508 41.2665 24.9779 41.4563C24.9951 41.5766 24.9618 41.5859 24.8208 41.5C24.7604 41.4632 24.7066 41.4331 24.7012 41.4331C24.6853 41.4331 24.6552 41.5455 24.6423 41.6529C24.6357 41.7077 24.6143 41.7835 24.5947 41.8214C24.5659 41.8772 24.5626 41.9027 24.5776 41.9563C24.5955 42.0202 24.5993 42.0226 24.6938 42.028L24.7915 42.0335L24.8551 42.1522L24.9188 42.271L24.869 42.3101L24.8193 42.3492L24.8493 42.4362C24.8658 42.484 24.8816 42.5231 24.8845 42.5231C24.8874 42.5231 24.9254 42.5107 24.969 42.4955C25.0126 42.4803 25.0555 42.4723 25.0644 42.4777C25.0732 42.4831 25.1313 42.5722 25.1935 42.6758C25.3241 42.8935 25.332 42.9445 25.2522 43.0533C25.1919 43.1353 25.0133 43.2901 24.834 43.4158C24.7043 43.5067 24.0125 43.8954 23.9414 43.9175L23.8964 43.9314L23.9096 43.7399C23.9169 43.6345 23.9393 43.3904 23.9594 43.1974C24.014 42.6732 24.0244 42.4436 23.9965 42.3773C23.963 42.2975 23.907 42.2937 23.2554 42.3272C22.6836 42.3565 21.8679 42.3841 21.0277 42.4025C20.7703 42.4082 20.4416 42.4169 20.2974 42.4219C20.1533 42.4269 19.7572 42.4392 19.4174 42.4491C19.0775 42.459 18.6815 42.4713 18.5373 42.4764C18.3931 42.4815 18.0223 42.4902 17.7134 42.4957C17.4044 42.5012 16.9662 42.5093 16.7396 42.5138C16.5131 42.5183 16.254 42.5222 16.1638 42.5225L16 42.5231V51.7614V60.9997L16.0983 60.9892C16.1524 60.9834 16.3146 60.966 16.4588 60.9505C16.603 60.935 16.9316 60.8936 17.1891 60.8584C17.8534 60.7676 19.7694 60.5335 20.6532 60.4351C23.814 60.0832 28.9252 59.6775 31.6075 59.5657C31.9885 59.5498 32.5952 59.5203 32.9557 59.5001C34.3249 59.4236 34.2331 59.4274 35.3806 59.3985C35.6021 59.3929 35.9517 59.3807 36.1577 59.3715C36.3637 59.3622 36.8566 59.3491 37.2532 59.3422C37.6497 59.3354 37.9783 59.3275 37.9835 59.3246C38.0182 59.3054 39.6177 59.2882 41.3633 59.2882C43.2793 59.2882 45.822 59.3084 45.951 59.3247C45.9819 59.3286 46.2811 59.3367 46.6158 59.3427C46.9505 59.3487 47.3423 59.3578 47.4865 59.3631C47.6307 59.3683 48.1152 59.385 48.5632 59.4001C52.1264 59.5203 56.8435 59.8212 60.435 60.1574C61.6711 60.2731 66.7992 60.8414 67.5038 60.9408C67.6377 60.9597 67.8041 60.9807 67.8736 60.9876L68 61V51.7138V42.4276L67.7893 42.4397C67.6735 42.4464 67.1953 42.4884 66.7267 42.5332C66.2581 42.5779 65.6177 42.6356 65.3036 42.6615C64.9894 42.6873 64.4249 42.7373 64.049 42.7726C63.6731 42.8079 62.8136 42.8864 62.139 42.9472C61.4644 43.0079 60.7903 43.0712 60.641 43.0878C60.2095 43.1359 60.2302 43.1524 59.9274 42.5197C59.6084 41.8531 59.5634 41.81 59.0961 41.7233C59.0138 41.7081 58.9051 41.6778 58.8546 41.6562L58.7629 41.6168L58.7739 41.3818C58.799 40.8511 58.979 39.8135 59.0822 39.6053C59.1243 39.5205 59.2741 39.4315 59.4238 39.4024C59.5657 39.3749 59.7472 39.4127 59.8102 39.4828C59.8585 39.5366 59.8921 39.7099 59.8915 39.9013C59.8908 40.1232 59.8735 40.1666 59.7351 40.2947C59.5905 40.4284 59.5284 40.5478 59.4957 40.755C59.4578 40.9957 59.5193 41.2089 59.6695 41.3571C59.9539 41.6377 60.2995 41.4364 60.3552 40.9576C60.3905 40.6549 60.3231 40.4265 60.1579 40.2891C60.018 40.1727 60.0043 40.1249 60.0043 39.7509C60.0043 39.3896 60.0151 39.3531 60.1615 39.22C60.2704 39.121 60.2974 39.1212 60.3179 39.2208C60.3323 39.2903 60.3398 39.299 60.3828 39.2961C60.4096 39.2943 60.4672 39.2673 60.5109 39.2361C60.5547 39.2048 60.6004 39.1793 60.6127 39.1793C60.6383 39.1793 60.6784 39.2573 60.6784 39.3072C60.6784 39.3538 60.7136 39.3784 60.7909 39.3856C60.8448 39.3907 60.8572 39.3999 60.8616 39.4379C60.8758 39.5636 60.8822 39.5724 60.9504 39.5615C61.1445 39.5304 61.4936 39.1368 61.5937 38.8361C61.704 38.5049 61.6585 38.2876 61.3951 37.8871C61.2078 37.6024 60.9402 37.3674 60.7092 37.2847C60.1613 37.0884 59.4609 37.2922 59.2562 37.7074C59.1192 37.9852 59.0757 38.4053 59.146 38.7729C59.1856 38.9803 59.2554 39.0495 59.3227 38.9482L59.3535 38.9018L59.384 38.962C59.4292 39.0514 59.4971 39.0526 59.5699 38.9655L59.6267 38.8974L59.6754 38.9922C59.7365 39.1112 59.79 39.1194 59.8658 39.0214C59.8984 38.9792 59.9229 38.9622 59.9346 38.9738C59.9552 38.9941 59.9449 39.2256 59.9223 39.2479C59.8836 39.2861 59.7462 39.2552 59.5872 39.1724C59.4027 39.0764 59.3691 39.0713 59.2647 39.1239C59.1641 39.1745 59.1491 39.171 59.1344 39.094C59.1274 39.0573 59.0724 38.893 59.0122 38.729C58.8578 38.3087 58.8225 38.1157 58.8122 37.6367C58.8076 37.4233 58.8152 37.0336 58.8291 36.7707L58.8544 36.2927L58.9061 36.2488C58.9907 36.1771 59.0051 36.1897 59.0186 36.3471C59.0302 36.4824 59.0886 36.6483 59.1247 36.6483C59.1663 36.6483 59.2336 36.6093 59.2965 36.5488C59.3951 36.4539 59.4613 36.4638 59.4613 36.5735C59.4613 36.5916 59.4788 36.6283 59.5001 36.6551C59.5447 36.711 59.6202 36.7192 59.7029 36.677C59.7693 36.6431 59.9332 36.4671 59.9881 36.3707C60.0111 36.3304 60.0352 36.2973 60.0417 36.2973C60.0482 36.2973 60.0719 36.322 60.0945 36.3522C60.1171 36.3823 60.1518 36.4156 60.1716 36.426C60.2253 36.4543 60.3034 36.3801 60.3893 36.2193L60.4611 36.0849L60.4902 36.1827C60.5367 36.339 60.5945 36.3536 60.7252 36.2419C60.7728 36.2013 60.8134 36.168 60.8155 36.168C60.8175 36.168 60.8163 36.2324 60.8127 36.3112C60.8071 36.4368 60.8117 36.4621 60.8501 36.5176C60.8741 36.5524 60.9036 36.584 60.9155 36.5879C60.9275 36.5918 60.9713 36.5388 61.0129 36.4703L61.0886 36.3457L61.1082 36.3966C61.119 36.4246 61.1278 36.454 61.1278 36.4619C61.1278 36.4868 61.1949 36.5375 61.2279 36.5375C61.2453 36.5375 61.2762 36.5105 61.2966 36.4775C61.331 36.4218 61.3495 36.3684 61.4102 36.1495L61.4333 36.0664L61.4491 36.1403C61.4772 36.2719 61.5225 36.3712 61.5544 36.3712C61.6375 36.3712 61.8751 36.0328 62.0121 35.7196C62.203 35.283 62.2164 35.0013 62.0642 34.6271C61.8872 34.1917 61.7223 33.9079 61.3837 33.4558C61.2568 33.2862 61.0996 33.0685 61.0345 32.972C60.8502 32.6989 60.6833 32.5016 60.4322 32.26C60.1768 32.0143 60.0456 31.91 59.8149 31.7688C59.5433 31.6026 59.2946 31.5108 59.0464 31.4851C58.9041 31.4704 58.7154 31.5053 58.4969 31.5869C58.4145 31.6176 58.2216 31.676 58.0681 31.7166C57.6929 31.816 57.6099 31.8625 57.3266 32.1319C57.073 32.3731 56.9332 32.4883 56.5876 32.7404C56.4644 32.8302 56.3226 32.9453 56.2726 32.996C55.9922 33.28 55.766 33.7415 55.687 34.1913C55.6438 34.4372 55.6578 34.8828 55.715 35.0781C55.7755 35.2849 55.9073 35.5399 56.0049 35.639C56.119 35.7547 56.1555 35.7518 56.2135 35.6224L56.2594 35.5202L56.3525 35.5324C56.4416 35.544 56.4465 35.5423 56.4652 35.4939C56.4759 35.4661 56.4835 35.3815 56.482 35.3061C56.4805 35.2306 56.4828 35.1655 56.487 35.1613C56.4912 35.1571 56.5377 35.1832 56.5902 35.2194C56.655 35.2639 56.6976 35.2814 56.7225 35.2735C56.7747 35.2572 56.8581 35.0962 56.8712 34.9863C56.8774 34.9352 56.8895 34.8933 56.8981 34.8933C56.9184 34.8933 56.9632 34.9637 56.9804 35.0226C57.0016 35.0955 57.0648 35.1519 57.1251 35.1519C57.2006 35.1519 57.2369 35.1289 57.2978 35.0422C57.3267 35.001 57.3567 34.9672 57.3643 34.9672C57.3845 34.9672 57.4137 35.0478 57.457 35.2238C57.478 35.309 57.4951 35.3817 57.4951 35.3854C57.4951 35.3891 57.527 35.3921 57.5659 35.3921C57.6546 35.3921 57.7098 35.3545 57.7579 35.2616C57.7786 35.2216 57.8029 35.1889 57.8119 35.1889C57.821 35.1889 57.8318 35.2907 57.8361 35.4152C57.8435 35.6309 57.8694 35.7431 57.9118 35.7431C57.9214 35.7431 57.9517 35.7257 57.979 35.7044L58.0288 35.6658L58.0344 35.8568C58.0413 36.088 58.0294 36.1615 57.9812 36.1869C57.9331 36.2123 57.8854 36.1877 57.7713 36.0788C57.6607 35.9732 57.6548 36.0094 57.7571 36.1656C57.8316 36.2792 57.8844 36.3158 57.9738 36.3158C57.9989 36.3158 58.0194 36.3265 58.0194 36.3396C58.0194 36.3922 58.1307 36.4898 58.2634 36.5535C58.4913 36.6629 58.5228 36.7432 58.4778 37.101C58.4454 37.359 58.4412 37.9813 58.4698 38.2925C58.4805 38.4094 58.5066 38.6127 58.5278 38.7444C58.5885 39.122 58.5823 39.2978 58.5053 39.3793C58.4603 39.427 58.3956 39.4305 58.3134 39.3896C58.2097 39.338 58.1531 39.2703 58.1121 39.1486C58.0581 38.9885 58.0294 38.9957 58.0454 39.1654C58.0704 39.4314 58.1028 39.4833 58.3019 39.5772C58.3675 39.6081 58.4127 39.6413 58.4127 39.6584C58.4126 39.7296 57.9716 40.9561 57.8456 41.2354C57.8144 41.3045 57.7797 41.3575 57.7684 41.3533C57.7572 41.349 57.6325 41.3187 57.4913 41.2859L57.2347 41.2262L57.468 40.7662C57.5963 40.5132 57.6949 40.3062 57.6871 40.3062C57.6602 40.3062 57.4654 40.4677 57.1897 40.7187C57.0371 40.8576 56.9015 40.9713 56.8883 40.9713C56.8746 40.9713 56.8546 40.9278 56.8413 40.8694C56.8122 40.7408 56.7651 40.7126 56.5794 40.7126H56.4482L56.4368 40.6433C56.4095 40.4777 56.339 40.3616 56.2657 40.3616C56.2532 40.3616 56.2216 40.3536 56.1955 40.3438L56.148 40.326L56.2435 40.2292C56.2961 40.176 56.3816 40.0822 56.4335 40.0208L56.528 39.909L56.4757 39.9029C56.4413 39.899 56.3906 39.9173 56.3273 39.9565C56.1226 40.0834 56.1037 40.0916 56.0168 40.0916C55.9477 40.0916 55.9083 40.0774 55.823 40.0215C55.7012 39.9418 55.6932 39.9229 55.6908 39.713C55.6899 39.6329 55.6821 39.5672 55.6734 39.5672C55.6291 39.5672 55.5799 39.6167 55.5025 39.7392C55.4555 39.8136 55.3979 39.8922 55.3745 39.9139C55.3278 39.9572 55.1913 40.0196 55.1929 39.997C55.1935 39.9893 55.3187 39.6379 55.4712 39.2162C55.6237 38.7946 55.7454 38.4461 55.7416 38.4418C55.7308 38.4294 55.6472 38.513 55.5974 38.586C55.5426 38.6661 54.9451 39.6234 54.8537 39.7772C54.7825 39.8972 54.7239 39.9381 54.6776 39.9002C54.6618 39.8873 54.6489 39.8695 54.6489 39.8607C54.6489 39.8519 54.7158 39.722 54.7975 39.572C54.8793 39.422 54.9521 39.2753 54.9594 39.2459L54.9726 39.1925L54.9135 39.227C54.881 39.2459 54.7639 39.3428 54.6533 39.4422C54.3946 39.6748 54.2608 39.7417 54.1996 39.669C54.1714 39.6355 54.1893 39.4966 54.286 38.9972C54.3221 38.8107 54.348 38.6546 54.3436 38.6502C54.3233 38.6302 54.2092 38.7927 54.0798 39.0257C54.0019 39.1661 53.918 39.3055 53.8933 39.3356L53.8484 39.3903L53.8255 39.2525C53.8028 39.1164 53.7458 38.7973 53.5631 37.7845C53.5118 37.5 53.4488 37.1342 53.4231 36.9716C53.3686 36.6264 53.3524 36.5642 53.2956 36.4799C53.2269 36.3782 53.1612 36.3595 52.7202 36.3161C52.2808 36.2727 52.0094 36.2316 51.9814 36.204C51.97 36.1927 51.9828 36.1478 52.0167 36.0802C52.0526 36.0084 52.0728 35.9347 52.079 35.8525C52.089 35.7191 52.0818 35.7079 51.9328 35.627L51.872 35.5939L51.8888 35.3868C51.9211 34.989 51.9072 34.6422 51.8417 34.2152C51.8087 33.9998 51.7843 33.7883 51.7875 33.7453C51.7932 33.669 51.7958 33.6662 51.8904 33.634C51.9439 33.6158 52.125 33.5709 52.293 33.5342C52.8262 33.4176 52.9262 33.3707 52.9262 33.237C52.9262 33.1761 52.9116 33.1536 52.8077 33.0535C52.7145 32.9639 52.6395 32.9153 52.4566 32.8261C52.3287 32.7637 52.1573 32.6962 52.0759 32.6761C51.8945 32.6313 51.6011 32.6274 51.4087 32.6673C50.9876 32.7547 50.5866 33.0294 50.3407 33.399C50.2587 33.5222 50.241 33.5632 50.2402 33.632C50.2393 33.7026 50.2472 33.7215 50.292 33.7548C50.3388 33.7895 50.3683 33.7939 50.5448 33.7923C50.6547 33.7913 50.8669 33.7731 51.0162 33.7519C51.2669 33.7162 51.3947 33.7049 51.4959 33.7093C51.544 33.7113 51.5772 33.815 51.6325 34.1359C51.7137 34.607 51.7205 35.2042 51.6479 35.4934C51.625 35.5843 51.6237 35.5856 51.5288 35.6063C51.4051 35.6333 51.3977 35.6386 51.3714 35.7171C51.3536 35.7704 51.3555 35.8166 51.3813 35.9582C51.3989 36.0546 51.4098 36.1369 51.4054 36.1412C51.3957 36.1508 51.095 36.1154 51.0222 36.0961L50.9694 36.0821V35.7971C50.9694 35.5275 50.9669 35.5078 50.9226 35.4299C50.8526 35.3068 50.7561 35.2495 50.5504 35.2088C50.4541 35.1897 50.3621 35.1611 50.3459 35.1451C50.3218 35.1214 50.3172 35.0746 50.3206 34.8893C50.3235 34.7333 50.3163 34.6347 50.2976 34.5738C50.2257 34.3399 49.9355 34.1654 49.7622 34.2519C49.7367 34.2646 49.6959 34.304 49.6714 34.3394L49.6269 34.4038L49.6397 34.8471C49.654 35.3485 49.6372 35.4854 49.5334 35.7098C49.4446 35.9017 49.3725 35.9216 49.0126 35.854C48.7673 35.8079 48.5907 35.8047 48.5746 35.8463C48.5434 35.9264 48.5259 36.2878 48.5185 37.0086C48.5093 37.8879 48.5111 37.8725 48.3763 38.2235C48.2735 38.4911 48.2548 38.6483 48.2839 38.9986C48.3094 39.3056 48.3036 39.3271 48.1953 39.3271C48.1448 39.3271 48.1279 39.3176 48.114 39.2814C48.0607 39.143 48.0307 38.2313 48.023 36.5156C48.0194 35.6959 48.0232 35.5131 48.0451 35.4614C48.0607 35.4246 48.1116 35.3706 48.1695 35.3296L48.2674 35.2601L48.2544 35.1744C48.2472 35.1272 48.209 35.0085 48.1695 34.9105C48.0407 34.5918 48.0315 34.5133 48.0284 33.711C48.0259 33.0689 48.0149 32.8868 47.9765 32.8489C47.9565 32.8291 47.8191 32.8066 47.7163 32.8062C47.6244 32.8058 47.6049 32.7995 47.58 32.7619C47.5539 32.7226 47.2899 31.9686 47.2899 31.9334C47.2899 31.8999 47.3353 31.9271 47.5088 32.0644C47.7688 32.2702 47.922 32.368 48.1793 32.4923C48.442 32.6192 48.7631 32.731 49.0349 32.7901C49.2891 32.8455 49.6101 32.8477 49.7616 32.7952L49.8646 32.7596L49.8702 32.6635C49.8818 32.466 49.6823 32.0178 49.3209 31.4294C49.1822 31.2036 49.183 31.2174 49.2749 30.5981C49.2945 30.466 49.3194 30.2457 49.3303 30.1086C49.37 29.608 49.4137 29.5188 49.6646 29.4263C49.7282 29.4028 49.7803 29.3762 49.7803 29.3672C49.7803 29.3582 49.736 29.3031 49.6819 29.2447C49.6277 29.1864 49.5234 29.068 49.4501 28.9816C49.285 28.787 49.2274 28.7339 49.1999 28.7507C49.1881 28.7578 49.1515 28.819 49.1185 28.8865C49.0627 29.0005 49.0537 29.0097 48.9923 29.0149C48.956 29.0179 48.775 28.9955 48.5902 28.9652C48.4054 28.9348 48.1573 28.8965 48.0389 28.88C47.769 28.8424 47.6457 28.8052 47.5602 28.7357C47.5233 28.7057 47.4146 28.5846 47.3187 28.4665C47.2228 28.3485 47.0522 28.1635 46.9398 28.0555C46.6735 27.7997 46.5539 27.7387 46.4541 27.8078C46.2871 27.9231 46.1893 28.845 46.2706 29.535C46.3035 29.8136 46.3388 29.9918 46.4287 30.3321C46.4644 30.4672 46.4853 30.5834 46.4786 30.6092C46.4723 30.6336 46.3883 30.7325 46.292 30.829C46.0725 31.0491 46.0102 31.1639 46.0007 31.3661C45.992 31.5525 46.0451 31.7014 46.2297 32.0079C46.4301 32.3406 46.4495 32.4064 46.4201 32.6516C46.4121 32.7191 46.4154 32.8206 46.4285 32.901C46.4625 33.1113 46.4064 33.1968 46.2344 33.1968C46.1108 33.1968 46.0227 33.1495 45.6608 32.8888C45.2103 32.5643 45.1475 32.5246 45.0961 32.5318C45.0413 32.5394 45.006 32.6069 44.8467 33.0087C44.7803 33.1762 44.7114 33.3238 44.6936 33.3366C44.6756 33.3496 44.6088 33.36 44.5437 33.36C44.4426 33.36 44.4232 33.3655 44.4047 33.3997C44.3928 33.4216 44.3759 33.5858 44.3671 33.7646C44.3458 34.1966 44.3169 34.3047 44.0945 34.7866C43.9008 35.2062 43.8224 35.4176 43.8418 35.4676C43.8484 35.4846 43.8917 35.5267 43.9381 35.5611C44.0825 35.6685 44.0911 35.7018 44.1112 36.2308C44.1316 36.7711 44.1172 37.4849 44.0806 37.7437C44.0666 37.8432 44.0504 37.9292 44.0448 37.9348C44.0391 37.9404 44.0077 37.9089 43.9751 37.8647C43.5719 37.3194 43.4757 36.1886 43.7082 34.727C43.7551 34.4321 43.7568 34.392 43.7608 33.4893C43.7656 32.3717 43.7398 30.8589 43.7136 30.7199C43.6988 30.6419 43.6019 30.4602 43.2723 29.893C42.7969 29.0746 42.7371 28.9588 42.6839 28.753C42.6368 28.5707 42.5672 27.8155 42.5678 27.4945C42.5682 27.2914 42.5786 27.2058 42.6351 26.9403C42.6718 26.7675 42.7019 26.5921 42.702 26.5505C42.7022 26.4789 42.6979 26.473 42.6226 26.4417C42.2402 26.283 42.2149 26.2382 42.216 25.7227C42.2168 25.3425 42.2265 25.3127 42.3473 25.3213L42.4267 25.327L42.4159 25.2614C42.41 25.2253 42.3506 25.052 42.2838 24.8764C42.1293 24.4697 42.0945 24.3161 42.1084 24.1032C42.1182 23.9541 42.1157 23.9374 42.0751 23.8831C42.0164 23.8046 42.0343 23.7568 42.195 23.5624C42.4248 23.2845 42.8381 23.0113 43.0695 22.9842C43.2391 22.9644 43.2641 23.0406 43.1703 23.2916C43.1087 23.4565 43.1029 23.5057 43.1366 23.5786C43.1918 23.6983 43.504 23.7631 43.9474 23.7471C44.667 23.7211 45.3529 23.4466 46.0327 22.9125C46.2257 22.7609 46.2188 22.7371 45.9941 22.7804C45.74 22.8293 45.2692 22.8838 44.9926 22.8962C44.5968 22.914 44.2229 22.86 43.9216 22.7416L43.8022 22.6946L43.8177 22.5636C43.8513 22.2801 43.8261 22.1837 43.6959 22.0987C43.514 21.98 43.2763 21.9691 42.8988 22.0622ZM47.8329 29.2365C47.8329 29.2622 48.0012 29.5057 48.0617 29.5675C48.1422 29.6498 48.2316 29.66 48.4411 29.6109C48.5325 29.5895 48.6181 29.563 48.6315 29.5521C48.6449 29.5411 48.6612 29.5039 48.6678 29.4693C48.6811 29.399 48.6901 29.3948 48.7422 29.4337C48.7976 29.475 48.836 29.4675 48.8892 29.4051C48.9468 29.3376 48.952 29.2676 48.9015 29.2409C48.8586 29.2183 47.8329 29.214 47.8329 29.2365ZM49.0741 29.6328C49.0274 29.6831 48.8225 30.0332 48.7544 30.1791C48.6819 30.3345 48.6871 30.4401 48.7761 30.613C48.8369 30.7312 48.9564 30.8823 48.9564 30.841C48.9564 30.8163 49.0657 30.3029 49.1237 30.0553C49.184 29.7979 49.1939 29.6863 49.1618 29.627C49.1368 29.581 49.1214 29.582 49.0741 29.6328ZM48.5955 29.7439C48.337 29.8868 48.3027 29.9565 48.4249 30.09C48.4947 30.1662 48.5335 30.1818 48.5498 30.14C48.5549 30.1268 48.601 30.0621 48.6522 29.9962C48.7034 29.9302 48.7597 29.8488 48.7773 29.8153C48.8076 29.7576 48.8076 29.7522 48.777 29.7189C48.7342 29.6722 48.7221 29.6739 48.5955 29.7439ZM46.5593 30.9917C46.4205 31.058 46.3039 31.2171 46.2834 31.3682C46.2693 31.4714 46.3269 31.661 46.4116 31.7902C46.4514 31.8509 46.4905 31.9005 46.4987 31.9005C46.5136 31.9005 46.6443 30.9804 46.6313 30.9675C46.6275 30.9637 46.5951 30.9746 46.5593 30.9917ZM46.803 31.5313C46.803 31.5419 46.8257 31.6398 46.8535 31.7487L46.904 31.9467L46.9292 31.8636C46.9659 31.7421 46.9683 31.5937 46.9341 31.5618C46.8974 31.5276 46.803 31.5056 46.803 31.5313ZM32.2283 33.1896L32.1563 33.2216L32.2471 33.3331C32.3909 33.51 32.5051 33.6371 32.5203 33.6371C32.5459 33.6371 32.5356 33.3246 32.5079 33.2593C32.4632 33.1537 32.3648 33.1292 32.2283 33.1896ZM49.8616 35.6291C49.7746 35.697 49.5985 35.9024 49.6141 35.9178C49.6247 35.9282 50.0322 35.9833 50.0993 35.9833C50.1497 35.9833 50.1548 35.9776 50.1548 35.922C50.1548 35.8256 50.1172 35.6456 50.0874 35.5999C50.0458 35.5361 49.9679 35.5461 49.8616 35.6291ZM50.4526 35.6375C50.3706 35.6992 50.3193 35.9392 50.3742 36.0046C50.3965 36.0311 50.8381 36.0913 50.859 36.0706C50.8641 36.0656 50.8371 35.9813 50.7991 35.8832C50.719 35.6768 50.6606 35.6134 50.5513 35.6144C50.5135 35.6147 50.4691 35.6251 50.4526 35.6375ZM58.2135 35.8493C58.172 35.9317 58.1653 36.2067 58.2033 36.2741C58.2299 36.3214 58.3009 36.3608 58.3893 36.3774C58.4623 36.3911 58.4645 36.3792 58.4036 36.2978C58.3781 36.2636 58.343 36.1989 58.3256 36.1541C58.2977 36.0821 58.2969 36.0585 58.3185 35.9511C58.3412 35.8386 58.3405 35.8277 58.3087 35.8048C58.2593 35.7692 58.2522 35.7725 58.2135 35.8493ZM30.1563 39.0303C30.1563 39.0939 30.2017 39.3151 30.2296 39.3875C30.2507 39.4424 30.3007 39.4548 30.3183 39.4096C30.3328 39.3723 30.2706 39.0709 30.2375 39.0176C30.2 38.9574 30.1563 38.9642 30.1563 39.0303ZM29.7405 39.1549C29.6867 39.1689 29.6857 39.2213 29.7357 39.4118C29.7893 39.6161 29.8205 39.6663 29.8658 39.6215C29.8905 39.5972 29.8894 39.5722 29.8563 39.4036C29.8245 39.2415 29.792 39.1362 29.7764 39.1445C29.7742 39.1457 29.7581 39.1504 29.7405 39.1549ZM28.8754 39.5254C28.8549 39.5457 28.8638 39.6187 28.9098 39.806C28.9608 40.0135 28.9675 40.0291 29.0058 40.0291C29.0442 40.0291 29.0404 39.9343 28.9944 39.7434C28.9733 39.6558 28.9516 39.5727 28.9462 39.5587C28.9347 39.5293 28.8919 39.5091 28.8754 39.5254ZM28.422 39.7232C28.4074 39.7609 28.4187 39.8161 28.4829 40.0198C28.5349 40.1848 28.5517 40.213 28.598 40.2135C28.6283 40.2139 28.6135 40.0909 28.5561 39.8651C28.5218 39.7301 28.5093 39.7049 28.4745 39.6999C28.4501 39.6963 28.4288 39.7058 28.422 39.7232ZM29.8883 39.8563C29.8698 39.8745 29.8724 39.9635 29.8929 40.0167C29.9263 40.1034 29.8999 40.136 29.76 40.1804C29.6114 40.2276 29.5811 40.2192 29.5477 40.1213C29.5234 40.0502 29.4975 40.0348 29.4659 40.0724C29.4501 40.0911 29.4493 40.1126 29.4631 40.1481C29.4736 40.1754 29.4822 40.222 29.4822 40.2517C29.4822 40.2966 29.4704 40.3106 29.4122 40.3346C29.3737 40.3504 29.3104 40.3704 29.2716 40.3791C29.2086 40.393 29.1969 40.3896 29.1637 40.348C29.1432 40.3222 29.1264 40.2907 29.1264 40.278C29.1264 40.2503 29.0746 40.2274 29.0484 40.2434C29.0382 40.2496 29.0327 40.3016 29.036 40.359L29.0421 40.4632L28.9586 40.5048C28.8408 40.5634 28.7763 40.5588 28.699 40.4863L28.6351 40.4263L28.6484 40.5186C28.6557 40.5694 28.663 40.6193 28.6646 40.6295C28.6663 40.6397 28.61 40.6765 28.5395 40.7114C28.3942 40.7834 28.3726 40.7794 28.3118 40.6696C28.2733 40.5999 28.2554 40.5908 28.2115 40.6183C28.1907 40.6312 28.19 40.6525 28.2076 40.7332C28.2387 40.8765 28.2738 40.9224 28.342 40.909C28.3722 40.903 28.5547 40.8241 28.7476 40.7337C29.0271 40.6026 29.5683 40.3816 30.0306 40.2097C30.0593 40.199 30.0908 40.1755 30.1006 40.1576C30.115 40.131 30.1061 40.1177 30.0537 40.0872C30.0123 40.0631 29.9851 40.0309 29.9783 39.9977C29.9513 39.8667 29.9229 39.8221 29.8883 39.8563ZM27.9879 39.9035C27.958 39.933 27.9595 40.001 27.9914 40.0623C28.0058 40.0898 28.0362 40.1808 28.059 40.2646C28.0819 40.3485 28.1074 40.417 28.1158 40.417C28.1647 40.417 28.1901 40.3895 28.1899 40.3365C28.1896 40.2732 28.1132 40.0221 28.0678 39.9355C28.0366 39.876 28.0217 39.8701 27.9879 39.9035ZM27.019 40.3885C26.9646 40.4421 26.9632 40.4555 27.0038 40.5334C27.0429 40.6084 27.2829 40.9414 27.3195 40.9713C27.3534 40.9991 27.4037 40.9826 27.4037 40.9436C27.4037 40.9074 27.3312 40.7362 27.2219 40.514C27.1292 40.3257 27.1006 40.308 27.019 40.3885ZM59.8754 40.627C59.8437 40.6646 59.8129 40.8547 59.8275 40.9218C59.8465 41.0088 59.8892 41.0821 59.9208 41.0821C59.9361 41.0821 59.9658 41.0551 59.9868 41.0221C60.0187 40.9717 60.024 40.9371 60.0193 40.8081C60.0147 40.681 60.0074 40.6496 59.9773 40.628C59.9317 40.5951 59.9024 40.5948 59.8754 40.627ZM26.4229 40.7979L26.3129 40.8831L26.3238 40.9735C26.3375 41.0878 26.4342 41.2899 26.4995 41.3405C26.5602 41.3877 26.6101 41.38 26.7951 41.2947C27.0171 41.1924 27.0128 41.2125 26.8607 40.9896C26.6461 40.675 26.6049 40.657 26.4229 40.7979ZM25.9103 41.168C25.869 41.1848 25.8849 41.2469 25.9734 41.4149C26.0673 41.5933 26.1132 41.6468 26.1578 41.6299C26.2034 41.6126 26.1913 41.5661 26.0874 41.3592C25.9956 41.1764 25.9665 41.1451 25.9103 41.168ZM27.3817 41.2899L27.278 41.4054L27.1331 41.4011C26.9742 41.3963 26.9644 41.3996 26.7811 41.5217C26.6705 41.5953 26.6547 41.6131 26.6547 41.6632C26.6547 41.7382 26.6147 41.7919 26.518 41.8466C26.3891 41.9195 26.3579 41.9233 26.3368 41.8685C26.3251 41.8381 26.3042 41.8211 26.2788 41.8211C26.2414 41.8211 26.2398 41.8274 26.2517 41.9287C26.2642 42.0353 26.2637 42.0369 26.1967 42.095C26.1042 42.1752 26.0398 42.1787 25.9618 42.1081C25.8917 42.0446 25.8308 42.0167 25.8308 42.048C25.8308 42.0867 25.9958 42.4122 26.0153 42.4122C26.0366 42.4122 26.1923 42.2972 26.4393 42.0989C26.6383 41.9393 27.1356 41.6013 27.3617 41.472C27.5303 41.3757 27.5596 41.3366 27.5334 41.243C27.5229 41.2053 27.5078 41.1745 27.4998 41.1745C27.4919 41.1745 27.4388 41.2264 27.3817 41.2899ZM25.0817 41.7761C25.0817 41.812 25.1785 41.9754 25.2368 42.0381C25.3382 42.1471 25.3297 42.0233 25.2255 41.873C25.1449 41.7568 25.0817 41.7142 25.0817 41.7761ZM17.006 44.2902C17.0107 44.7357 17.0209 45.3205 17.0287 45.5898C17.0364 45.859 17.0447 46.5075 17.0472 47.0307C17.0496 47.554 17.0544 48.0195 17.0579 48.0653C17.0613 48.111 17.0696 49.0047 17.0763 50.0512C17.083 51.0978 17.0917 51.9956 17.0955 52.0464C17.1025 52.14 17.1154 54.0009 17.1333 57.5414C17.1388 58.6128 17.1468 59.4928 17.1511 59.497C17.1553 59.5013 17.8482 59.3394 18.6907 59.1373L20.2225 58.7698V57.782C20.2225 57.2387 20.2142 56.0751 20.204 55.1962C20.1794 53.0803 20.1796 53.0052 20.2093 52.9758C20.2284 52.9569 20.4232 52.9519 21.1398 52.9518L22.0461 52.9516L22.0467 52.3974C22.047 52.0926 22.0558 51.6603 22.0662 51.4368C22.0767 51.2132 22.0853 50.702 22.0855 50.3006L22.0858 49.5709L21.5848 49.5905C21.3093 49.6013 20.8716 49.6119 20.612 49.6141L20.1402 49.6182L20.1269 49.5483C20.1122 49.4716 20.111 49.2083 20.1197 47.9583C20.1229 47.4982 20.1311 47.1183 20.1379 47.1141C20.1646 47.0978 21.1588 47.0769 21.9031 47.0769H22.6849L22.687 45.913C22.6882 45.2729 22.6914 44.6993 22.694 44.6383C22.7028 44.4387 22.7089 43.5381 22.7015 43.531C22.6975 43.5272 21.8769 43.5192 20.8779 43.5131C19.8789 43.5071 18.5971 43.4973 18.0295 43.4912L16.9974 43.4802L17.006 44.2902ZM66.5956 43.7176C65.712 43.7854 65.2021 43.8398 63.7494 44.0212C63.1778 44.0926 62.4966 44.1748 62.2357 44.2038C61.9748 44.2328 61.7558 44.2621 61.749 44.2688C61.7374 44.2802 61.7421 45.3255 61.7542 45.4554C61.7573 45.4882 61.7651 46.3029 61.7716 47.2658C61.7781 48.2288 61.7876 49.3305 61.7927 49.7141C61.7978 50.0976 61.8061 50.7253 61.8113 51.1089C61.8164 51.4924 61.8255 52.5087 61.8316 53.3673C61.8424 54.9004 61.8291 55.5832 61.7561 57.2561C61.7507 57.378 61.7408 57.7373 61.7339 58.0545L61.7214 58.6312L61.7675 58.6485C61.7928 58.658 61.91 58.6712 62.0278 58.6778C62.4516 58.7017 62.7955 58.729 64.7245 58.8919C65.8015 58.9829 66.735 59.0573 66.7989 59.0573C66.8754 59.0573 66.9177 59.0494 66.9226 59.0342C66.9267 59.0215 66.9335 58.1486 66.9378 57.0944L66.9456 55.1778H66.8873C66.655 55.1778 64.7318 55.0439 64.7212 55.027C64.7142 55.0159 64.7074 54.9101 64.7061 54.792C64.7047 54.674 64.6946 54.4111 64.6835 54.2079C64.6579 53.7385 64.6522 52.8859 64.6745 52.8518C64.6888 52.8299 64.7838 52.8277 65.2737 52.8383C65.594 52.8452 65.949 52.8559 66.0627 52.8622C66.1764 52.8684 66.3432 52.8675 66.4333 52.8601L66.597 52.8466L66.5948 51.3904L66.5926 49.9342L65.6127 49.9373C65.0738 49.939 64.6257 49.9335 64.6171 49.925C64.6084 49.9165 64.5988 49.4094 64.5957 48.7981C64.5909 47.8535 64.5941 47.6811 64.6171 47.6504C64.6429 47.6157 64.6806 47.6136 65.5028 47.6001C65.9751 47.5924 66.391 47.582 66.4271 47.5769C66.4631 47.572 66.6022 47.5676 66.736 47.5672L66.9795 47.5665L66.9746 46.1486C66.9719 45.3688 66.9677 44.5021 66.9652 44.2227L66.9607 43.7146L66.8203 43.7129C66.7431 43.7119 66.6419 43.7141 66.5956 43.7176ZM48.211 44.8924C48.3561 46.7058 48.3737 46.9627 48.488 48.9335C48.5252 49.5753 48.5827 50.8653 48.5806 51.0119C48.5796 51.0802 48.5781 51.0823 48.5606 51.0396C48.5363 50.9806 47.634 48.0045 47.3087 46.9106C46.9563 45.7256 46.7207 44.9553 46.6193 44.6568L46.5315 44.3982L46.4566 44.4037C46.4154 44.4067 46.2848 44.4254 46.1664 44.4452C45.9258 44.4855 44.0832 44.8617 43.9662 44.8945L43.8912 44.9155V51.1458V57.3762L44.2189 57.3763C44.6175 57.3764 45.1348 57.3904 45.6227 57.4143C45.8232 57.4242 46.1497 57.4375 46.3483 57.444L46.7094 57.4558L46.7094 57.4114C46.7093 57.3869 46.7012 57.2589 46.6914 57.1268C46.6815 56.9947 46.6646 56.6705 46.6539 56.4063C46.6432 56.1421 46.6095 55.3357 46.5791 54.6143C46.4673 51.9605 46.4503 51.4005 46.483 51.446C46.512 51.4866 46.6839 52.0045 46.8783 52.6376C47.2487 53.8439 47.4339 54.4162 47.6727 55.0917C48.0087 56.0425 48.239 56.7559 48.5117 57.6902C48.5428 57.7969 48.5704 57.8867 48.5729 57.8897C48.5859 57.9052 49.1328 57.8444 49.7148 57.7628C50.3326 57.6762 50.8029 57.6163 50.8663 57.6163C50.8914 57.6163 50.894 56.8847 50.8897 51.0165C50.887 47.3866 50.8849 44.3772 50.885 44.3289L50.8851 44.2412H49.522H48.1588L48.211 44.8924ZM25.942 44.4457C25.8435 44.4538 25.6371 44.4855 25.4832 44.5163C24.866 44.6397 24.4885 44.819 24.1224 45.1627C23.4569 45.7875 23.0021 46.805 22.7713 48.1854C22.6238 49.0681 22.5701 49.9047 22.5692 51.3352C22.5681 52.9082 22.6543 53.8334 22.8924 54.8083C23.3304 56.6017 24.1414 57.5557 25.4511 57.8184C26.182 57.965 27.0764 57.8702 27.6908 57.5809C28.9744 56.9764 29.625 55.3729 29.7819 52.4265C29.8209 51.6933 29.8015 50.0969 29.7437 49.2846C29.6221 47.576 29.3005 46.4256 28.7194 45.6207C28.5883 45.439 28.2658 45.1137 28.0871 44.9828C27.7014 44.7004 27.0788 44.4948 26.4582 44.4451C26.1982 44.4243 26.2042 44.4242 25.942 44.4457ZM37.3388 44.9553C37.3461 45.2484 37.353 46.0253 37.3541 46.6819L37.3561 47.8756L38.1452 47.8662L38.9342 47.8568L38.956 47.8969C38.9723 47.927 38.9787 49.1418 38.9815 52.7679L38.9852 57.5989L39.6313 57.5845C39.9866 57.5766 40.6894 57.5701 41.1931 57.5701H42.1089L42.0965 56.748C42.0896 56.2959 42.0794 55.3773 42.0738 54.7067C42.0682 54.0361 42.0592 53.4541 42.0538 53.4135C42.0484 53.3728 42.0395 52.2442 42.034 50.9053L42.024 48.471L42.8148 48.4721C43.2498 48.4727 43.6077 48.4708 43.6102 48.4679C43.6127 48.4649 43.6194 47.6916 43.6251 46.7495L43.6356 45.0365L43.5668 45.0174C43.3356 44.9531 39.4526 44.5807 37.4907 44.4347L37.3256 44.4224L37.3388 44.9553ZM30.564 44.5191C30.2743 44.5448 30.2913 44.5333 30.2826 44.7088C30.2785 44.792 30.2732 45.3339 30.2708 45.913C30.2684 46.4922 30.2638 46.9922 30.2607 47.0241C30.2575 47.056 30.2493 47.6545 30.2425 48.3542C30.2356 49.0539 30.2264 49.7261 30.2218 49.848C30.2173 49.9699 30.2081 51.2336 30.2015 52.6561C30.195 54.0786 30.1871 55.2553 30.1841 55.271C30.1811 55.2867 30.1724 55.818 30.1647 56.4517L30.1509 57.6038L31.5439 57.5918C32.3101 57.5852 33.0025 57.5797 33.0826 57.5796L33.2283 57.5794L33.2242 57.0482C33.222 56.7561 33.2107 56.1472 33.199 55.695C33.1874 55.2429 33.1762 54.5557 33.174 54.168L33.1702 53.463L33.2877 53.456C33.3523 53.4521 33.4069 53.4496 33.409 53.4504C33.4111 53.4512 33.5266 53.9462 33.6655 54.5504C33.8045 55.1545 33.9866 55.9315 34.07 56.277C34.2944 57.2054 34.4818 58.0383 34.4818 58.1065C34.4818 58.1256 35.4338 58.0617 36.2794 57.9859C36.6142 57.9558 37.0265 57.9225 37.1958 57.9118C37.5121 57.8918 37.5902 57.8811 37.5902 57.8573C37.5902 57.807 37.3277 56.977 36.9385 55.7966C36.621 54.8338 36.2053 53.4471 36.0084 52.694L35.941 52.4364L36.0025 52.3892C36.3426 52.1285 36.7581 51.5491 36.9828 51.0222C37.1909 50.5341 37.2906 49.8596 37.2906 48.9404C37.2906 48.372 37.2442 48.0136 37.1104 47.5481C36.9528 46.9999 36.6385 46.3609 36.2925 45.8853C36.1363 45.6705 35.8218 45.3069 35.6757 45.172C35.3127 44.8371 34.8224 44.6424 34.1167 44.5533C34.024 44.5416 33.7038 44.5262 33.4051 44.5191C32.6575 44.5015 30.7634 44.5015 30.564 44.5191ZM51.5797 44.9196L51.5346 44.928L51.5467 45.5037C51.5741 46.804 51.5965 51.1844 51.5969 55.2923C51.5971 57.4837 51.6021 58.0794 51.6203 58.091C51.6449 58.1067 54.3685 58.1169 54.6185 58.1022L54.766 58.0936L54.7544 57.3792C54.748 56.9864 54.7384 55.6839 54.733 54.485C54.7276 53.286 54.7193 52.1305 54.7145 51.9171C54.7097 51.7037 54.7001 50.4027 54.693 49.0259C54.686 47.6491 54.6783 46.4811 54.676 46.4303C54.6737 46.3795 54.6708 46.0158 54.6697 45.6221L54.6676 44.9062L53.1462 44.9087C52.3094 44.9101 51.6045 44.915 51.5797 44.9196ZM60.3788 45.1758C60.0441 45.1896 58.7633 45.2384 57.5326 45.2842C56.3019 45.3299 55.216 45.3726 55.1196 45.3789L54.9442 45.3903L54.9604 46.2798C54.9693 46.769 54.974 47.5454 54.9707 48.0052L54.9649 48.8411L55.8255 48.8289L56.6861 48.8168L56.6941 48.926C56.6985 48.986 56.7039 49.9595 56.7062 51.0893C56.7085 52.219 56.7156 53.1626 56.7219 53.1861C56.7373 53.2428 56.7335 56.9044 56.7173 57.771L56.7045 58.4523L57.3198 58.4363C57.6583 58.4275 58.3144 58.4202 58.7778 58.4201L59.6205 58.4199L59.6202 57.9766C59.6197 57.2308 59.588 54.1627 59.5801 54.1003C59.5675 54.0008 59.5539 48.7094 59.566 48.5964L59.5773 48.4902L59.9078 48.4906C60.0896 48.4908 60.4153 48.4993 60.6316 48.5094C60.8479 48.5195 61.0817 48.5224 61.1512 48.5159L61.2776 48.5039L61.2779 47.7073C61.278 47.2691 61.2882 46.6114 61.3006 46.2456C61.313 45.8798 61.3234 45.4849 61.3238 45.3681L61.3244 45.1556L61.1559 45.1532C61.0632 45.1518 60.7135 45.162 60.3788 45.1758ZM26.1052 47.0942C26.0087 47.1287 25.9513 47.1852 25.8986 47.2975C25.8371 47.4283 25.8178 47.519 25.7857 47.8254C25.7251 48.4048 25.7099 49.0439 25.7095 51.0396C25.7091 52.9459 25.7197 53.459 25.7763 54.2725C25.8282 55.0173 25.9642 55.3642 26.2033 55.3619C26.3724 55.3602 26.4659 55.2183 26.5406 54.8503C26.6372 54.3744 26.6634 53.6037 26.6633 51.2336C26.6632 48.6894 26.624 47.8356 26.4869 47.3978C26.407 47.1425 26.2715 47.0348 26.1052 47.0942ZM33.1226 47.4767C33.1004 47.5121 33.138 50.7282 33.164 51.0189L33.1745 51.1367L33.3008 51.1278C33.5221 51.1121 33.7591 50.9549 33.9273 50.712C34.0674 50.5097 34.1416 50.2545 34.1839 49.8295C34.211 49.5579 34.1955 48.9489 34.1546 48.675C34.0712 48.1161 33.8734 47.7098 33.6107 47.558C33.471 47.4772 33.1552 47.4246 33.1226 47.4767Z" fill="#FAFAFA"/>
</svg>
