<svg width="84" height="84" viewBox="0 0 84 84" fill="none" xmlns="http://www.w3.org/2000/svg">
<circle cx="42" cy="42" r="42" fill="#FE4655"/>
<path d="M30.589 33.8475L31.87 36.2114L29.6379 36.3702L30.589 33.8475ZM24.7445 40.1692L28.3133 39.9153L28.8572 38.4542L32.9281 38.1646L33.6666 39.5344L37.2354 39.2805L32.3057 31.3197L28.5373 31.5878L24.7445 40.1692Z" fill="#F9F9F9"/>
<path d="M36.9141 30.9794L37.4826 39.2506L46.9975 38.5736L46.8173 35.952L40.472 36.4034L40.0837 30.754L36.9141 30.9794Z" fill="#F9F9F9"/>
<path d="M47.5118 30.2255L48.0802 38.4966L57.5951 37.8197L57.415 35.198L51.0697 35.6495L50.6814 30L47.5118 30.2255Z" fill="#F9F9F9"/>
<path d="M22.6335 51.64L25.1861 51.4584C24.7514 52.1201 23.958 52.2507 22.7059 52.3398C21.4041 52.4139 20.2871 52.2583 20.2118 50.897L20.1978 50.6939C20.0871 49.3474 21.171 49.0229 22.4703 48.912C22.936 48.8788 23.3628 48.8979 23.7446 48.9697C24.1264 49.0415 24.4295 49.2055 24.6481 49.4682L28.0174 49.2285C27.4854 46.7061 25.1089 46.0898 22.2901 46.2903C19.2298 46.5142 16.7873 47.5909 17.0147 50.7225L17.0561 51.3256C17.2589 54.4527 19.8249 55.173 22.8865 54.9676C24.2656 54.8695 25.676 54.429 26.5544 53.4142L26.8001 54.6892L28.3849 54.5764L28.0588 49.8316L22.5362 50.2245L22.6335 51.64Z" fill="#F9F9F9"/>
<path d="M34.4644 48.0463L35.7453 50.4103L33.5133 50.5691L34.4644 48.0463ZM28.6198 54.368L32.1887 54.1141L32.7326 52.653L36.8035 52.3634L37.5419 53.7333L41.1108 53.4794L36.181 45.5185L32.4126 45.7866L28.6198 54.368Z" fill="#F9F9F9"/>
<path d="M41.3579 53.4494L44.5275 53.2239L44.2243 48.8114L47.7032 52.998L49.288 52.8852L52.1604 48.2468L52.4637 52.6593L55.6333 52.4338L55.0648 44.1627L51.1028 44.4446L48.2114 48.8061L44.7575 44.896L40.7894 45.1783L41.3579 53.4494Z" fill="#F9F9F9"/>
<path d="M57.4851 52.3144L67 51.6375L66.8541 49.5144L60.5088 49.9658L60.436 48.9073L66.7813 48.4558L66.6498 46.5419L60.3045 46.9933L60.2317 45.9348L66.577 45.4834L66.4315 43.3664L56.9166 44.0433L57.4851 52.3144Z" fill="#F9F9F9"/>
</svg>
