<svg width="84" height="84" viewBox="0 0 84 84" fill="none" xmlns="http://www.w3.org/2000/svg">
<circle cx="42" cy="42" r="42" fill="#3E3E3E"/>
<path fill-rule="evenodd" clip-rule="evenodd" d="M41.922 31.0476C41.4343 31.1756 41.0779 31.4769 40.8536 31.9513C40.6228 32.4393 40.5819 32.9234 40.7335 33.3738L40.8019 33.5771L40.7305 33.6351C40.6439 33.7055 40.6282 33.7066 40.5788 33.645C40.432 33.462 39.9247 33.4828 39.559 33.6868C39.3909 33.7806 39.1029 34.0515 38.9652 34.2454C38.7327 34.5729 38.5371 35.0956 38.4556 35.6076C38.4206 35.8272 38.4144 36.0088 38.4273 36.4408C38.4364 36.7447 38.4515 37.0274 38.4609 37.0692C38.4824 37.1646 38.4628 37.171 37.9846 37.2253C37.7856 37.2479 37.6154 37.274 37.6063 37.2834C37.5973 37.2927 37.5794 37.4995 37.5667 37.7429C37.5454 38.1504 37.5215 38.3874 37.4273 39.1226C37.3746 39.5338 37.3764 39.5364 37.7774 39.6245C37.9588 39.6644 38.1073 39.7038 38.1073 39.712C38.1073 39.7202 38.0535 39.744 37.9877 39.765C37.7806 39.831 37.7427 39.8696 37.7614 39.995L37.7778 40.1045L37.7 40.0318L37.6223 39.9591L37.6373 40.4098C37.6456 40.6576 37.6777 41.0436 37.7088 41.2675C37.7399 41.4914 37.7738 41.7934 37.7842 41.9387L37.8031 42.2028H37.7165C37.5991 42.2028 37.5243 42.2808 37.4742 42.4552C37.4172 42.6535 37.4215 42.7639 37.4892 42.8384C37.5452 42.9001 37.5453 42.9033 37.4948 43.0264C37.4475 43.1413 37.4464 43.1722 37.4809 43.4017C37.5035 43.5518 37.5407 43.6833 37.5739 43.7306L37.6292 43.8095L37.533 44.4139C37.3737 45.4142 37.3366 45.771 37.3728 45.9574C37.4279 46.2411 37.4155 46.3105 37.2494 46.6453C37.1643 46.8169 37.0947 46.9736 37.0947 46.9937C37.0947 47.0137 37.0679 47.0551 37.035 47.0855C36.9398 47.174 36.7789 47.4358 36.6079 47.7806C36.4025 48.1948 36.396 48.2152 36.3486 48.5862C36.3102 48.8871 36.3013 48.9131 36.1404 49.1945C35.945 49.5362 35.9033 49.694 35.9173 50.0393C35.9252 50.2333 35.9394 50.3032 35.9804 50.35C36.0322 50.4091 36.032 50.4162 35.9708 50.6947C35.9365 50.8511 35.8256 51.3061 35.7244 51.7059C35.5244 52.4958 35.4925 52.7805 35.5723 53.0644C35.6137 53.2117 35.6161 53.2133 35.8694 53.2598C36.1415 53.3099 37.0843 53.2819 37.1422 53.2221C37.1522 53.2117 37.1662 53.1315 37.1732 53.0438C37.1831 52.921 37.1674 52.8259 37.1052 52.6295C37.0325 52.4001 37.0246 52.337 37.026 51.9967C37.028 51.5266 37.0741 51.3204 37.2835 50.8454C37.368 50.6536 37.3954 50.6179 37.4922 50.5737C37.6377 50.5074 37.7196 50.3748 37.8361 50.0173C37.8881 49.8575 38.0151 49.5401 38.1182 49.3119C38.3996 48.6893 38.45 48.5089 38.4282 48.2039C38.4119 47.9757 38.4169 47.9384 38.4889 47.7534C38.5497 47.5974 38.6076 47.5111 38.7446 47.3722C38.8684 47.2467 38.9466 47.1353 39.0042 47.0028C39.069 46.8534 39.1147 46.793 39.2188 46.7189C39.3819 46.6029 39.4423 46.4709 39.4846 46.1378C39.5056 45.9718 39.5671 45.7475 39.6718 45.4545C39.8616 44.9237 39.9835 44.6778 40.1608 44.4683C40.2351 44.3806 40.3114 44.2591 40.3304 44.1984C40.3494 44.1376 40.3834 44.0502 40.406 44.0041L40.4471 43.9202L40.5589 44.1349C40.7226 44.4492 40.7664 44.4867 40.9938 44.507L41.1837 44.524L41.7338 45.3646C42.1952 46.0695 42.3017 46.2147 42.3937 46.2638C42.5062 46.3239 42.7295 46.3443 42.8606 46.3065C42.9225 46.2886 42.9422 46.3039 43.0245 46.4331C43.134 46.6051 43.1351 46.6126 43.1032 47.009C43.0817 47.2756 43.0691 47.3258 43.0013 47.416C42.8636 47.5989 42.8595 47.6465 42.9209 48.3387C42.9605 48.7852 43.0015 49.0727 43.0595 49.3106C43.1048 49.4965 43.1419 49.6967 43.1419 49.7555C43.1419 49.8308 43.1617 49.8812 43.2089 49.9264C43.2705 49.9852 43.2786 50.026 43.3077 50.4265C43.3561 51.0938 43.3503 51.245 43.268 51.4543C43.2291 51.5533 43.1573 51.8455 43.1085 52.1035L43.0198 52.5726L43.0934 52.6381C43.2059 52.7381 43.4032 52.7702 43.6944 52.7359C43.9811 52.7021 44.0509 52.7111 44.4434 52.8322C44.7039 52.9125 44.7774 52.9221 45.2232 52.9342C45.6676 52.9463 46.2745 52.9113 46.3131 52.8713C46.343 52.8405 46.3533 52.5762 46.3285 52.4778C46.3071 52.3929 46.2731 52.3605 46.109 52.2687C46.0021 52.2089 45.8261 52.1305 45.7177 52.0945C45.4905 52.019 45.4094 51.9506 45.0722 51.5502C44.7015 51.1103 44.7033 51.1157 44.7031 50.4411C44.7029 49.8886 44.7048 49.8696 44.7783 49.6996C44.884 49.4552 44.901 49.2398 44.8441 48.8648C44.7983 48.563 44.7987 48.5411 44.8559 48.1525C44.9512 47.5048 44.9976 46.967 44.9979 46.5057C44.9982 46.1306 44.9913 46.064 44.9456 45.9969C44.9147 45.9516 44.8848 45.8393 44.8732 45.7247C44.8585 45.5806 44.8411 45.5254 44.8062 45.5131C44.6962 45.4744 44.6502 45.3944 44.4939 44.9708C43.9975 43.6249 43.6486 42.9699 43.0531 42.2663C42.8639 42.0427 42.8536 42.0194 42.7911 41.6745C42.7471 41.432 42.7472 41.4099 42.7927 41.3057C42.847 41.1812 42.8613 41.1771 43.0294 41.2384C43.2016 41.3012 43.318 41.2942 43.3883 41.2166C43.4209 41.1807 43.4945 41.0489 43.5519 40.9238C43.6502 40.7097 43.6576 40.6732 43.6795 40.2987C43.6922 40.0799 43.7164 39.7832 43.7331 39.6392C43.7799 39.2366 43.7731 38.7523 43.7188 38.6178C43.6478 38.4422 43.5073 38.3195 43.2918 38.245C43.2892 38.2441 43.3147 38.1293 43.3486 37.9899L43.4101 37.7365L43.7753 37.9432C44.4062 38.3004 44.7658 38.4551 45.1195 38.5215C45.2314 38.5424 45.3047 38.5732 45.3293 38.6094C45.3713 38.6714 45.4313 38.6855 45.4131 38.629C45.4058 38.6062 45.4536 38.5791 45.5428 38.5555C45.6849 38.5179 45.7862 38.4524 45.9994 38.2602C46.0629 38.2031 46.179 38.1009 46.2575 38.033C46.4278 37.886 46.4928 37.7308 46.5617 37.3069C46.6313 36.8791 46.6463 36.8525 46.8513 36.793C47.0046 36.7486 47.022 36.736 47.0094 36.6792C47.0016 36.6441 46.9633 36.4779 46.9244 36.31C46.8855 36.1421 46.8459 35.9123 46.8363 35.7994L46.8191 35.5941L47.0034 35.4426C47.1591 35.3144 47.3608 35.0661 47.3608 35.0024C47.3608 34.9923 47.4181 34.9553 47.4881 34.9201C47.6111 34.8584 47.6458 34.8562 48.5091 34.8562C49.1667 34.8562 49.4117 34.847 49.4365 34.8213C49.4551 34.8021 49.4703 34.7418 49.4703 34.6873C49.4703 34.6042 49.4782 34.5917 49.5195 34.6097C49.6181 34.6526 49.8743 34.6595 50.029 34.6234C50.263 34.5687 51.2468 34.5724 51.3324 34.6282C51.3839 34.6618 51.4735 34.667 51.7766 34.6542L52.1563 34.6381L52.1648 34.4855L52.1734 34.3328H51.8807C51.7198 34.3328 51.5481 34.3184 51.4991 34.3007C51.427 34.2747 51.3969 34.2775 51.3412 34.3152C51.2832 34.3545 51.1731 34.3619 50.6426 34.3619H50.0129L50.0265 34.2166C50.0437 34.0311 49.9971 33.9557 49.9135 34.0339C49.8604 34.0836 49.8561 34.0823 49.7911 33.9983C49.729 33.918 49.7237 33.8855 49.7236 33.5841L49.7234 33.257H49.639H49.5547V33.6786V34.1002H49.4831C49.4165 34.1002 49.4128 34.0931 49.43 33.9984L49.4484 33.8967H47.1689H44.8894L44.8805 33.8179C44.873 33.7511 44.8525 33.7344 44.7451 33.7075C44.6197 33.6761 44.6183 33.6745 44.6012 33.5308C44.5786 33.341 44.5481 33.2452 44.52 33.2759C44.5076 33.2895 44.4694 33.4216 44.4351 33.5696C44.3752 33.8281 44.3698 33.8385 44.2954 33.8385C44.2528 33.8385 44.0866 33.8777 43.926 33.9256C43.7655 33.9734 43.5811 34.0127 43.5163 34.0128C43.3991 34.013 43.3984 34.0122 43.3808 33.8894C43.371 33.8214 43.3608 33.6818 43.358 33.5792L43.3528 33.3925L43.5083 33.3442C43.5938 33.3176 43.6983 33.2725 43.7405 33.2439C43.9244 33.1193 43.9527 32.5685 43.7996 32.0939C43.7557 31.958 43.723 31.8209 43.727 31.7894C43.7396 31.6873 43.6773 31.5826 43.5827 31.5473C43.5326 31.5285 43.3528 31.4277 43.1832 31.3231C42.6789 31.0123 42.3394 30.9382 41.922 31.0476ZM45.7154 35.1415C45.5146 35.1545 45.3815 35.2989 45.4782 35.3989C45.4993 35.4207 45.4443 35.4672 45.2909 35.5573C45.1714 35.6275 45.0605 35.7069 45.0443 35.7338C45.0214 35.772 45.0456 35.8471 45.1542 36.0748C45.2308 36.2354 45.3017 36.3671 45.3116 36.3675C45.3544 36.3691 45.6393 36.0148 45.7295 35.8479C45.7836 35.7476 45.8587 35.6259 45.8964 35.5775C45.9613 35.4939 45.9631 35.481 45.9319 35.3273C45.9138 35.2381 45.8894 35.1578 45.8775 35.1488C45.8657 35.1398 45.7928 35.1365 45.7154 35.1415ZM48.9218 41.4414C48.5134 41.5218 48.2126 41.6823 47.9381 41.966C47.7129 42.1989 47.5892 42.4185 47.496 42.7514L47.4311 42.983V45.3673C47.4311 48.0152 47.4293 47.9854 47.6204 48.3808C47.7415 48.6313 48.0986 48.9964 48.3625 49.1395C48.7434 49.346 48.6043 49.3384 51.84 49.3295L54.744 49.3215L54.919 49.2538C55.4138 49.0622 55.8099 48.6512 55.9891 48.1434L56.0659 47.926L56.0742 46.3195L56.0826 44.713H53.2242H50.3658L50.3858 44.8075C50.4427 45.0774 50.6892 45.4867 50.9231 45.6995C50.9959 45.7657 51.1485 45.8675 51.2623 45.9256C51.4662 46.0298 51.4761 46.0317 51.9534 46.0579C52.2197 46.0725 52.8837 46.0778 53.4291 46.0697L54.4205 46.0548V46.9104V47.7661H51.7344H49.0484V45.3673V42.9685H52.5532H56.0581L56.0385 42.8594C55.9483 42.3578 55.5996 41.8907 55.1237 41.6337C54.6936 41.4015 54.9057 41.416 51.847 41.409C49.6701 41.4039 49.0789 41.4105 48.9218 41.4414ZM59.1285 41.4268C58.5522 41.5164 57.9958 41.9191 57.7616 42.416C57.5504 42.8643 57.5609 42.7257 57.5494 45.2364C57.5383 47.641 57.5447 47.7905 57.6728 48.1426C57.8745 48.6969 58.3486 49.1487 58.8784 49.2913C59.1269 49.3582 64.2979 49.3581 64.5726 49.2911C64.8839 49.2153 65.0976 49.0863 65.3646 48.8132C65.6274 48.5444 65.7704 48.2937 65.8534 47.9562C65.9189 47.6899 65.917 43.0753 65.8513 42.8132C65.6973 42.1987 65.2579 41.7188 64.6444 41.495L64.4194 41.4129L61.8458 41.4087C60.4304 41.4063 59.2076 41.4145 59.1285 41.4268ZM17.3501 41.5605C17.0436 41.6437 16.7896 41.799 16.5485 42.0506C16.2879 42.3227 16.1404 42.5849 16.0559 42.9265C16.0025 43.1424 16 43.253 16 45.4676C16 48.0545 15.9916 47.9323 16.2019 48.3763C16.2936 48.57 16.3677 48.6737 16.5462 48.8582C16.8074 49.1282 17.053 49.2705 17.4228 49.3663C17.6443 49.4236 17.7193 49.4249 20.2777 49.417L22.905 49.4089L23.1342 49.3175C23.2602 49.2672 23.4374 49.174 23.5279 49.1103C23.9367 48.8227 24.2714 48.3034 24.3382 47.8533C24.3489 47.7813 24.3639 47.6995 24.3715 47.6716C24.3847 47.6233 24.2221 47.6207 21.2379 47.6207H18.0902L18.0718 47.1191C18.0481 46.4718 18.0481 44.21 18.0718 43.6736L18.0901 43.2592H21.2219H24.3535V43.1835C24.3535 43.1418 24.3335 43.0275 24.3089 42.9295C24.1441 42.2721 23.6023 41.706 22.9966 41.5584C22.7373 41.4952 17.5835 41.4971 17.3501 41.5605ZM27.1662 41.5585C26.5266 41.7196 25.9862 42.2835 25.8255 42.9575C25.7579 43.2411 25.7596 44.5825 25.8279 44.8582C25.962 45.3992 26.3601 45.8853 26.8649 46.1242C27.1988 46.2822 27.1966 46.2821 29.9436 46.2827L32.482 46.2832V47.0107V47.7383L29.142 47.7366L25.802 47.7349L25.8113 47.8304C25.8278 48.0011 25.9542 48.3449 26.0702 48.5348C26.239 48.811 26.5283 49.0786 26.8069 49.2161C27.2413 49.4305 27.1288 49.4234 30.0994 49.4234C32.6497 49.4234 32.7628 49.4211 32.9712 49.3661C33.3143 49.2754 33.5579 49.128 33.8352 48.8433C34.0957 48.5758 34.2505 48.3043 34.309 48.0124C34.3908 47.6034 34.4205 46.6541 34.3644 46.2372C34.2583 45.4484 33.7727 44.8657 33.0305 44.6367C32.8746 44.5887 32.6624 44.5839 30.253 44.5752L27.6443 44.5657V43.8834V43.2011H30.9376H34.2308L34.2117 43.0775C34.1816 42.8835 34.0698 42.5715 33.9677 42.3964C33.748 42.0196 33.2719 41.6566 32.8689 41.5584C32.6202 41.4978 27.4068 41.4978 27.1662 41.5585ZM66.421 41.6794C66.3716 41.7305 66.4127 41.7536 66.5289 41.7401L66.6554 41.7253V42.0852C66.6554 42.3857 66.6624 42.4451 66.6976 42.4451C66.7327 42.4451 66.7398 42.3874 66.7398 42.0999V41.7548L66.8875 41.732C67.0244 41.7109 67.029 41.7077 66.9507 41.6881C66.8416 41.6607 66.4454 41.6542 66.421 41.6794ZM67.1617 42.0653C67.1617 42.4053 67.1686 42.4742 67.203 42.4742C67.2363 42.4742 67.2458 42.4115 67.2522 42.1471L67.2601 41.82L67.3328 41.9653C67.3728 42.0453 67.4345 42.1925 67.4699 42.2924C67.5053 42.3924 67.5451 42.4742 67.5583 42.4742C67.5889 42.4742 67.6651 42.3167 67.7692 42.038L67.8508 41.82L67.8694 41.9653C67.8797 42.0453 67.8896 42.2088 67.8915 42.3288C67.8947 42.5316 67.8977 42.5418 67.9342 42.4742C67.9925 42.3662 68.0136 42.1515 67.9913 41.8913C67.9726 41.6731 67.9677 41.66 67.9048 41.66C67.8239 41.66 67.7846 41.7211 67.6805 42.009C67.6371 42.1289 67.5926 42.238 67.5817 42.2514C67.5707 42.2648 67.5106 42.1405 67.4481 41.9752C67.3407 41.6911 67.3297 41.6741 67.2481 41.6655L67.1617 41.6563V42.0653ZM59.2301 45.3963V47.8824H61.7333H64.2366V45.3963V42.9103H61.7333H59.2301V45.3963Z" fill="white"/>
</svg>
