<svg width="84" height="84" viewBox="0 0 84 84" fill="none" xmlns="http://www.w3.org/2000/svg">
<circle cx="42" cy="42" r="42" fill="#3E3E3E"/>
<path fill-rule="evenodd" clip-rule="evenodd" d="M43.1425 32.0293C43.128 32.0754 43.0325 32.6147 43.0325 32.6505C43.0325 32.6681 43.0204 32.6872 43.0056 32.693C42.9908 32.6986 41.7607 32.703 40.272 32.7027C38.7833 32.7024 37.5622 32.7052 37.5585 32.709C37.5547 32.7128 37.6223 32.8391 37.7088 32.9897C38.167 33.788 38.2636 33.9551 38.2993 34.0122C38.3209 34.0465 38.3385 34.0778 38.3385 34.0816C38.3385 34.0855 38.3934 34.1816 38.4605 34.2953C38.5276 34.409 38.6153 34.5623 38.6555 34.6359C38.6957 34.7096 38.758 34.8169 38.794 34.8744L38.8593 34.979H40.7385H42.6176L42.6082 35.025C42.6031 35.0503 42.5833 35.1614 42.5642 35.2719C42.5122 35.5726 42.5027 35.6272 42.4748 35.7823C42.4607 35.8606 42.4413 35.9698 42.4317 36.025C42.4008 36.2027 42.3818 36.3067 42.3561 36.4385C42.3423 36.5095 42.3309 36.5829 42.3309 36.6018C42.3309 36.6361 42.3316 36.6361 43.4697 36.6318L44.6085 36.6275L44.6378 36.4685C44.6539 36.3811 44.6749 36.2643 44.6845 36.2091C44.7198 36.0049 44.7555 35.8053 44.7699 35.7321C44.778 35.6907 44.8085 35.5137 44.8377 35.3388C44.8668 35.1639 44.8933 35.0114 44.8966 34.9999C44.9012 34.9834 45.2603 34.9789 46.6194 34.9787L48.3363 34.9784L48.5217 34.8239C48.6237 34.7389 48.8486 34.5527 49.0214 34.41C49.1943 34.2673 49.4538 34.0527 49.5982 33.933C49.7425 33.8133 49.9574 33.6355 50.0757 33.5377C50.194 33.44 50.4511 33.2272 50.6471 33.065C50.8431 32.9027 51.0135 32.7643 51.0258 32.7574C51.1208 32.7037 51.0924 32.7031 48.186 32.6988C45.3246 32.6946 45.3127 32.6944 45.3146 32.6611C45.3157 32.6427 45.3402 32.4934 45.3692 32.3293C45.3981 32.1653 45.4175 32.0241 45.4122 32.0155C45.4065 32.0062 44.9514 32 44.2772 32C43.22 32 43.1512 32.0018 43.1425 32.0293ZM36.2337 32.1834C36.2337 32.1988 36.0639 33.1738 36.0004 33.523C35.9505 33.7974 35.9292 33.9169 35.8673 34.2677C35.83 34.4794 35.7356 35.0142 35.6575 35.456C35.5794 35.8978 35.493 36.3873 35.4654 36.5438C35.405 36.887 35.3838 37.0052 35.3649 37.1045C35.35 37.1829 35.3407 37.2355 35.232 37.8576C35.1561 38.292 35.1086 38.5631 35.0647 38.8115C35.0477 38.9082 35.018 39.0776 34.9987 39.1881C34.9794 39.2986 34.9595 39.4088 34.9546 39.4332L34.9456 39.4774L34.6082 39.4872C34.1234 39.5013 31.3425 39.5184 31.3247 39.5074C31.3163 39.5022 31.3156 39.4671 31.3231 39.4268C31.3305 39.3876 31.3446 39.3103 31.3544 39.2551C31.3643 39.1998 31.3838 39.0906 31.3978 39.0124C31.4118 38.9341 31.4607 38.6555 31.5065 38.3931C31.5838 37.9503 31.607 37.8194 31.7168 37.2049C31.7829 36.8352 31.7994 36.7417 31.9991 35.6066C32.1952 34.4918 32.2061 34.4308 32.249 34.2008C32.2627 34.1271 32.2893 33.9765 32.308 33.8661C32.3267 33.7556 32.3531 33.605 32.3667 33.5313C32.3803 33.4577 32.4369 33.1394 32.4924 32.8239C32.548 32.5084 32.5979 32.2384 32.6035 32.2239C32.6285 32.1588 32.5522 32.2251 32.3415 32.4519C31.9705 32.8511 31.1563 33.7237 31.0375 33.8493C30.9766 33.9138 30.8605 34.038 30.7795 34.1255C30.6985 34.2129 30.4474 34.4829 30.2215 34.7253C29.9282 35.0401 29.8074 35.1813 29.7989 35.2191C29.7924 35.2481 29.7751 35.3397 29.7604 35.4225C29.7059 35.7297 29.6531 36.0306 29.6195 36.2258C29.6004 36.3363 29.5779 36.4606 29.5694 36.502C29.5532 36.5813 29.5499 36.6002 29.4181 37.3555C29.3724 37.6179 29.316 37.9379 29.2929 38.0668C29.2698 38.1957 29.1345 38.9601 28.9922 39.7655C28.8499 40.5709 28.7117 41.3504 28.6849 41.4977C28.6574 41.6495 28.6426 41.7721 28.6507 41.7807C28.6657 41.7965 31.2104 41.7968 32.2496 41.781C32.562 41.7763 33.7136 41.7726 34.8088 41.7729C35.9039 41.7731 36.8035 41.7677 36.8077 41.7608C36.8119 41.754 36.8387 41.6166 36.8671 41.4556C36.8955 41.2947 36.9264 41.1215 36.9358 41.0709C36.9451 41.0203 36.9827 40.8094 37.0192 40.6023C37.0557 40.3952 37.0931 40.1843 37.1022 40.1337C37.1497 39.8701 37.1769 39.7162 37.2529 39.2802C37.2987 39.0178 37.3474 38.7429 37.361 38.6693C37.3747 38.5957 37.4235 38.3208 37.4694 38.0584C37.5153 37.7961 37.5607 37.54 37.5703 37.4894C37.5798 37.4388 37.6472 37.0585 37.72 36.6442C37.7928 36.23 37.8683 35.8007 37.8879 35.6903C37.9498 35.3401 37.9555 35.3076 37.9731 35.2005L37.9904 35.0957L37.9219 34.9829C37.8842 34.9209 37.4973 34.2642 37.0621 33.5236C36.627 32.783 36.2626 32.1742 36.2523 32.1708C36.2421 32.1674 36.2337 32.1731 36.2337 32.1834ZM62.8527 32.6465C62.5449 32.6926 62.3533 32.7376 62.101 32.823C61.7247 32.9504 61.1878 33.2171 61.046 33.3472C61.0058 33.3841 60.5653 33.9577 60.067 34.6221C58.5707 36.617 58.0265 37.3374 58.0205 37.3314C58.0173 37.3283 58.0376 37.1949 58.0656 37.0352C58.1154 36.7506 58.1247 36.6986 58.1741 36.4267C58.298 35.7448 58.3038 35.6991 58.2722 35.6574C58.2557 35.6358 58.1698 35.5289 58.0813 35.4199C57.9927 35.3109 57.8622 35.1501 57.7912 35.0627C57.7202 34.9752 57.5769 34.7983 57.4728 34.6694C57.3687 34.5405 57.2101 34.3447 57.1204 34.2343C56.8287 33.8753 56.4469 33.4036 56.2161 33.1171L55.9903 32.8368H54.0006H52.011L51.8024 33.0063C51.6876 33.0995 51.5599 33.2045 51.5186 33.2397C51.4772 33.2749 51.3304 33.3963 51.1923 33.5095C51.0542 33.6228 50.6783 33.9315 50.357 34.1955C50.0358 34.4595 49.4948 34.9039 49.1548 35.1831L48.5368 35.6908L48.5086 35.8328C48.4931 35.9109 48.4536 36.1292 48.4208 36.3179C48.388 36.5066 48.3391 36.7852 48.3121 36.9371C48.2852 37.089 48.2473 37.3036 48.2279 37.4141C48.1313 37.965 48.0253 38.563 48.0082 38.6536L47.989 38.755L48.1615 38.9632C48.2563 39.0777 48.389 39.2371 48.4562 39.3174C48.5235 39.3977 48.5785 39.4698 48.5785 39.4778C48.5785 39.4943 46.7931 39.5145 45.337 39.5145H44.3561L44.0233 39.8534C43.7377 40.1442 43.4665 40.4234 42.3561 41.5699C42.2642 41.6648 42.1868 41.7483 42.1843 41.7555C42.1817 41.7626 42.7605 41.7733 43.4705 41.7791C47.5414 41.8127 48.9578 41.8253 50.3325 41.8403C51.1732 41.8495 52.3684 41.8616 52.9886 41.8673L54.1162 41.8776L54.3166 41.7038C55.0705 41.0504 56.7859 39.5812 56.7901 39.5853C56.7928 39.5881 56.7887 39.643 56.7808 39.7072C56.7504 39.9552 56.6723 41.0639 56.6816 41.1148C56.6831 41.1229 56.6834 41.3535 56.6823 41.6274L56.6803 42.1253H55.8863H55.0922L54.9216 42.2728C54.7056 42.4595 54.3372 42.7732 54.0925 42.9788C53.9884 43.0663 53.7702 43.2508 53.6077 43.3888C53.4451 43.5269 53.2111 43.7255 53.0877 43.8302C52.9643 43.9348 52.7301 44.1344 52.5674 44.2737L52.2715 44.5269L52.2709 44.7784L52.2703 45.03L52.6429 45.4813C52.8478 45.7296 53.3343 46.3206 53.7239 46.7946C54.1135 47.2687 54.5529 47.8027 54.7002 47.9813C55.2071 48.5959 55.3262 48.7444 55.3259 48.7611C55.3257 48.7703 55.2301 48.858 55.1134 48.9559C54.9967 49.0539 54.7669 49.2485 54.6026 49.3885C54.3149 49.6335 54.3029 49.6417 54.2749 49.612C54.2589 49.595 54.0511 49.3439 53.8131 49.054C53.5751 48.764 53.2415 48.3588 53.0717 48.1534C52.902 47.9481 52.7217 47.7257 52.6712 47.6593C52.6207 47.5928 52.2981 47.1979 51.9543 46.7816L51.3293 46.0248H49.7932C48.5667 46.0248 48.2603 46.029 48.2733 46.0457C48.2919 46.0694 48.8763 46.8073 49.2639 47.2964C49.4061 47.4757 49.808 47.9811 50.1571 48.4195C50.5063 48.8579 50.9343 49.3965 51.1083 49.6164C51.2823 49.8364 51.5383 50.1594 51.6772 50.3343C51.8162 50.5092 52.116 50.8876 52.3434 51.1753L52.757 51.6983L53.896 51.698L55.0349 51.6977L55.2204 51.5431C55.3224 51.4582 55.5431 51.2757 55.711 51.1376C55.8788 50.9995 56.1524 50.7734 56.319 50.6351C56.4856 50.4969 56.6444 50.3694 56.672 50.3519C56.7166 50.3235 57.0893 50.0105 57.673 49.5109C57.7827 49.4171 57.8776 49.3435 57.8839 49.3473C57.8901 49.3512 59.9653 49.3551 62.4953 49.3559L67.0953 49.3573L67.1407 49.0676C67.1657 48.9082 67.1982 48.7025 67.2129 48.6105C67.4119 47.3684 67.5271 46.2004 67.5274 45.4223C67.5276 44.9594 67.5209 44.87 67.4862 44.87C67.4504 44.87 67.185 44.7322 66.9769 44.6056C65.6972 43.8271 64.066 42.2828 62.7484 40.6023C62.651 40.478 62.535 40.3312 62.4906 40.276C62.4463 40.2207 62.4174 40.1731 62.4265 40.17C62.4356 40.167 62.4864 40.1908 62.5393 40.223C63.0571 40.5378 63.6536 40.8293 64.0054 40.9395C64.2452 41.0146 64.4278 41.0485 64.7124 41.0709C65.016 41.0948 65.1864 41.1552 65.397 41.3138C65.532 41.4155 65.6359 41.5366 65.7529 41.7287L65.8467 41.8826L66.0703 41.8946C66.1933 41.9011 66.4894 41.9137 66.7282 41.9226L67.1626 41.9386L67.2127 41.8844C67.3482 41.738 67.989 40.9195 67.9988 40.8804C68.0119 40.8282 67.9166 40.4662 67.7127 39.7936C67.1882 38.0634 66.9661 37.5245 66.3559 36.502C65.985 35.8803 65.5312 35.2279 65.1027 34.6999C65.0171 34.5945 64.9496 34.5007 64.9527 34.4915C64.9558 34.4823 65.2776 34.3141 65.6679 34.1177C66.0581 33.9213 66.3774 33.7516 66.3774 33.7406C66.3774 33.7203 66.3132 33.6922 66.0881 33.6139C65.6781 33.4714 65.1023 33.3439 64.5483 33.273C64.2546 33.2355 63.5445 33.1853 63.3745 33.1901C63.3124 33.1919 63.2568 33.1886 63.251 33.1828C63.2452 33.177 63.3359 33.0735 63.4526 32.9529C63.5693 32.8322 63.6619 32.7248 63.6584 32.714C63.6451 32.6735 63.4853 32.6494 63.1952 32.6442C63.0344 32.6413 62.8803 32.6424 62.8527 32.6465ZM23.2708 33.1382C23.0825 33.2864 22.8757 33.4486 22.8114 33.4987C21.4174 34.5833 21.0555 34.8689 21.0456 34.8923C21.0391 34.9078 21.0149 35.0221 20.9918 35.1464C20.9686 35.2706 20.9191 35.5342 20.8815 35.7321C20.8441 35.93 20.802 36.1522 20.7881 36.2258C20.7741 36.2995 20.7487 36.4313 20.7316 36.5187C20.7145 36.6062 20.688 36.7455 20.6729 36.8283C20.6577 36.9112 20.6273 37.0731 20.6052 37.1882C20.5831 37.3032 20.5494 37.4802 20.5304 37.5815C20.5114 37.6827 20.4583 37.9651 20.4124 38.2091C20.3666 38.453 20.3186 38.709 20.3058 38.7781C20.293 38.8471 20.2629 39.0053 20.2389 39.1295C20.2149 39.2538 20.1848 39.412 20.172 39.481C20.1467 39.6173 20.0707 40.0195 19.9634 40.5856C19.8449 41.21 19.7461 41.7387 19.7461 41.7481C19.7461 41.7622 22.0179 41.7586 22.0183 41.7445C22.0187 41.7254 22.2118 40.655 22.2862 40.2592C22.319 40.0842 22.3832 39.7341 22.4104 39.5814C22.4259 39.494 22.4492 39.3681 22.4622 39.3018C22.4751 39.2354 22.4857 39.1771 22.4857 39.1721C22.4857 39.1579 25.8405 39.1614 25.8484 39.1756C25.8522 39.1825 25.8383 39.286 25.8174 39.4057C25.7966 39.5253 25.7598 39.7362 25.7356 39.8743C25.7115 40.0124 25.6664 40.2722 25.6353 40.4517C25.6042 40.6312 25.5635 40.8646 25.5449 40.9705C25.5262 41.0763 25.492 41.2722 25.4688 41.4056C25.4457 41.5391 25.4218 41.6728 25.4158 41.7027L25.4048 41.7571H26.5429C27.1688 41.7571 27.6809 41.753 27.6809 41.7481C27.6809 41.7431 27.7066 41.5944 27.738 41.4175C27.7694 41.2407 27.815 40.9793 27.8393 40.8366C27.8637 40.6939 27.8945 40.5169 27.9078 40.4433C27.9322 40.3083 28.0235 39.7871 28.182 38.8785C28.2294 38.6069 28.305 38.1739 28.3501 37.9162C28.3952 37.6584 28.4629 37.2706 28.5006 37.0543C28.5383 36.838 28.6054 36.4539 28.6499 36.2007C28.8597 35.0044 28.8535 35.0451 28.8303 35.0158C28.8183 35.0006 28.5265 34.668 28.182 34.2765C27.3994 33.3874 27.4482 33.4428 27.1817 33.1405L26.9581 32.887H26.2364C25.8395 32.887 25.0869 32.8829 24.564 32.8778L23.6133 32.8686L23.2708 33.1382ZM52.6514 34.9254C51.8951 35.5662 50.6883 36.593 50.6633 36.617C50.6477 36.632 50.6274 36.6894 50.6182 36.7447C50.6091 36.7999 50.5598 37.0785 50.5088 37.3638C50.4578 37.649 50.416 37.896 50.416 37.9125C50.416 37.9389 50.5686 38.1701 51.2953 39.245L51.4582 39.4861L51.7834 39.4752C51.9623 39.4692 52.5453 39.4642 53.079 39.4641L54.0493 39.464L54.5004 39.0262C55.2342 38.3141 55.6446 37.9062 55.6446 37.8892C55.6446 37.8804 55.6941 37.595 55.7546 37.2548C55.8623 36.649 55.864 36.6356 55.834 36.5978C55.8072 36.5641 55.5844 36.2929 54.9514 35.5234C54.8595 35.4117 54.6688 35.1795 54.5275 35.0074L54.2707 34.6945H53.5973H52.9239L52.6514 34.9254ZM23.2375 35.0711C23.2202 35.1167 22.9012 36.8736 22.9087 36.8812C22.912 36.8845 23.6658 36.8873 24.5837 36.8874L26.2526 36.8876L26.2809 36.7408C26.3073 36.6043 26.449 35.7995 26.5279 35.3388C26.5468 35.2284 26.5664 35.1174 26.5716 35.0921L26.5809 35.0463L24.9155 35.0419C23.2634 35.0376 23.25 35.0378 23.2375 35.0711ZM42.273 37.2091C42.2683 37.2298 42.2459 37.3522 42.2232 37.481C42.2006 37.6099 42.1661 37.8057 42.1466 37.9162C42.1272 38.0266 42.1043 38.1566 42.0958 38.2049C42.0664 38.3725 42.0492 38.4692 42.0231 38.6149C42.0087 38.6954 41.985 38.8272 41.9706 38.9078C41.9338 39.1132 41.9216 39.1823 41.8634 39.5145C41.7369 40.2375 41.6781 40.57 41.6551 40.6943C41.6414 40.768 41.6111 40.9412 41.5878 41.0793C41.5644 41.2173 41.5375 41.368 41.5279 41.414C41.5183 41.46 41.507 41.5146 41.5028 41.5353C41.4976 41.5605 41.503 41.573 41.5191 41.573C41.5322 41.573 41.5455 41.5657 41.5486 41.5569C41.5517 41.548 41.6895 41.4029 41.8549 41.2344C42.1617 40.9219 42.6702 40.4021 43.3989 39.6561C43.6234 39.4263 43.9106 39.1329 44.0372 39.004L44.2673 38.7697L44.3506 38.3011C44.3963 38.0434 44.4571 37.6969 44.4855 37.5312C44.514 37.3656 44.5413 37.2168 44.5461 37.2007C44.5545 37.173 44.493 37.1714 43.4182 37.1714H42.2815L42.273 37.2091ZM25.3003 42.1462C25.293 42.167 25.2544 42.3769 25.1905 42.7445C25.172 42.8504 25.1314 43.0801 25.1001 43.255C25.0478 43.5475 24.9944 43.8497 24.9583 44.0583C24.898 44.4068 24.8707 44.5614 24.8491 44.6775C24.8354 44.7511 24.7754 45.0901 24.7159 45.4306C24.6564 45.7712 24.6 46.0913 24.5906 46.1419C24.5812 46.1925 24.5468 46.3846 24.5141 46.5687C24.4587 46.8814 24.4285 47.0531 24.3401 47.5561C24.3207 47.6666 24.2678 47.9678 24.2226 48.2255C24.1773 48.4833 24.1327 48.7318 24.1236 48.7778C24.1144 48.8239 24.084 48.9971 24.0559 49.1628C24.0279 49.3284 23.9974 49.5017 23.9882 49.5477C23.917 49.9042 23.6057 51.7194 23.6136 51.7322C23.6259 51.7522 25.8542 51.7548 25.8665 51.7348C25.8711 51.7273 25.9353 51.379 26.0091 50.9608C26.0829 50.5426 26.1505 50.1627 26.1594 50.1167C26.1683 50.0707 26.1946 49.9238 26.2178 49.7904C26.2966 49.3377 26.5279 48.0251 26.5407 47.9578L26.5534 47.8908L28.0025 47.8865C28.9163 47.8838 29.4516 47.8882 29.4516 47.8983C29.4516 47.9071 29.4447 47.9504 29.4362 47.9946C29.4106 48.1284 29.3053 48.7248 29.1678 49.5142C29.1598 49.5602 29.1296 49.7297 29.1008 49.8908C29.0719 50.0519 29.0416 50.2213 29.0335 50.2673C29.0253 50.3134 28.9919 50.5016 28.9593 50.6857C28.9267 50.8698 28.8766 51.1522 28.8479 51.3133C28.8193 51.4744 28.7949 51.6363 28.7938 51.6732L28.7917 51.7401L29.9046 51.7444C30.7996 51.7479 31.0211 51.7444 31.0355 51.727C31.0454 51.7151 31.0614 51.6567 31.0711 51.5972C31.0809 51.5377 31.1077 51.3836 31.1307 51.2548C31.1537 51.1259 31.1913 50.9112 31.2144 50.7778C31.2374 50.6443 31.2631 50.5012 31.2715 50.4598C31.2891 50.3736 31.3079 50.2674 31.4227 49.6063C31.4682 49.3439 31.513 49.0916 31.5221 49.0456C31.5313 48.9996 31.562 48.8264 31.5903 48.6607C31.6185 48.495 31.6642 48.2352 31.6916 48.0833C31.7191 47.9314 31.7566 47.7205 31.7751 47.6147C31.8615 47.1181 31.9748 46.4768 31.9893 46.4013C31.9982 46.3553 32.025 46.2047 32.0489 46.0666C32.0728 45.9285 32.1033 45.7553 32.1167 45.6817C32.1432 45.5361 32.286 44.728 32.34 44.4181C32.3584 44.3122 32.3856 44.1579 32.4004 44.075C32.4153 43.9922 32.4339 43.8867 32.442 43.8407C32.45 43.7947 32.4687 43.6893 32.4835 43.6064C32.5118 43.4484 32.565 43.1466 32.634 42.7529C32.6566 42.624 32.6898 42.4363 32.708 42.3358C32.7261 42.2353 32.737 42.1468 32.7323 42.1392C32.7276 42.1315 32.2208 42.1253 31.6061 42.1253C30.3427 42.1253 30.4678 42.1099 30.4471 42.2675C30.4411 42.3136 30.4293 42.3851 30.4208 42.4265C30.4124 42.4679 30.3866 42.611 30.3634 42.7445C30.3402 42.878 30.2495 43.3939 30.1617 43.8909C30.0739 44.388 29.9756 44.9453 29.9431 45.1294C29.9106 45.3135 29.8786 45.4942 29.8719 45.531L29.8598 45.598L28.4112 45.6023C27.6144 45.6046 26.9626 45.6009 26.9627 45.5939C26.9628 45.5795 27.019 45.2569 27.1545 44.4934C27.1692 44.4106 27.1962 44.2562 27.2146 44.1503C27.2889 43.7223 27.4424 42.8557 27.5214 42.4182C27.5347 42.3445 27.5506 42.2485 27.5567 42.2048L27.5677 42.1253H26.4377C25.5488 42.1253 25.3062 42.1297 25.3003 42.1462ZM33.9136 42.2131C33.9041 42.2615 33.8768 42.414 33.8528 42.552C33.8289 42.6901 33.7984 42.8633 33.7851 42.937C33.7043 43.3831 33.5958 43.9895 33.5785 44.0918C33.5586 44.209 33.4398 44.8937 33.4014 45.1126C33.3868 45.1955 33.3684 45.2972 33.3605 45.3386C33.3525 45.38 33.3343 45.4817 33.3199 45.5645C33.3055 45.6474 33.2677 45.8582 33.2359 46.0331C33.204 46.208 33.1706 46.3963 33.1616 46.4515C33.1434 46.5628 33.1236 46.6758 32.9197 47.8322C32.888 48.0117 32.8463 48.249 32.827 48.3594C32.8077 48.4699 32.7694 48.6845 32.7419 48.8364C32.5582 49.8529 32.3945 50.8024 32.4011 50.8132C32.4054 50.8201 32.4016 50.8587 32.3926 50.8988C32.3836 50.939 32.3575 51.0807 32.3344 51.2137C32.3114 51.3468 32.2812 51.5196 32.2673 51.5978C32.2533 51.6761 32.2418 51.7495 32.2416 51.761C32.2413 51.7777 33.2512 51.7819 37.236 51.7819C39.9831 51.7819 42.2306 51.7763 42.2306 51.7694C42.2305 51.7625 42.1948 51.7148 42.1512 51.6633C42.1077 51.6119 41.6774 51.0932 41.195 50.5108L40.318 49.4517L39.2155 49.462C36.8234 49.4845 34.914 49.4937 34.914 49.4827C34.914 49.471 35.1531 48.1146 35.1769 47.9912L35.1898 47.9243L37.2277 47.9159C38.575 47.9104 39.2638 47.9019 39.2603 47.8908C39.2574 47.8816 38.8327 47.3642 38.3165 46.7411L37.378 45.6081L36.4862 45.6072L35.5944 45.6064L35.6062 45.5269C35.6393 45.3044 35.6535 45.1992 35.7336 44.5855C35.7533 44.4336 35.7782 44.3034 35.7886 44.2961C35.8089 44.282 37.301 44.2921 39.0067 44.3178C39.5717 44.3263 40.3614 44.3354 40.7614 44.338L41.4888 44.3428L41.605 44.251C41.6689 44.2005 41.8274 44.0725 41.9571 43.9665C42.1711 43.7916 42.5366 43.4947 43.1934 42.9621C43.3239 42.8562 43.5999 42.634 43.8067 42.4684C44.0135 42.3027 44.1833 42.1577 44.1839 42.1462C44.1849 42.1295 43.1493 42.1253 39.058 42.1253H33.9308L33.9136 42.2131ZM45.4627 42.1427C45.4521 42.1599 45.362 42.2372 44.6537 42.8366C44.4579 43.0022 44.1648 43.2508 44.0023 43.3888C43.8398 43.5269 43.6136 43.719 43.4997 43.8156C43.2585 44.0203 42.4633 44.7001 42.4411 44.7206C42.4239 44.7365 42.4044 44.7116 42.9828 45.4139C43.2179 45.6992 43.729 46.3206 44.1186 46.7946C44.5083 47.2687 44.9476 47.8027 45.095 47.9813C45.6018 48.5959 45.7209 48.7444 45.7206 48.7611C45.7204 48.7703 45.6248 48.858 45.5082 48.9559C45.3915 49.0539 45.1616 49.2485 44.9974 49.3885C44.7097 49.6335 44.6977 49.6417 44.6697 49.612C44.6537 49.595 44.4459 49.3439 44.2079 49.054C43.9699 48.764 43.6363 48.3587 43.4665 48.1532C43.2967 47.9478 43.1165 47.7256 43.066 47.6595C42.9702 47.534 41.5809 45.8473 41.4472 45.6941L41.3704 45.6061L39.8474 45.6104L38.3244 45.6147L38.6762 46.0582C39.7027 47.3521 39.9703 47.6891 40.5519 48.4194C40.901 48.8578 41.329 49.3965 41.503 49.6164C41.677 49.8364 41.9331 50.1594 42.072 50.3343C42.2109 50.5092 42.5107 50.8876 42.7382 51.1753L43.1518 51.6983L44.2907 51.698L45.4297 51.6977L45.6151 51.5431C45.7171 51.4582 45.9379 51.2757 46.1057 51.1376C46.2736 50.9995 46.5472 50.7734 46.7138 50.6351C46.8803 50.4969 47.0392 50.3693 47.0667 50.3518C47.0943 50.3342 47.3078 50.1574 47.5413 49.9589C47.7747 49.7603 48.1017 49.4822 48.2679 49.3407C48.4342 49.1993 48.6549 49.012 48.7585 48.9245C48.8843 48.8182 48.9419 48.7592 48.9321 48.7465C48.9041 48.7103 48.4376 48.1406 48.2863 47.9578C48.2025 47.8565 48.007 47.6193 47.8519 47.4306C47.6968 47.2419 47.4676 46.9632 47.3426 46.8113C46.7953 46.1465 46.5693 45.8717 46.2207 45.4474C46.0166 45.1988 45.8016 44.9375 45.7431 44.8665L45.6367 44.7376L45.7002 44.6806C45.7352 44.6492 45.8653 44.5383 45.9893 44.4341C46.1133 44.3299 46.2888 44.181 46.3792 44.1032C46.5387 43.966 46.5444 43.9627 46.5729 43.9933C46.5891 44.0106 46.759 44.2169 46.9506 44.4516C47.1421 44.6863 47.3818 44.9781 47.4833 45.1001L47.6678 45.3218H49.2688C50.1494 45.3218 50.8674 45.3159 50.8643 45.3086C50.8612 45.3013 50.7374 45.1487 50.5892 44.9697C50.4409 44.7906 50.0813 44.3541 49.79 43.9997C49.0599 43.1114 48.7955 42.7906 48.4988 42.4328L48.2436 42.1253H46.8585C45.9161 42.1253 45.47 42.1308 45.4627 42.1427ZM17.6826 42.1595C17.6769 42.1687 17.5927 42.6388 17.4488 43.4642C17.3272 44.161 17.026 45.8684 16.9984 46.0164C16.9847 46.09 16.9471 46.3009 16.9148 46.485C16.8581 46.808 16.8237 47.0023 16.7887 47.1963C16.7796 47.2469 16.7423 47.4615 16.7058 47.6733C16.6694 47.885 16.6319 48.0996 16.6225 48.1502C16.5768 48.3977 16.4939 48.8629 16.323 49.8322C16.2856 50.0439 16.2017 50.5146 16.1365 50.8782C16.0713 51.2418 16.0139 51.575 16.009 51.6188L16 51.6983H19.2252C20.999 51.6983 22.4539 51.6924 22.4584 51.6852C22.4628 51.678 22.497 51.4991 22.5344 51.2877C22.5717 51.0763 22.6212 50.8016 22.6444 50.6774C22.6675 50.5531 22.7023 50.3611 22.7215 50.2506C22.7408 50.1401 22.7667 49.9933 22.7791 49.9242C22.7915 49.8552 22.8136 49.7083 22.8281 49.5979C22.8427 49.4874 22.8734 49.2968 22.8963 49.1743C22.9366 48.9592 22.937 48.9502 22.9081 48.9126C22.8917 48.8911 22.6678 48.6227 22.4105 48.316C22.1533 48.0093 21.8225 47.6145 21.6755 47.4385C21.1384 46.7957 21.0078 46.6452 20.997 46.657C20.9909 46.6637 20.8745 47.2848 20.7383 48.0373L20.4907 49.4054H19.5838C18.8293 49.4054 18.677 49.4016 18.677 49.3826C18.677 49.3701 18.6849 49.3192 18.6944 49.2696C18.704 49.2201 18.7229 49.1155 18.7364 49.0372C18.7498 48.959 18.772 48.8347 18.7856 48.7611C18.7991 48.6875 18.8403 48.454 18.8771 48.2423C18.9138 48.0306 18.9516 47.8159 18.9611 47.7653C18.9705 47.7147 19.0757 47.1197 19.1948 46.4432C19.3139 45.7666 19.4191 45.1716 19.4286 45.121C19.4381 45.0704 19.4689 44.8974 19.4971 44.7365C19.5253 44.5757 19.5519 44.4383 19.5563 44.4311C19.5649 44.4172 21.3331 44.4125 21.3331 44.4264C21.3331 44.4373 21.1894 45.2845 21.1647 45.4193C21.146 45.5212 21.1468 45.5267 21.186 45.5699C21.2899 45.6843 21.5481 45.9793 22.0013 46.5015C22.2723 46.8138 22.5639 47.1487 22.6492 47.2457C22.7345 47.3428 22.8735 47.5026 22.9582 47.6008C23.0429 47.699 23.1196 47.7775 23.1288 47.7752C23.138 47.7729 23.1479 47.7528 23.1508 47.7305C23.1624 47.6412 23.3434 46.533 23.4376 45.9745C23.5306 45.4229 23.5682 45.215 23.6053 45.0457C23.6133 45.0089 23.6317 44.911 23.6461 44.8281C23.6605 44.7453 23.6796 44.6399 23.6885 44.5938C23.6975 44.5478 23.7162 44.4461 23.7302 44.3679C23.7441 44.2897 23.7631 44.188 23.7722 44.142C23.7813 44.0959 23.8116 43.934 23.8395 43.7821C23.8674 43.6303 23.897 43.4721 23.9053 43.4307C23.9135 43.3893 23.9326 43.2876 23.9475 43.2047C23.9625 43.1219 23.9849 43.0014 23.9974 42.937C24.0098 42.8725 24.0361 42.7332 24.0558 42.6274C24.0755 42.5215 24.103 42.3759 24.1169 42.3038C24.1308 42.2317 24.1372 42.1677 24.1311 42.1615C24.1178 42.1483 17.6908 42.1463 17.6826 42.1595ZM56.0121 44.0779C55.893 44.1821 55.3178 44.6718 55.2646 44.7144C55.2431 44.7317 55.2548 44.7532 55.3471 44.865C55.4063 44.9368 55.6218 45.1988 55.8259 45.4474C56.0301 45.6959 56.3119 46.0386 56.4522 46.2089C56.5924 46.3791 56.8452 46.686 57.0139 46.8909C57.1826 47.0957 57.3224 47.2614 57.3246 47.2591C57.3268 47.2567 57.3105 47.1682 57.2883 47.0624C57.2662 46.9565 57.2257 46.757 57.1983 46.6189C57.1709 46.4808 57.141 46.3302 57.1318 46.2842C57.0849 46.0497 57.0058 45.5696 56.9457 45.1545C56.9144 44.9387 56.9009 44.885 56.8652 44.8353C56.7907 44.7316 56.1577 43.9662 56.1473 43.9673C56.1419 43.9679 56.0811 44.0177 56.0121 44.0779ZM57.9304 50.0623C57.919 50.083 57.7454 50.4615 57.5447 50.9033C57.2274 51.6016 57.1292 51.8157 57.1016 51.8698C57.0981 51.8767 59.5464 51.8824 62.5423 51.8824C66.8889 51.8824 67.9895 51.8781 67.9895 51.8614C67.9895 51.8499 67.971 51.7953 67.9483 51.7401C67.9256 51.6849 67.8577 51.5004 67.7974 51.3301C67.737 51.1598 67.6735 50.9828 67.6562 50.9368C67.6389 50.8907 67.6059 50.8004 67.5828 50.7359C67.5596 50.6715 67.4932 50.487 67.435 50.3259L67.3293 50.033L62.6402 50.0288L57.9511 50.0246L57.9304 50.0623ZM48.4734 50.9417C48.0435 51.3724 47.6971 51.7301 47.7036 51.7366C47.7191 51.7521 50.8078 51.7521 50.8232 51.7366C50.8337 51.7261 49.2843 50.1585 49.2634 50.1585C49.2588 50.1585 48.9032 50.511 48.4734 50.9417Z" fill="white"/>
</svg>
