<svg width="169" height="40" viewBox="0 0 169 40" fill="none" xmlns="http://www.w3.org/2000/svg">
<rect width="169" height="40" rx="20" fill="#F4F4F4"/>
<path d="M44.2 25.14C46.314 25.14 47.714 23.992 47.714 22.284C47.714 21.192 47.028 20.212 45.992 19.834C46.86 19.47 47.434 18.616 47.434 17.692C47.434 16.236 46.146 15.256 44.2 15.256C42.254 15.256 40.966 16.544 40.966 18.476H42.016C42.016 17.132 42.884 16.236 44.2 16.236C45.474 16.236 46.328 16.88 46.328 17.832C46.328 18.742 45.516 19.358 44.312 19.358H43.472V20.338H44.312C45.684 20.338 46.608 21.08 46.608 22.186C46.608 23.376 45.642 24.16 44.2 24.16C42.8 24.16 41.876 23.362 41.876 22.158H40.826C40.826 23.95 42.17 25.14 44.2 25.14ZM55.8599 25.14C58.2399 25.14 59.8359 23.992 59.8359 22.27C59.8359 20.8 58.8419 20.058 55.9859 19.386C54.2079 18.98 53.5919 18.616 53.5919 17.944C53.5919 17.006 54.5019 16.376 55.8599 16.376C57.1199 16.376 58.1419 17.146 58.3939 18.294L59.5419 18.014C59.1359 16.362 57.6519 15.256 55.8599 15.256C53.7459 15.256 52.3319 16.334 52.3319 17.944C52.3319 19.288 53.2139 19.96 55.7339 20.548C57.8479 21.038 58.5759 21.486 58.5759 22.27C58.5759 23.32 57.4839 24.02 55.8599 24.02C54.0679 24.02 52.8639 23.082 52.8639 21.696H51.6739C51.6739 23.754 53.3539 25.14 55.8599 25.14ZM61.1838 25H62.3038V15.396H61.1838V25ZM67.1645 25.14C69.2645 25.14 70.6785 23.684 70.6785 21.5C70.6785 19.316 69.2645 17.86 67.1645 17.86C65.0645 17.86 63.6505 19.316 63.6505 21.5C63.6505 23.684 65.0645 25.14 67.1645 25.14ZM67.1645 24.16C65.7365 24.16 64.7705 23.096 64.7705 21.5C64.7705 19.904 65.7365 18.84 67.1645 18.84C68.5925 18.84 69.5585 19.904 69.5585 21.5C69.5585 23.096 68.5925 24.16 67.1645 24.16ZM74.3877 25.14C74.7237 25.14 75.1857 25.084 75.5357 25V24.16H74.3177C73.7857 24.16 73.4217 23.782 73.4217 23.208V18.98H75.4657V18H73.4217V15.396H72.3017V18H71.1817V18.98H72.3017V23.208C72.3017 24.37 73.1417 25.14 74.3877 25.14ZM86.635 25H87.979L84.031 15.396H82.743L78.795 25H80.139L81.245 22.214H85.529L86.635 25ZM81.693 21.094L83.387 16.838L85.081 21.094H81.693ZM90.0579 25H91.1079L93.9079 18H92.7039L90.5759 23.754L88.4619 18H87.2579L90.0579 25ZM97.7462 25.14C98.6842 25.14 99.6922 24.608 100.238 23.824V25H101.358V18H100.238V19.176C99.6922 18.392 98.6842 17.86 97.7462 17.86C95.7022 17.86 94.3302 19.316 94.3302 21.5C94.3302 23.684 95.7022 25.14 97.7462 25.14ZM97.8582 24.16C96.4162 24.16 95.4502 23.096 95.4502 21.5C95.4502 19.904 96.4162 18.84 97.8582 18.84C99.2862 18.84 100.238 19.904 100.238 21.5C100.238 23.096 99.2862 24.16 97.8582 24.16ZM103.033 25H104.153V15.396H103.033V25ZM106.11 16.936H107.23V15.396H106.11V16.936ZM106.11 25H107.23V18H106.11V25ZM111.992 25.14C112.93 25.14 113.938 24.608 114.484 23.824V25H115.604V18H114.484V19.176C113.938 18.392 112.93 17.86 111.992 17.86C109.948 17.86 108.576 19.316 108.576 21.5C108.576 23.684 109.948 25.14 111.992 25.14ZM112.104 24.16C110.662 24.16 109.696 23.096 109.696 21.5C109.696 19.904 110.662 18.84 112.104 18.84C113.532 18.84 114.484 19.904 114.484 21.5C114.484 23.096 113.532 24.16 112.104 24.16ZM120.947 25.14C123.019 25.14 124.419 23.684 124.419 21.5C124.419 19.316 123.019 17.86 120.947 17.86C119.967 17.86 118.945 18.392 118.399 19.19V15.396H117.279V25H118.399V23.81C118.945 24.608 119.967 25.14 120.947 25.14ZM120.835 24.16C119.379 24.16 118.399 23.096 118.399 21.5C118.399 19.904 119.379 18.84 120.835 18.84C122.305 18.84 123.299 19.904 123.299 21.5C123.299 23.096 122.305 24.16 120.835 24.16ZM125.633 25H126.753V15.396H125.633V25ZM131.614 25.14C133.182 25.14 134.526 24.132 134.974 22.62H133.854C133.546 23.544 132.65 24.16 131.614 24.16C130.242 24.16 129.29 23.18 129.234 21.724H135.016L135.128 21.612C135.128 19.372 133.714 17.86 131.614 17.86C129.514 17.86 128.1 19.316 128.1 21.5C128.1 23.684 129.514 25.14 131.614 25.14ZM129.29 20.744C129.542 19.61 130.48 18.84 131.614 18.84C132.748 18.84 133.686 19.61 133.938 20.744H129.29Z" fill="#222222"/>
<path d="M16.9997 27C13.9243 27 11.6975 27 10.2518 25.0909C8.80608 23.1818 13.9243 21.75 16.9998 21.75C20.0752 21.75 25.1942 23.1818 23.7481 25.0909C22.3021 26.9999 20.0752 27 16.9997 27Z" stroke="#222222" stroke-width="1.5"/>
<path d="M23.8122 25.0002L23.1846 24.5895L22.4255 25.7497L23.812 25.7502L23.8122 25.0002ZM29.7841 23.3456L29.1838 22.8959L29.1838 22.8959L29.7841 23.3456ZM18.5852 21.8547L18.1329 21.2564L16.6554 22.3734L18.4938 22.5991L18.5852 21.8547ZM23.9997 24.2502C23.9368 24.2502 23.8744 24.2502 23.8125 24.2502L23.812 25.7502C23.8742 25.7502 23.9368 25.7502 23.9997 25.7502V24.2502ZM29.1838 22.8959C28.695 23.5484 28.0831 23.8826 27.2579 24.0601C26.3906 24.2466 25.3429 24.2502 23.9997 24.2502V25.7502C25.2927 25.7502 26.5173 25.7537 27.5733 25.5266C28.6714 25.2904 29.6336 24.7973 30.3843 23.7953L29.1838 22.8959ZM23.9997 21.2002C25.2301 21.2002 26.8891 21.495 28.0627 21.9722C28.6656 22.2174 29.0323 22.4681 29.1874 22.6627C29.2209 22.7048 29.2368 22.7348 29.2439 22.7519C29.2474 22.7603 29.2488 22.7657 29.2494 22.7682C29.2497 22.7696 29.2498 22.7704 29.2499 22.7708C29.2499 22.7713 29.2499 22.7715 29.2499 22.7715C29.2499 22.7716 29.2499 22.7717 29.2499 22.772C29.2499 22.7723 29.2498 22.773 29.2496 22.7742C29.2493 22.7765 29.2482 22.7818 29.2451 22.7907C29.2388 22.8084 29.2229 22.8437 29.1838 22.8959L30.3843 23.7953C30.6184 23.4828 30.7625 23.119 30.7491 22.7208C30.7358 22.3274 30.5716 21.9927 30.3603 21.7277C29.959 21.2243 29.2964 20.8546 28.6278 20.5827C27.2584 20.0259 25.4055 19.7002 23.9997 19.7002V21.2002ZM19.0375 22.453C19.4806 22.118 20.2771 21.7964 21.238 21.5601C22.1805 21.3283 23.1909 21.2002 23.9997 21.2002V19.7002C23.0545 19.7002 21.9232 19.8468 20.8797 20.1035C19.8547 20.3556 18.8209 20.7363 18.1329 21.2564L19.0375 22.453ZM18.4938 22.5991C19.8922 22.7709 21.3604 23.1504 22.3271 23.643C22.8221 23.8952 23.0924 24.1307 23.2007 24.3013C23.2467 24.3738 23.25 24.4133 23.2499 24.429C23.2499 24.4439 23.247 24.4942 23.1846 24.5895L24.4398 25.4108C24.6331 25.1154 24.749 24.7856 24.7499 24.4328C24.7508 24.081 24.6371 23.7654 24.4672 23.4976C24.1435 22.9874 23.5858 22.6009 23.0081 22.3065C21.8293 21.7059 20.1727 21.294 18.6766 21.1103L18.4938 22.5991Z" fill="#222222"/>
<ellipse cx="17" cy="15.75" rx="3.88889" ry="3.75" stroke="#222222" stroke-width="1.5"/>
<path d="M20.8465 16.3058L20.1052 16.1916L20.0766 16.3774L20.1391 16.5548L20.8465 16.3058ZM20.7217 14.6588L19.9847 14.5199L19.9498 14.7047L20.0063 14.8841L20.7217 14.6588ZM20.1389 15.75C20.1389 15.9004 20.1274 16.0478 20.1052 16.1916L21.5877 16.42C21.6215 16.201 21.6389 15.9772 21.6389 15.75H20.1389ZM20.0063 14.8841C20.0924 15.1575 20.1389 15.448 20.1389 15.75H21.6389C21.6389 15.2929 21.5684 14.8506 21.437 14.4335L20.0063 14.8841ZM21.4587 14.7977C21.6758 13.646 22.72 12.75 24 12.75V11.25C22.0122 11.25 20.3378 12.6462 19.9847 14.5199L21.4587 14.7977ZM24 12.75C25.4447 12.75 26.5833 13.8871 26.5833 15.25H28.0833C28.0833 13.0231 26.2371 11.25 24 11.25V12.75ZM26.5833 15.25C26.5833 16.6129 25.4447 17.75 24 17.75V19.25C26.2371 19.25 28.0833 17.4769 28.0833 15.25H26.5833ZM24 17.75C22.8562 17.75 21.8977 17.0331 21.5539 16.0567L20.1391 16.5548C20.6943 18.1318 22.22 19.25 24 19.25V17.75Z" fill="#222222"/>
</svg>
