<svg width="171" height="32" viewBox="0 0 171 32" fill="none" xmlns="http://www.w3.org/2000/svg">
<path fill-rule="evenodd" clip-rule="evenodd" d="M43.7219 3.41333L28.8012 3.41333L28.8012 14.1212L38.6251 14.1212L33.7132 18.4582L33.7132 18.4582L26.9512 24.4287L35.526 31.9999L42.2879 26.0293L42.288 26.0294L55.7758 14.1201H55.776L55.8119 14.0884L43.7219 3.41333Z" fill="white"/>
<path fill-rule="evenodd" clip-rule="evenodd" d="M13.5252 5.97057L22.1 13.5417L28.8619 7.57117L20.2872 0L13.5252 5.97057ZM22.0987 13.5406L17.1866 17.8778H27.0107V28.5857H12.0901L0 17.9106L0.0359097 17.8789L13.5239 5.96947L22.0987 13.5406Z" fill="#FE4655"/>
<path d="M74.0697 22.0935C70.614 22.0935 70.2014 21.8356 70.2014 19.4115H64.5278C64.5278 25.0592 66.5136 26.4776 74.2244 26.4776C81.729 26.4776 83.6631 25.3429 83.6631 20.7525C83.6631 16.7037 81.6516 15.3111 74.1213 13.8411C71.3877 13.2737 70.6398 12.8869 70.6398 11.8296C70.6398 10.308 71.0266 10.1275 74.2244 10.1275C77.4738 10.1275 77.8607 10.4112 77.8607 13.0932H83.5342C83.5342 7.21337 81.6258 5.74341 74.2244 5.74341C66.8746 5.74341 64.9662 6.95548 64.9662 11.778C64.9662 15.5174 66.6167 16.7552 73.1929 18.0705C76.9838 18.8183 77.9896 19.3083 77.9896 20.4688C77.9896 21.9388 77.577 22.0935 74.0697 22.0935Z" fill="white"/>
<path d="M90.723 26.1682H96.1387V10.6949H102.354V6.05287H84.5595V10.6949H90.723V26.1682Z" fill="white"/>
<path d="M115.279 6.05287H103.777V26.1682H109.193V19.0762H113.216C116.027 19.0762 116.311 19.3083 116.311 21.5262V26.1682H121.984V21.2167C121.984 18.6378 120.617 17.4515 117.935 17.1679C120.746 16.781 121.984 15.2079 121.984 11.8812C121.984 7.21337 120.643 6.05287 115.279 6.05287ZM109.193 14.95V10.437H113.886C116.311 10.437 116.568 10.6691 116.568 12.6548C116.568 14.7179 116.311 14.95 113.886 14.95H109.193Z" fill="white"/>
<path d="M124.303 26.1682H129.718V6.05287H124.303V26.1682Z" fill="white"/>
<path d="M152.072 6.05287H146.373L141.473 21.0104H141.318L136.805 6.05287H130.874L136.934 26.1682H145.496L152.072 6.05287Z" fill="white"/>
<path d="M153.491 6.05287V26.1682H170.048V21.5262H158.907V18.1736H168.965V13.7895H158.907V10.6949H169.996V6.05287H153.491Z" fill="white"/>
</svg>
