<svg width="169" height="40" viewBox="0 0 169 40" fill="none" xmlns="http://www.w3.org/2000/svg">
<rect width="169" height="40" rx="20" fill="#F4F4F4"/>
<path d="M40.98 25H42.24V20.408H46.538V19.288H42.24V16.516H47.182V15.396H40.98V25ZM48.4416 25H49.5616V20.912C49.5616 19.666 50.4016 18.84 51.6616 18.84H52.1376V18C51.9976 17.916 51.7736 17.86 51.5636 17.86C50.8636 17.86 50.0656 18.308 49.5616 18.966V18H48.4416V25ZM55.8715 25.14C57.4395 25.14 58.7835 24.132 59.2315 22.62H58.1115C57.8035 23.544 56.9075 24.16 55.8715 24.16C54.4995 24.16 53.5475 23.18 53.4915 21.724H59.2735L59.3855 21.612C59.3855 19.372 57.9715 17.86 55.8715 17.86C53.7715 17.86 52.3575 19.316 52.3575 21.5C52.3575 23.684 53.7715 25.14 55.8715 25.14ZM53.5475 20.744C53.7995 19.61 54.7375 18.84 55.8715 18.84C57.0055 18.84 57.9435 19.61 58.1955 20.744H53.5475ZM63.9106 25.14C65.4786 25.14 66.8226 24.132 67.2706 22.62H66.1506C65.8426 23.544 64.9466 24.16 63.9106 24.16C62.5386 24.16 61.5866 23.18 61.5306 21.724H67.3126L67.4246 21.612C67.4246 19.372 66.0106 17.86 63.9106 17.86C61.8106 17.86 60.3966 19.316 60.3966 21.5C60.3966 23.684 61.8106 25.14 63.9106 25.14ZM61.5866 20.744C61.8386 19.61 62.7766 18.84 63.9106 18.84C65.0446 18.84 65.9826 19.61 66.2346 20.744H61.5866Z" fill="#222222"/>
<path d="M27.3825 18.7106C27.3681 19.2408 27.1511 19.7453 26.7761 20.1203L19.3623 27.5341C18.5528 28.3436 17.2403 28.3436 16.4308 27.5341L12.4657 23.5691C11.6562 22.7595 11.6562 21.4471 12.4657 20.6376L19.8796 13.2238C20.2546 12.8487 20.7591 12.6317 21.2893 12.6174L25.3645 12.5073C26.5529 12.4751 27.5247 13.447 27.4926 14.6354L27.3825 18.7106Z" stroke="#222222" stroke-width="1.5"/>
<circle cx="24.3794" cy="15.3792" r="0.6" transform="rotate(45 24.3794 15.3792)" fill="#222222" stroke="#222222" stroke-width="0.750639"/>
</svg>
